<svg width="14" height="14" viewBox="0 0 14 14" fill="none" xmlns="http://www.w3.org/2000/svg">
<path d="M7 1.3125C8.54529 1.3125 8.7381 1.31819 9.34439 1.34662C9.95011 1.37506 10.3624 1.47004 10.7253 1.61109C11.1007 1.75556 11.4169 1.95121 11.7331 2.26686C12.0223 2.55118 12.2461 2.8951 12.3889 3.27469C12.5294 3.63698 12.6249 4.04989 12.6534 4.65561C12.6801 5.2619 12.6875 5.45471 12.6875 7C12.6875 8.54529 12.6818 8.7381 12.6534 9.34439C12.6249 9.95011 12.5294 10.3624 12.3889 10.7253C12.2465 11.1051 12.0227 11.4491 11.7331 11.7331C11.4487 12.0222 11.1048 12.246 10.7253 12.3889C10.363 12.5294 9.95011 12.6249 9.34439 12.6534C8.7381 12.6801 8.54529 12.6875 7 12.6875C5.45471 12.6875 5.2619 12.6818 4.65561 12.6534C4.04989 12.6249 3.63755 12.5294 3.27469 12.3889C2.89495 12.2464 2.55097 12.0226 2.26686 11.7331C1.9776 11.4489 1.75381 11.1049 1.61109 10.7253C1.47004 10.363 1.37506 9.95011 1.34662 9.34439C1.31989 8.7381 1.3125 8.54529 1.3125 7C1.3125 5.45471 1.31819 5.2619 1.34662 4.65561C1.37506 4.04932 1.47004 3.63755 1.61109 3.27469C1.75342 2.89486 1.97726 2.55085 2.26686 2.26686C2.55105 1.9775 2.89501 1.7537 3.27469 1.61109C3.63755 1.47004 4.04932 1.37506 4.65561 1.34662C5.2619 1.31989 5.45471 1.3125 7 1.3125ZM7 4.15625C6.24579 4.15625 5.52247 4.45586 4.98917 4.98917C4.45586 5.52247 4.15625 6.24579 4.15625 7C4.15625 7.75421 4.45586 8.47753 4.98917 9.01083C5.52247 9.54414 6.24579 9.84375 7 9.84375C7.75421 9.84375 8.47753 9.54414 9.01083 9.01083C9.54414 8.47753 9.84375 7.75421 9.84375 7C9.84375 6.24579 9.54414 5.52247 9.01083 4.98917C8.47753 4.45586 7.75421 4.15625 7 4.15625ZM10.6969 4.01406C10.6969 3.82551 10.622 3.64468 10.4886 3.51135C10.3553 3.37803 10.1745 3.30312 9.98594 3.30312C9.79738 3.30312 9.61655 3.37803 9.48323 3.51135C9.3499 3.64468 9.275 3.82551 9.275 4.01406C9.275 4.20261 9.3499 4.38344 9.48323 4.51677C9.61655 4.6501 9.79738 4.725 9.98594 4.725C10.1745 4.725 10.3553 4.6501 10.4886 4.51677C10.622 4.38344 10.6969 4.20261 10.6969 4.01406ZM7 5.29375C7.45253 5.29375 7.88652 5.47351 8.2065 5.7935C8.52649 6.11348 8.70625 6.54747 8.70625 7C8.70625 7.45253 8.52649 7.88652 8.2065 8.2065C7.88652 8.52649 7.45253 8.70625 7 8.70625C6.54747 8.70625 6.11348 8.52649 5.7935 8.2065C5.47351 7.88652 5.29375 7.45253 5.29375 7C5.29375 6.54747 5.47351 6.11348 5.7935 5.7935C6.11348 5.47351 6.54747 5.29375 7 5.29375Z" fill="#110A1D"/>
</svg>
