<svg width="14" height="14" viewBox="0 0 14 14" fill="none" xmlns="http://www.w3.org/2000/svg">
<path d="M1.64062 2.40836C1.64062 1.98429 1.993 1.64062 2.42778 1.64062H11.5722C12.007 1.64062 12.3594 1.98429 12.3594 2.40836V11.5916C12.3594 12.0157 12.007 12.3594 11.5722 12.3594H2.42778C1.993 12.3594 1.64062 12.0157 1.64062 11.5916V2.40836ZM4.95205 10.6136V5.77337H3.34357V10.6136H4.95205ZM4.14814 5.11216C4.70887 5.11216 5.0579 4.74102 5.0579 4.2761C5.04785 3.80112 4.70954 3.44004 4.15886 3.44004C3.60819 3.44004 3.24844 3.80179 3.24844 4.2761C3.24844 4.74102 3.59747 5.11216 4.13742 5.11216H4.14814ZM7.43612 10.6136V7.91042C7.43612 7.76572 7.44684 7.62102 7.48971 7.51785C7.60561 7.22911 7.87023 6.92966 8.31506 6.92966C8.89722 6.92966 9.12968 7.37315 9.12968 8.02431V10.6136H10.7382V7.8374C10.7382 6.35018 9.94498 5.65882 8.8865 5.65882C8.03302 5.65882 7.65049 6.12776 7.43612 6.45803V6.47478H7.4254C7.42896 6.46919 7.43253 6.46361 7.43612 6.45803V5.77337H5.82831C5.8484 6.22758 5.82831 10.6136 5.82831 10.6136H7.43612Z" fill="#110A1D"/>
</svg>
