<svg width="14" height="14" viewBox="0 0 14 14" fill="none" xmlns="http://www.w3.org/2000/svg">
<path d="M11.0632 2.74058C11.0632 2.74058 12.0547 2.35393 11.9718 3.29285C11.9445 3.67949 11.6967 5.03286 11.5037 6.49648L10.8427 10.8325C10.8427 10.8325 10.7876 11.4677 10.2918 11.5782C9.79614 11.6884 9.05246 11.1915 8.91465 11.081C8.8044 10.9981 6.84899 9.75523 6.16044 9.14784C5.9675 8.98195 5.747 8.65069 6.188 8.26405L9.07977 5.50218C9.41026 5.17092 9.74076 4.39764 8.36365 5.33655L4.50746 7.9601C4.50746 7.9601 4.06671 8.23649 3.2406 7.98791L1.45006 7.43539C1.45006 7.43539 0.78907 7.02118 1.91837 6.60698C4.67283 5.30899 8.06072 3.98344 11.0627 2.74058H11.0632Z" fill="#110A1D"/>
</svg>
