<svg width="9" height="11" viewBox="0 0 9 11" fill="none" xmlns="http://www.w3.org/2000/svg">
<path fill-rule="evenodd" clip-rule="evenodd" d="M5.4 0C5.73137 0 6 0.268629 6 0.6C6 1.23652 6.25286 1.84697 6.70295 2.29706C7.15303 2.74714 7.76348 3 8.4 3C8.73137 3 9 3.26863 9 3.6C9 3.93137 8.73137 4.2 8.4 4.2C7.51221 4.2 6.65823 3.87207 6 3.28329V7.8C6 8.39334 5.82405 8.97336 5.49441 9.46671C5.16477 9.96006 4.69623 10.3446 4.14805 10.5716C3.59987 10.7987 2.99667 10.8581 2.41473 10.7424C1.83279 10.6266 1.29824 10.3409 0.878681 9.92132C0.459123 9.50176 0.173401 8.96721 0.0576455 8.38527C-0.0581101 7.80333 0.00129983 7.20013 0.228363 6.65195C0.455426 6.10377 0.839943 5.63524 1.33329 5.30559C1.82664 4.97595 2.40666 4.8 3 4.8C3.33137 4.8 3.6 5.06863 3.6 5.4C3.6 5.73137 3.33137 6 3 6C2.644 6 2.29598 6.10557 1.99998 6.30335C1.70397 6.50114 1.47326 6.78226 1.33702 7.11117C1.20078 7.44008 1.16513 7.802 1.23459 8.15116C1.30404 8.50033 1.47547 8.82106 1.72721 9.07279C1.97894 9.32453 2.29967 9.49596 2.64884 9.56541C2.998 9.63487 3.35993 9.59922 3.68883 9.46298C4.01774 9.32675 4.29886 9.09603 4.49665 8.80003C4.69443 8.50402 4.8 8.15601 4.8 7.8V0.6C4.8 0.268629 5.06863 0 5.4 0Z" fill="#110A1D"/>
</svg>
