<svg width="12" height="10" viewBox="0 0 12 10" fill="none" xmlns="http://www.w3.org/2000/svg">
<path d="M10.5692 2.53399V2.86419C10.5692 6.18939 8.1399 9.99998 3.69475 9.99998C2.38249 10.0029 1.0981 9.60691 0 8.86077C0.190708 8.88766 0.383076 8.8998 0.575517 8.89709C1.66328 8.9002 2.72045 8.52338 3.57711 7.82722C3.07176 7.81948 2.58161 7.64653 2.17633 7.33294C1.77105 7.01935 1.47125 6.58108 1.31955 6.08042C1.47008 6.11356 1.62355 6.13016 1.77742 6.12995C1.99229 6.13 2.20619 6.10001 2.41335 6.04079C1.866 5.92748 1.37358 5.62015 1.02035 5.17139C0.667115 4.72264 0.475025 4.16035 0.476948 3.58074V3.54772C0.811829 3.74199 1.18727 3.84853 1.57075 3.85812C1.06028 3.50928 0.697354 2.97117 0.556111 2.35376C0.414868 1.73635 0.505973 1.08622 0.810811 0.536228C1.41821 1.31205 2.17602 1.94643 3.03499 2.39815C3.89396 2.84986 4.83485 3.10878 5.7965 3.15808C5.7489 2.97066 5.72643 2.77732 5.72973 2.58352C5.71183 2.07133 5.84636 1.56587 6.11501 1.13594C6.38366 0.70601 6.77338 0.372516 7.23109 0.180865C7.68881 -0.0107864 8.19228 -0.0512812 8.67295 0.0648946C9.15362 0.18107 9.58814 0.448271 9.91733 0.830113C10.4584 0.716709 10.9775 0.51024 11.4531 0.219229C11.2727 0.810751 10.889 1.31265 10.3752 1.62922C10.8552 1.56053 11.3232 1.4204 11.7647 1.21315C11.4447 1.72354 11.0399 2.17077 10.5692 2.53399Z" fill="#110A1D"/>
</svg>
