<svg width="12" height="8" viewBox="0 0 12 8" fill="none" xmlns="http://www.w3.org/2000/svg">
<path fill-rule="evenodd" clip-rule="evenodd" d="M0.0557871 0.127684C0.110847 0.0474748 0.198929 0 0.292686 0H2.30343C2.41617 0 2.51888 0.06844 2.5675 0.175951C2.6898 0.4464 2.80865 0.719967 2.92624 0.990601C3.19924 1.61896 3.46538 2.23151 3.75175 2.75252C3.9547 3.12174 4.15717 3.42399 4.36366 3.63861C4.45106 3.72944 4.53586 3.80119 4.61856 3.85543V1.29114L4.01632 0.50385C3.94541 0.411153 3.9312 0.283639 3.9798 0.176066C4.02839 0.0684923 4.13114 0 4.24392 0H7.03906C7.2007 0 7.33174 0.138502 7.33174 0.309353V3.20683C7.66606 2.85828 7.92767 2.46103 8.16657 2.03516C8.30409 1.79 8.43155 1.5402 8.56224 1.28405C8.59384 1.22213 8.62562 1.15984 8.65778 1.09715C8.82128 0.77845 8.99275 0.453197 9.18892 0.138976C9.24308 0.0522101 9.33486 0 9.43321 0H11.3591C11.4499 0 11.5356 0.0445538 11.591 0.1206C11.6464 0.196646 11.6652 0.29557 11.642 0.38837C11.2733 1.8637 10.5556 2.89418 9.87129 3.87679C9.84426 3.9156 9.81728 3.95434 9.79037 3.99303C10.7195 4.87174 11.464 5.94805 11.9745 7.15262C12.015 7.24833 12.007 7.35925 11.953 7.44727C11.8991 7.5353 11.8066 7.58843 11.7074 7.58843H9.58833C9.51815 7.58843 9.4503 7.56178 9.39715 7.51332C9.17325 7.30916 8.98061 7.08574 8.80305 6.87217C8.7667 6.82845 8.73119 6.7854 8.6962 6.74299C8.55659 6.57377 8.42543 6.4148 8.28423 6.26512C8.01371 5.97834 7.72286 5.74423 7.33174 5.61302V7.27908C7.33174 7.43488 7.22212 7.56636 7.0759 7.58597C4.69937 7.90468 3.10111 6.66984 2.02452 5.08858C0.989793 3.56882 0.413033 1.6981 0.0477906 0.513433C0.0364752 0.476731 0.0253628 0.440688 0.0144461 0.405335C-0.0146435 0.311128 0.000727699 0.207894 0.0557871 0.127684ZM0.696313 0.618706C1.06376 1.79821 1.60277 3.40989 2.49965 4.72719C3.45355 6.12824 4.78822 7.1652 6.74637 7.00018V5.22498C6.74637 5.13479 6.78361 5.04909 6.84833 4.99032C6.91305 4.93155 6.99882 4.90556 7.08317 4.91916C7.81763 5.03751 8.30114 5.40676 8.69877 5.82827C8.85517 5.99408 9.0025 6.17273 9.14326 6.34342C9.17679 6.38408 9.20994 6.42429 9.24276 6.46376C9.3926 6.64398 9.53967 6.81443 9.69971 6.96973H11.2417C10.7392 5.94018 10.048 5.02452 9.2068 4.27693C9.08925 4.17246 9.06809 3.98972 9.15834 3.85837C9.23864 3.74151 9.31888 3.62608 9.39865 3.51134C10.0181 2.62029 10.6087 1.77073 10.9673 0.618706H9.59285C9.44501 0.86719 9.30898 1.12577 9.17236 1.39208C9.14168 1.45189 9.11089 1.51224 9.07991 1.57296C8.94877 1.83002 8.81429 2.09364 8.67009 2.3507C8.31109 2.99066 7.87637 3.61946 7.20885 4.12198C7.11961 4.18916 7.00234 4.19804 6.90495 4.14498C6.80757 4.09192 6.74637 3.98581 6.74637 3.87001V0.618706H4.85694L5.13884 0.987232C5.18095 1.04228 5.20393 1.11094 5.20393 1.18173V4.29073C5.20393 4.37899 5.16825 4.46306 5.10589 4.52176C5.04352 4.58046 4.9604 4.6082 4.87745 4.59801C4.51954 4.55405 4.21368 4.35045 3.95324 4.07976C3.69317 3.80946 3.4601 3.45356 3.2456 3.06332C2.94445 2.51543 2.65886 1.85822 2.38037 1.21738C2.29237 1.01486 2.20508 0.813986 2.11823 0.618706H0.696313Z" fill="#110A1D"/>
<path d="M2.49965 4.72719C1.60277 3.40989 1.06376 1.79821 0.696313 0.618706H2.11823C2.20508 0.813986 2.29237 1.01486 2.38037 1.21738C2.65886 1.85822 2.94445 2.51543 3.2456 3.06332C3.4601 3.45356 3.69317 3.80946 3.95324 4.07976C4.21368 4.35045 4.51954 4.55405 4.87745 4.59801C4.9604 4.6082 5.04352 4.58046 5.10589 4.52176C5.16825 4.46306 5.20393 4.37899 5.20393 4.29073V1.18173C5.20393 1.11094 5.18095 1.04228 5.13884 0.987232L4.85694 0.618706H6.74637V3.87001C6.74637 3.98581 6.80757 4.09192 6.90495 4.14498C7.00234 4.19804 7.11961 4.18916 7.20885 4.12198C7.87637 3.61946 8.31109 2.99066 8.67009 2.3507C8.81429 2.09364 8.94877 1.83002 9.07991 1.57296C9.11089 1.51224 9.14168 1.45189 9.17236 1.39208C9.30898 1.12577 9.44501 0.86719 9.59285 0.618706H10.9673C10.6087 1.77073 10.0181 2.62029 9.39865 3.51134C9.31888 3.62608 9.23864 3.74151 9.15834 3.85837C9.06809 3.98972 9.08925 4.17246 9.2068 4.27693C10.048 5.02452 10.7392 5.94018 11.2417 6.96973H9.69971C9.53967 6.81443 9.3926 6.64398 9.24276 6.46376C9.20994 6.42429 9.17679 6.38408 9.14326 6.34342C9.0025 6.17273 8.85517 5.99408 8.69877 5.82827C8.30114 5.40676 7.81763 5.03751 7.08317 4.91916C6.99882 4.90556 6.91305 4.93155 6.84833 4.99032C6.78361 5.04909 6.74637 5.13479 6.74637 5.22498V7.00018C4.78822 7.1652 3.45355 6.12824 2.49965 4.72719Z" fill="#110A1D"/>
</svg>
