<svg width="54" height="54" viewBox="0 0 54 54" fill="none" xmlns="http://www.w3.org/2000/svg" xmlns:xlink="http://www.w3.org/1999/xlink">
<path d="M0,27C0,41.884 12.11,54 27,54C41.884,54 54,41.884 54,27C54,12.116 41.884,0 27,0C12.116,0 0,12.116 0,27ZM10.027,8.386C14.509,4.296 20.468,1.798 27,1.798C33.53,1.798 39.488,4.294 43.969,8.382L41.965,10.386C38.002,6.815 32.755,4.641 27,4.641C21.243,4.641 15.994,6.816 12.031,10.39L10.027,8.386ZM8.383,10.03C4.294,14.512 1.798,20.47 1.798,27C1.798,33.53 4.294,39.487 8.382,43.968L10.386,41.964C6.814,38.002 4.641,32.755 4.641,27C4.641,21.244 6.815,15.997 10.387,12.034L8.383,10.03ZM10.026,45.613C14.508,49.704 20.468,52.202 27,52.202C33.529,52.202 39.486,49.706 43.967,45.619L41.963,43.615C38.001,47.186 32.755,49.359 27,49.359C21.242,49.359 15.993,47.184 12.03,43.609L10.026,45.613ZM52.202,27C52.202,33.533 49.704,39.493 45.612,43.975L43.608,41.971C47.183,38.008 49.359,32.758 49.359,27C49.359,21.242 47.184,15.993 43.61,12.03L45.614,10.026C49.704,14.508 52.202,20.468 52.202,27Z" clip-rule="evenodd" fill-rule="evenodd" fill="#478BF9"/>
<path d="M28.709,16.748C29.338,16.748 29.848,17.258 29.848,17.887C29.848,19.096 30.328,20.254 31.182,21.109C32.037,21.963 33.196,22.443 34.404,22.443C35.033,22.443 35.543,22.953 35.543,23.582C35.543,24.212 35.033,24.721 34.404,24.721C32.718,24.721 31.097,24.099 29.848,22.981L29.848,31.556C29.848,32.682 29.514,33.783 28.888,34.72C28.262,35.657 27.373,36.387 26.332,36.818C25.291,37.249 24.146,37.361 23.041,37.142C21.936,36.922 20.922,36.38 20.125,35.583C19.329,34.787 18.786,33.772 18.566,32.667C18.347,31.562 18.459,30.417 18.891,29.376C19.322,28.336 20.052,27.446 20.988,26.82C21.925,26.195 23.026,25.861 24.152,25.861C24.781,25.861 25.291,26.371 25.291,27C25.291,27.629 24.781,28.139 24.152,28.139C23.476,28.139 22.816,28.339 22.254,28.715C21.692,29.09 21.254,29.624 20.995,30.248C20.737,30.873 20.669,31.56 20.801,32.223C20.933,32.885 21.258,33.494 21.736,33.972C22.214,34.45 22.823,34.776 23.486,34.907C24.149,35.039 24.836,34.972 25.46,34.713C26.084,34.454 26.618,34.016 26.994,33.454C27.369,32.892 27.57,32.232 27.57,31.556L27.57,17.887C27.57,17.258 28.08,16.748 28.709,16.748Z" clip-rule="evenodd" fill-rule="evenodd" fill="#110A1D"/>
</svg>
