<svg width="54" height="54" viewBox="0 0 54 54" fill="none" xmlns="http://www.w3.org/2000/svg" xmlns:xlink="http://www.w3.org/1999/xlink">
<path d="M0,27C0,41.884 12.11,54 27,54C41.884,54 54,41.884 54,27C54,12.116 41.884,0 27,0C12.116,0 0,12.116 0,27ZM10.027,8.386C14.509,4.296 20.468,1.798 27,1.798C33.53,1.798 39.488,4.294 43.969,8.382L41.965,10.386C38.002,6.815 32.755,4.641 27,4.641C21.243,4.641 15.994,6.816 12.031,10.39L10.027,8.386ZM8.383,10.03C4.294,14.512 1.798,20.47 1.798,27C1.798,33.53 4.294,39.487 8.382,43.968L10.386,41.964C6.814,38.002 4.641,32.755 4.641,27C4.641,21.244 6.815,15.997 10.387,12.034L8.383,10.03ZM10.026,45.613C14.508,49.704 20.468,52.202 27,52.202C33.529,52.202 39.486,49.706 43.967,45.619L41.963,43.615C38.001,47.186 32.755,49.359 27,49.359C21.242,49.359 15.993,47.184 12.03,43.609L10.026,45.613ZM52.202,27C52.202,33.533 49.704,39.493 45.612,43.975L43.608,41.971C47.183,38.008 49.359,32.758 49.359,27C49.359,21.242 47.184,15.993 43.61,12.03L45.614,10.026C49.704,14.508 52.202,20.468 52.202,27Z" clip-rule="evenodd" fill-rule="evenodd" fill="#478BF9"/>
<path d="M30.499,19.486L32.614,19.486L32.614,15.908C31.59,15.802 30.561,15.749 29.531,15.751C26.471,15.751 24.379,17.618 24.379,21.038L24.379,23.986L20.925,23.986L20.925,27.991L24.379,27.991L24.379,38.25L28.519,38.25L28.519,27.991L31.961,27.991L32.479,23.986L28.519,23.986L28.519,21.432C28.519,20.251 28.834,19.486 30.499,19.486Z" fill="#110A1D"/>
</svg>
