<svg width="64" height="64" viewBox="0 0 64 64" fill="none" xmlns="http://www.w3.org/2000/svg" xmlns:xlink="http://www.w3.org/1999/xlink">
<path d="M0,32C0,49.64 14.353,64 32,64C49.64,64 64,49.64 64,32C64,14.36 49.64,0 32,0C14.36,0 0,14.36 0,32ZM11.884,9.939C17.196,5.091 24.258,2.131 32,2.131C39.739,2.131 46.8,5.089 52.111,9.934L49.736,12.309C45.04,8.076 38.821,5.5 32,5.5C25.177,5.5 18.956,8.078 14.259,12.314L11.884,9.939ZM9.935,11.888C5.09,17.199 2.131,24.26 2.131,32C2.131,39.739 5.089,46.799 9.934,52.111L12.309,49.736C8.076,45.039 5.5,38.821 5.5,32C5.5,25.179 8.077,18.959 12.31,14.263L9.935,11.888ZM11.882,54.06C17.194,58.908 24.258,61.869 32,61.869C39.738,61.869 46.798,58.911 52.11,54.067L49.734,51.692C45.038,55.924 38.82,58.5 32,58.5C25.176,58.5 18.955,55.921 14.257,51.685L11.882,54.06ZM61.869,32C61.869,39.743 58.908,46.807 54.059,52.119L51.684,49.744C55.921,45.046 58.5,38.825 58.5,32C58.5,25.176 55.921,18.955 51.686,14.258L54.061,11.883C58.909,17.195 61.869,24.258 61.869,32Z" clip-rule="evenodd" fill-rule="evenodd" fill="#478BF9"/>
<path d="M41.287,22.264C41.287,22.264 43.554,21.38 43.364,23.527C43.302,24.41 42.735,27.504 42.294,30.849L40.783,40.76C40.783,40.76 40.657,42.212 39.524,42.465C38.391,42.717 36.691,41.581 36.376,41.328C36.124,41.139 31.655,38.298 30.081,36.909C29.64,36.53 29.136,35.773 30.144,34.889L36.754,28.576C37.509,27.819 38.265,26.052 35.117,28.198L26.303,34.195C26.303,34.195 25.295,34.826 23.407,34.258L19.314,32.995C19.314,32.995 17.804,32.048 20.385,31.102C26.681,28.135 34.425,25.105 41.286,22.264L41.287,22.264Z" fill="#110A1D"/>
</svg>
