<svg width="64" height="64" viewBox="0 0 64 64" fill="none" xmlns="http://www.w3.org/2000/svg" xmlns:xlink="http://www.w3.org/1999/xlink">
<path d="M0,32C0,49.64 14.353,64 32,64C49.64,64 64,49.64 64,32C64,14.36 49.64,0 32,0C14.36,0 0,14.36 0,32ZM11.884,9.939C17.196,5.091 24.258,2.131 32,2.131C39.739,2.131 46.8,5.089 52.111,9.934L49.736,12.309C45.04,8.076 38.821,5.5 32,5.5C25.177,5.5 18.956,8.078 14.259,12.314L11.884,9.939ZM9.935,11.888C5.09,17.199 2.131,24.26 2.131,32C2.131,39.739 5.089,46.799 9.934,52.111L12.309,49.736C8.076,45.039 5.5,38.821 5.5,32C5.5,25.179 8.077,18.959 12.31,14.263L9.935,11.888ZM11.882,54.06C17.194,58.908 24.258,61.869 32,61.869C39.738,61.869 46.798,58.911 52.11,54.067L49.734,51.692C45.038,55.924 38.82,58.5 32,58.5C25.176,58.5 18.955,55.921 14.257,51.685L11.882,54.06ZM61.869,32C61.869,39.743 58.908,46.807 54.059,52.119L51.684,49.744C55.921,45.046 58.5,38.825 58.5,32C58.5,25.176 55.921,18.955 51.686,14.258L54.061,11.883C58.909,17.195 61.869,24.258 61.869,32Z" clip-rule="evenodd" fill-rule="evenodd" fill="#478BF9"/>
<path d="M19.75,21.505C19.75,20.536 20.555,19.75 21.549,19.75L42.451,19.75C43.445,19.75 44.25,20.536 44.25,21.505L44.25,42.495C44.25,43.464 43.445,44.25 42.451,44.25L21.549,44.25C20.555,44.25 19.75,43.464 19.75,42.495L19.75,21.505ZM27.319,40.26L27.319,29.196L23.642,29.196L23.642,40.26L27.319,40.26ZM25.481,27.685C26.763,27.685 27.561,26.837 27.561,25.774C27.538,24.688 26.765,23.863 25.506,23.863C24.247,23.863 23.425,24.69 23.425,25.774C23.425,26.837 24.223,27.685 25.457,27.685L25.481,27.685ZM32.997,40.26L32.997,34.081C32.997,33.75 33.021,33.419 33.119,33.184C33.384,32.524 33.989,31.839 35.006,31.839C36.337,31.839 36.868,32.853 36.868,34.341L36.868,40.26L40.544,40.26L40.544,33.914C40.544,30.515 38.731,28.934 36.312,28.934C34.361,28.934 33.487,30.006 32.997,30.761L32.997,30.8L32.972,30.8C32.98,30.787 32.989,30.774 32.997,30.761L32.997,29.196L29.322,29.196C29.368,30.234 29.322,40.26 29.322,40.26L32.997,40.26Z" fill="#110A1D"/>
</svg>
