<svg width="54" height="54" viewBox="0 0 54 54" fill="none" xmlns="http://www.w3.org/2000/svg" xmlns:xlink="http://www.w3.org/1999/xlink">
<path d="M0,27C0,41.884 12.11,54 27,54C41.884,54 54,41.884 54,27C54,12.116 41.884,0 27,0C12.116,0 0,12.116 0,27ZM10.027,8.386C14.509,4.296 20.468,1.798 27,1.798C33.53,1.798 39.488,4.294 43.969,8.382L41.965,10.386C38.002,6.815 32.755,4.641 27,4.641C21.243,4.641 15.994,6.816 12.031,10.39L10.027,8.386ZM8.383,10.03C4.294,14.512 1.798,20.47 1.798,27C1.798,33.53 4.294,39.487 8.382,43.968L10.386,41.964C6.814,38.002 4.641,32.755 4.641,27C4.641,21.244 6.815,15.997 10.387,12.034L8.383,10.03ZM10.026,45.613C14.508,49.704 20.468,52.202 27,52.202C33.529,52.202 39.486,49.706 43.967,45.619L41.963,43.615C38.001,47.186 32.755,49.359 27,49.359C21.242,49.359 15.993,47.184 12.03,43.609L10.026,45.613ZM52.202,27C52.202,33.533 49.704,39.493 45.612,43.975L43.608,41.971C47.183,38.008 49.359,32.758 49.359,27C49.359,21.242 47.184,15.993 43.61,12.03L45.614,10.026C49.704,14.508 52.202,20.468 52.202,27Z" clip-rule="evenodd" fill-rule="evenodd" fill="#478BF9"/>
<path d="M15.713,21.162C15.815,21.013 15.979,20.925 16.153,20.925L19.885,20.925C20.094,20.925 20.285,21.052 20.375,21.251C20.602,21.753 20.823,22.261 21.041,22.764C21.548,23.93 22.042,25.067 22.574,26.034C22.95,26.72 23.326,27.281 23.709,27.679C23.872,27.848 24.029,27.981 24.183,28.081L24.183,23.321L23.065,21.86C22.933,21.688 22.907,21.451 22.997,21.252C23.087,21.052 23.278,20.925 23.487,20.925L28.676,20.925C28.976,20.925 29.219,21.182 29.219,21.499L29.219,26.877C29.839,26.23 30.325,25.493 30.769,24.703C31.024,24.247 31.26,23.784 31.503,23.308C31.562,23.193 31.621,23.078 31.68,22.961C31.984,22.37 32.302,21.766 32.666,21.183C32.767,21.022 32.937,20.925 33.12,20.925L36.695,20.925C36.863,20.925 37.022,21.008 37.125,21.149C37.228,21.29 37.263,21.473 37.22,21.646C36.535,24.384 35.203,26.297 33.933,28.121C33.883,28.193 33.833,28.265 33.783,28.337C35.507,29.968 36.889,31.966 37.837,34.202C37.912,34.379 37.897,34.585 37.797,34.749C37.697,34.912 37.525,35.011 37.341,35.011L33.408,35.011C33.277,35.011 33.151,34.961 33.053,34.871C32.637,34.492 32.28,34.078 31.95,33.681C31.882,33.6 31.817,33.52 31.752,33.441C31.492,33.127 31.249,32.832 30.987,32.554C30.485,32.022 29.945,31.587 29.219,31.344L29.219,34.437C29.219,34.726 29.015,34.97 28.744,35.006C24.333,35.598 21.366,33.306 19.367,30.37C17.447,27.549 16.376,24.077 15.698,21.878C15.677,21.81 15.656,21.743 15.636,21.677C15.582,21.502 15.611,21.311 15.713,21.162ZM16.902,22.073C17.584,24.263 18.584,27.254 20.249,29.7C22.02,32.3 24.497,34.225 28.132,33.919L28.132,30.624C28.132,30.456 28.201,30.297 28.322,30.188C28.442,30.079 28.601,30.031 28.757,30.056C30.121,30.276 31.018,30.961 31.756,31.743C32.047,32.051 32.32,32.383 32.581,32.7C32.644,32.775 32.705,32.85 32.766,32.923C33.044,33.258 33.317,33.574 33.614,33.862L36.477,33.862C35.544,31.951 34.261,30.252 32.699,28.864C32.481,28.67 32.442,28.331 32.609,28.087C32.759,27.87 32.907,27.656 33.056,27.443C34.205,25.789 35.302,24.212 35.967,22.073L33.416,22.073C33.142,22.535 32.889,23.015 32.635,23.509C32.579,23.62 32.521,23.732 32.464,23.845C32.22,24.322 31.971,24.811 31.703,25.288C31.037,26.476 30.23,27.643 28.991,28.576C28.825,28.701 28.607,28.717 28.427,28.619C28.246,28.52 28.132,28.323 28.132,28.108L28.132,22.073L24.625,22.073L25.148,22.757C25.226,22.86 25.269,22.987 25.269,23.118L25.269,28.889C25.269,29.053 25.203,29.209 25.087,29.318C24.971,29.427 24.817,29.479 24.663,29.46C23.999,29.378 23.431,29 22.948,28.498C22.465,27.996 22.032,27.335 21.634,26.611C21.075,25.594 20.545,24.374 20.028,23.185C19.865,22.809 19.703,22.436 19.541,22.073L16.902,22.073Z" clip-rule="evenodd" fill-rule="evenodd" fill="#110A1D"/>
<path d="M20.249,29.7C18.584,27.254 17.584,24.263 16.902,22.073L19.541,22.073C19.703,22.436 19.865,22.809 20.028,23.185C20.545,24.374 21.075,25.594 21.634,26.611C22.032,27.335 22.465,27.996 22.948,28.498C23.431,29 23.999,29.378 24.663,29.46C24.817,29.479 24.971,29.427 25.087,29.318C25.203,29.209 25.269,29.053 25.269,28.889L25.269,23.118C25.269,22.987 25.226,22.86 25.148,22.757L24.625,22.073L28.132,22.073L28.132,28.108C28.132,28.323 28.246,28.52 28.427,28.619C28.607,28.717 28.825,28.701 28.991,28.576C30.23,27.643 31.037,26.476 31.703,25.288C31.971,24.811 32.22,24.322 32.464,23.845C32.521,23.732 32.579,23.62 32.635,23.509C32.889,23.015 33.142,22.535 33.416,22.073L35.967,22.073C35.302,24.212 34.205,25.789 33.056,27.443C32.907,27.656 32.759,27.87 32.609,28.087C32.442,28.331 32.481,28.67 32.699,28.864C34.261,30.252 35.544,31.951 36.477,33.862L33.614,33.862C33.317,33.574 33.044,33.258 32.766,32.923C32.705,32.85 32.644,32.775 32.581,32.7C32.32,32.383 32.047,32.051 31.756,31.743C31.018,30.961 30.121,30.276 28.757,30.056C28.601,30.031 28.442,30.079 28.322,30.188C28.201,30.297 28.132,30.456 28.132,30.624L28.132,33.919C24.497,34.225 22.02,32.3 20.249,29.7Z" fill="#110A1D"/>
</svg>
