<svg width="54" height="54" viewBox="0 0 54 54" fill="none" xmlns="http://www.w3.org/2000/svg" xmlns:xlink="http://www.w3.org/1999/xlink">
<path d="M0,27C0,41.884 12.11,54 27,54C41.884,54 54,41.884 54,27C54,12.116 41.884,0 27,0C12.116,0 0,12.116 0,27ZM10.027,8.386C14.509,4.296 20.468,1.798 27,1.798C33.53,1.798 39.488,4.294 43.969,8.382L41.965,10.386C38.002,6.815 32.755,4.641 27,4.641C21.243,4.641 15.994,6.816 12.031,10.39L10.027,8.386ZM8.383,10.03C4.294,14.512 1.798,20.47 1.798,27C1.798,33.53 4.294,39.487 8.382,43.968L10.386,41.964C6.814,38.002 4.641,32.755 4.641,27C4.641,21.244 6.815,15.997 10.387,12.034L8.383,10.03ZM10.026,45.613C14.508,49.704 20.468,52.202 27,52.202C33.529,52.202 39.486,49.706 43.967,45.619L41.963,43.615C38.001,47.186 32.755,49.359 27,49.359C21.242,49.359 15.993,47.184 12.03,43.609L10.026,45.613ZM52.202,27C52.202,33.533 49.704,39.493 45.612,43.975L43.608,41.971C47.183,38.008 49.359,32.758 49.359,27C49.359,21.242 47.184,15.993 43.61,12.03L45.614,10.026C49.704,14.508 52.202,20.468 52.202,27Z" clip-rule="evenodd" fill-rule="evenodd" fill="#478BF9"/>
<path d="M16.664,18.145C16.664,17.327 17.344,16.664 18.182,16.664L35.818,16.664C36.656,16.664 37.336,17.327 37.336,18.145L37.336,35.855C37.336,36.673 36.656,37.336 35.818,37.336L18.182,37.336C17.344,37.336 16.664,36.673 16.664,35.855L16.664,18.145ZM23.05,33.969L23.05,24.634L19.948,24.634L19.948,33.969L23.05,33.969ZM21.5,23.359C22.581,23.359 23.255,22.643 23.255,21.747C23.235,20.831 22.583,20.134 21.521,20.134C20.459,20.134 19.765,20.832 19.765,21.747C19.765,22.643 20.438,23.359 21.479,23.359L21.5,23.359ZM27.841,33.969L27.841,28.756C27.841,28.477 27.862,28.198 27.944,27.999C28.168,27.442 28.678,26.864 29.536,26.864C30.659,26.864 31.107,27.72 31.107,28.975L31.107,33.969L34.209,33.969L34.209,28.615C34.209,25.747 32.68,24.413 30.638,24.413C28.992,24.413 28.255,25.318 27.841,25.955L27.841,25.987L27.82,25.987C27.827,25.976 27.834,25.966 27.841,25.955L27.841,24.634L24.74,24.634C24.779,25.51 24.74,33.969 24.74,33.969L27.841,33.969Z" fill="#110A1D"/>
</svg>
