<svg width="54" height="54" viewBox="0 0 54 54" fill="none" xmlns="http://www.w3.org/2000/svg" xmlns:xlink="http://www.w3.org/1999/xlink">
<path d="M0,27C0,41.884 12.11,54 27,54C41.884,54 54,41.884 54,27C54,12.116 41.884,0 27,0C12.116,0 0,12.116 0,27ZM10.027,8.386C14.509,4.296 20.468,1.798 27,1.798C33.53,1.798 39.488,4.294 43.969,8.382L41.965,10.386C38.002,6.815 32.755,4.641 27,4.641C21.243,4.641 15.994,6.816 12.031,10.39L10.027,8.386ZM8.383,10.03C4.294,14.512 1.798,20.47 1.798,27C1.798,33.53 4.294,39.487 8.382,43.968L10.386,41.964C6.814,38.002 4.641,32.755 4.641,27C4.641,21.244 6.815,15.997 10.387,12.034L8.383,10.03ZM10.026,45.613C14.508,49.704 20.468,52.202 27,52.202C33.529,52.202 39.486,49.706 43.967,45.619L41.963,43.615C38.001,47.186 32.755,49.359 27,49.359C21.242,49.359 15.993,47.184 12.03,43.609L10.026,45.613ZM52.202,27C52.202,33.533 49.704,39.493 45.612,43.975L43.608,41.971C47.183,38.008 49.359,32.758 49.359,27C49.359,21.242 47.184,15.993 43.61,12.03L45.614,10.026C49.704,14.508 52.202,20.468 52.202,27Z" clip-rule="evenodd" fill-rule="evenodd" fill="#478BF9"/>
<path d="M24.75,30.375L30.589,27L24.75,23.625L24.75,30.375ZM37.755,21.566C37.901,22.095 38.003,22.804 38.07,23.704C38.149,24.604 38.183,25.38 38.183,26.055L38.25,27C38.25,29.464 38.07,31.275 37.755,32.434C37.474,33.446 36.821,34.099 35.809,34.38C35.28,34.526 34.313,34.627 32.828,34.695C31.365,34.774 30.026,34.807 28.789,34.807L27,34.875C22.286,34.875 19.35,34.695 18.191,34.38C17.179,34.099 16.526,33.446 16.245,32.434C16.099,31.905 15.998,31.196 15.93,30.296C15.851,29.396 15.818,28.62 15.818,27.945L15.75,27C15.75,24.536 15.93,22.725 16.245,21.566C16.526,20.554 17.179,19.901 18.191,19.62C18.72,19.474 19.688,19.373 21.172,19.305C22.635,19.226 23.974,19.193 25.211,19.193L27,19.125C31.714,19.125 34.65,19.305 35.809,19.62C36.821,19.901 37.474,20.554 37.755,21.566Z" fill="#110A1D"/>
</svg>
