<svg width="64" height="64" viewBox="0 0 64 64" fill="none" xmlns="http://www.w3.org/2000/svg" xmlns:xlink="http://www.w3.org/1999/xlink">
<path d="M0,32C0,49.64 14.353,64 32,64C49.64,64 64,49.64 64,32C64,14.36 49.64,0 32,0C14.36,0 0,14.36 0,32ZM11.884,9.939C17.196,5.091 24.258,2.131 32,2.131C39.739,2.131 46.8,5.089 52.111,9.934L49.736,12.309C45.04,8.076 38.821,5.5 32,5.5C25.177,5.5 18.956,8.078 14.259,12.314L11.884,9.939ZM9.935,11.888C5.09,17.199 2.131,24.26 2.131,32C2.131,39.739 5.089,46.799 9.934,52.111L12.309,49.736C8.076,45.039 5.5,38.821 5.5,32C5.5,25.179 8.077,18.959 12.31,14.263L9.935,11.888ZM11.882,54.06C17.194,58.908 24.258,61.869 32,61.869C39.738,61.869 46.798,58.911 52.11,54.067L49.734,51.692C45.038,55.924 38.82,58.5 32,58.5C25.176,58.5 18.955,55.921 14.257,51.685L11.882,54.06ZM61.869,32C61.869,39.743 58.908,46.807 54.059,52.119L51.684,49.744C55.921,45.046 58.5,38.825 58.5,32C58.5,25.176 55.921,18.955 51.686,14.258L54.061,11.883C58.909,17.195 61.869,24.258 61.869,32Z" clip-rule="evenodd" fill-rule="evenodd" fill="#478BF9"/>
<path d="M34.025,19.85C34.771,19.85 35.375,20.454 35.375,21.2C35.375,22.632 35.944,24.005 36.957,25.018C37.969,26.031 39.343,26.6 40.775,26.6C41.521,26.6 42.125,27.204 42.125,27.95C42.125,28.695 41.521,29.3 40.775,29.3C38.777,29.3 36.856,28.562 35.375,27.237L35.375,37.4C35.375,38.735 34.979,40.04 34.237,41.15C33.496,42.26 32.442,43.125 31.208,43.636C29.975,44.147 28.618,44.28 27.308,44.02C25.999,43.759 24.796,43.117 23.852,42.173C22.908,41.229 22.265,40.026 22.005,38.716C21.744,37.407 21.878,36.05 22.389,34.816C22.9,33.583 23.765,32.529 24.875,31.787C25.985,31.045 27.29,30.65 28.625,30.65C29.371,30.65 29.975,31.254 29.975,32C29.975,32.745 29.371,33.35 28.625,33.35C27.824,33.35 27.041,33.587 26.375,34.032C25.709,34.477 25.19,35.11 24.883,35.85C24.577,36.59 24.497,37.404 24.653,38.19C24.809,38.975 25.195,39.697 25.761,40.263C26.328,40.83 27.049,41.216 27.835,41.372C28.621,41.528 29.435,41.448 30.175,41.141C30.915,40.835 31.547,40.316 31.992,39.65C32.437,38.984 32.675,38.201 32.675,37.4L32.675,21.2C32.675,20.454 33.279,19.85 34.025,19.85Z" clip-rule="evenodd" fill-rule="evenodd" fill="#110A1D"/>
</svg>
