<svg width="64" height="64" viewBox="0 0 64 64" fill="none" xmlns="http://www.w3.org/2000/svg" xmlns:xlink="http://www.w3.org/1999/xlink">
<path d="M0,32C0,49.64 14.353,64 32,64C49.64,64 64,49.64 64,32C64,14.36 49.64,0 32,0C14.36,0 0,14.36 0,32ZM11.884,9.939C17.196,5.091 24.258,2.131 32,2.131C39.739,2.131 46.8,5.089 52.111,9.934L49.736,12.309C45.04,8.076 38.821,5.5 32,5.5C25.177,5.5 18.956,8.078 14.259,12.314L11.884,9.939ZM9.935,11.888C5.09,17.199 2.131,24.26 2.131,32C2.131,39.739 5.089,46.799 9.934,52.111L12.309,49.736C8.076,45.039 5.5,38.821 5.5,32C5.5,25.179 8.077,18.959 12.31,14.263L9.935,11.888ZM11.882,54.06C17.194,58.908 24.258,61.869 32,61.869C39.738,61.869 46.798,58.911 52.11,54.067L49.734,51.692C45.038,55.924 38.82,58.5 32,58.5C25.176,58.5 18.955,55.921 14.257,51.685L11.882,54.06ZM61.869,32C61.869,39.743 58.908,46.807 54.059,52.119L51.684,49.744C55.921,45.046 58.5,38.825 58.5,32C58.5,25.176 55.921,18.955 51.686,14.258L54.061,11.883C58.909,17.195 61.869,24.258 61.869,32Z" clip-rule="evenodd" fill-rule="evenodd" fill="#478BF9"/>
<path d="M32,19C35.532,19 35.973,19.013 37.359,19.078C38.743,19.143 39.686,19.36 40.515,19.682C41.373,20.013 42.096,20.46 42.819,21.181C43.48,21.831 43.991,22.617 44.317,23.485C44.639,24.313 44.857,25.257 44.922,26.641C44.983,28.027 45,28.468 45,32C45,35.532 44.987,35.973 44.922,37.359C44.857,38.743 44.639,39.686 44.317,40.515C43.992,41.383 43.48,42.169 42.819,42.819C42.169,43.479 41.382,43.991 40.515,44.317C39.687,44.639 38.743,44.857 37.359,44.922C35.973,44.983 35.532,45 32,45C28.468,45 28.027,44.987 26.641,44.922C25.257,44.857 24.314,44.639 23.485,44.317C22.617,43.992 21.831,43.48 21.181,42.819C20.52,42.169 20.009,41.383 19.682,40.515C19.36,39.687 19.143,38.743 19.078,37.359C19.017,35.973 19,35.532 19,32C19,28.468 19.013,28.027 19.078,26.641C19.143,25.256 19.36,24.314 19.682,23.485C20.008,22.617 20.519,21.831 21.181,21.181C21.831,20.52 22.617,20.008 23.485,19.682C24.314,19.36 25.256,19.143 26.641,19.078C28.027,19.017 28.468,19 32,19ZM32,25.5C30.276,25.5 28.623,26.185 27.404,27.404C26.185,28.623 25.5,30.276 25.5,32C25.5,33.724 26.185,35.377 27.404,36.596C28.623,37.815 30.276,38.5 32,38.5C33.724,38.5 35.377,37.815 36.596,36.596C37.815,35.377 38.5,33.724 38.5,32C38.5,30.276 37.815,28.623 36.596,27.404C35.377,26.185 33.724,25.5 32,25.5ZM40.45,25.175C40.45,24.744 40.279,24.331 39.974,24.026C39.669,23.721 39.256,23.55 38.825,23.55C38.394,23.55 37.981,23.721 37.676,24.026C37.371,24.331 37.2,24.744 37.2,25.175C37.2,25.606 37.371,26.019 37.676,26.324C37.981,26.629 38.394,26.8 38.825,26.8C39.256,26.8 39.669,26.629 39.974,26.324C40.279,26.019 40.45,25.606 40.45,25.175ZM32,28.1C33.034,28.1 34.026,28.511 34.758,29.242C35.489,29.974 35.9,30.966 35.9,32C35.9,33.034 35.489,34.026 34.758,34.758C34.026,35.489 33.034,35.9 32,35.9C30.966,35.9 29.974,35.489 29.242,34.758C28.511,34.026 28.1,33.034 28.1,32C28.1,30.966 28.511,29.974 29.242,29.242C29.974,28.511 30.966,28.1 32,28.1Z" fill="#110A1D"/>
</svg>
