<svg width="64" height="64" viewBox="0 0 64 64" fill="none" xmlns="http://www.w3.org/2000/svg" xmlns:xlink="http://www.w3.org/1999/xlink">
<path d="M0,32C0,49.64 14.353,64 32,64C49.64,64 64,49.64 64,32C64,14.36 49.64,0 32,0C14.36,0 0,14.36 0,32ZM11.884,9.939C17.196,5.091 24.258,2.131 32,2.131C39.739,2.131 46.8,5.089 52.111,9.934L49.736,12.309C45.04,8.076 38.821,5.5 32,5.5C25.177,5.5 18.956,8.078 14.259,12.314L11.884,9.939ZM9.935,11.888C5.09,17.199 2.131,24.26 2.131,32C2.131,39.739 5.089,46.799 9.934,52.111L12.309,49.736C8.076,45.039 5.5,38.821 5.5,32C5.5,25.179 8.077,18.959 12.31,14.263L9.935,11.888ZM11.882,54.06C17.194,58.908 24.258,61.869 32,61.869C39.738,61.869 46.798,58.911 52.11,54.067L49.734,51.692C45.038,55.924 38.82,58.5 32,58.5C25.176,58.5 18.955,55.921 14.257,51.685L11.882,54.06ZM61.869,32C61.869,39.743 58.908,46.807 54.059,52.119L51.684,49.744C55.921,45.046 58.5,38.825 58.5,32C58.5,25.176 55.921,18.955 51.686,14.258L54.061,11.883C58.909,17.195 61.869,24.258 61.869,32Z" clip-rule="evenodd" fill-rule="evenodd" fill="#478BF9"/>
<path d="M18.623,25.081C18.744,24.904 18.938,24.8 19.144,24.8L23.568,24.8C23.816,24.8 24.042,24.95 24.148,25.187C24.418,25.782 24.679,26.384 24.938,26.979C25.538,28.362 26.124,29.709 26.754,30.855C27.2,31.668 27.646,32.333 28.1,32.805C28.292,33.005 28.479,33.162 28.661,33.282L28.661,27.64L27.336,25.908C27.18,25.704 27.149,25.424 27.256,25.187C27.362,24.95 27.588,24.8 27.837,24.8L33.986,24.8C34.341,24.8 34.63,25.105 34.63,25.48L34.63,31.855C35.365,31.088 35.941,30.214 36.466,29.277C36.769,28.738 37.049,28.188 37.337,27.625C37.406,27.488 37.476,27.351 37.547,27.214C37.907,26.512 38.284,25.797 38.716,25.106C38.835,24.915 39.037,24.8 39.253,24.8L43.49,24.8C43.69,24.8 43.878,24.898 44,25.065C44.122,25.232 44.163,25.45 44.112,25.654C43.301,28.9 41.722,31.167 40.217,33.329C40.157,33.414 40.098,33.499 40.039,33.584C42.083,35.518 43.721,37.885 44.844,40.536C44.933,40.746 44.915,40.99 44.797,41.184C44.678,41.377 44.474,41.494 44.256,41.494L39.594,41.494C39.44,41.494 39.291,41.436 39.174,41.329C38.681,40.88 38.257,40.388 37.867,39.919C37.787,39.822 37.709,39.728 37.632,39.634C37.324,39.262 37.036,38.912 36.725,38.583C36.13,37.952 35.49,37.437 34.63,37.148L34.63,40.814C34.63,41.156 34.389,41.446 34.067,41.489C28.839,42.19 25.322,39.473 22.954,35.995C20.678,32.651 19.409,28.536 18.605,25.929C18.58,25.849 18.556,25.769 18.532,25.692C18.468,25.484 18.502,25.257 18.623,25.081ZM20.032,26.161C20.84,28.756 22.026,32.302 23.999,35.2C26.098,38.282 29.034,40.563 33.342,40.2L33.342,36.295C33.342,36.096 33.424,35.908 33.566,35.778C33.709,35.649 33.897,35.592 34.083,35.622C35.699,35.882 36.762,36.695 37.637,37.622C37.981,37.987 38.305,38.38 38.615,38.755C38.689,38.845 38.762,38.933 38.834,39.02C39.164,39.417 39.487,39.791 39.839,40.133L43.232,40.133C42.126,37.868 40.606,35.854 38.755,34.209C38.496,33.979 38.45,33.577 38.648,33.288C38.825,33.031 39.001,32.777 39.177,32.525C40.54,30.564 41.839,28.695 42.628,26.161L39.604,26.161C39.279,26.708 38.98,27.276 38.679,27.862C38.612,27.994 38.544,28.127 38.476,28.26C38.187,28.826 37.891,29.406 37.574,29.971C36.784,31.379 35.828,32.763 34.359,33.868C34.163,34.016 33.905,34.035 33.691,33.919C33.477,33.802 33.342,33.569 33.342,33.314L33.342,26.161L29.185,26.161L29.805,26.972C29.898,27.093 29.949,27.244 29.949,27.4L29.949,34.239C29.949,34.434 29.87,34.618 29.733,34.748C29.596,34.877 29.413,34.938 29.23,34.915C28.443,34.819 27.77,34.371 27.197,33.775C26.625,33.181 26.112,32.398 25.64,31.539C24.978,30.334 24.349,28.888 23.737,27.478C23.543,27.033 23.351,26.591 23.16,26.161L20.032,26.161Z" clip-rule="evenodd" fill-rule="evenodd" fill="#110A1D"/>
<path d="M23.999,35.2C22.026,32.302 20.84,28.756 20.032,26.161L23.16,26.161C23.351,26.591 23.543,27.033 23.737,27.478C24.349,28.888 24.978,30.334 25.64,31.539C26.112,32.398 26.625,33.181 27.197,33.775C27.77,34.371 28.443,34.819 29.23,34.915C29.413,34.938 29.596,34.877 29.733,34.748C29.87,34.618 29.949,34.434 29.949,34.239L29.949,27.4C29.949,27.244 29.898,27.093 29.805,26.972L29.185,26.161L33.342,26.161L33.342,33.314C33.342,33.569 33.477,33.802 33.691,33.919C33.905,34.035 34.163,34.016 34.359,33.868C35.828,32.763 36.784,31.379 37.574,29.971C37.891,29.406 38.187,28.826 38.476,28.26C38.544,28.127 38.612,27.994 38.679,27.862C38.98,27.276 39.279,26.708 39.604,26.161L42.628,26.161C41.839,28.695 40.54,30.564 39.177,32.525C39.001,32.777 38.825,33.031 38.648,33.288C38.45,33.577 38.496,33.979 38.755,34.209C40.606,35.854 42.126,37.868 43.232,40.133L39.839,40.133C39.487,39.791 39.164,39.417 38.834,39.02C38.762,38.933 38.689,38.845 38.615,38.755C38.305,38.38 37.981,37.987 37.637,37.622C36.762,36.695 35.699,35.882 34.083,35.622C33.897,35.592 33.709,35.649 33.566,35.778C33.424,35.908 33.342,36.096 33.342,36.295L33.342,40.2C29.034,40.563 26.098,38.282 23.999,35.2Z" fill="#110A1D"/>
</svg>
