<svg width="54" height="54" viewBox="0 0 54 54" fill="none" xmlns="http://www.w3.org/2000/svg" xmlns:xlink="http://www.w3.org/1999/xlink">
<path d="M0,27C0,41.884 12.11,54 27,54C41.884,54 54,41.884 54,27C54,12.116 41.884,0 27,0C12.116,0 0,12.116 0,27ZM10.027,8.386C14.509,4.296 20.468,1.798 27,1.798C33.53,1.798 39.488,4.294 43.969,8.382L41.965,10.386C38.002,6.815 32.755,4.641 27,4.641C21.243,4.641 15.994,6.816 12.031,10.39L10.027,8.386ZM8.383,10.03C4.294,14.512 1.798,20.47 1.798,27C1.798,33.53 4.294,39.487 8.382,43.968L10.386,41.964C6.814,38.002 4.641,32.755 4.641,27C4.641,21.244 6.815,15.997 10.387,12.034L8.383,10.03ZM10.026,45.613C14.508,49.704 20.468,52.202 27,52.202C33.529,52.202 39.486,49.706 43.967,45.619L41.963,43.615C38.001,47.186 32.755,49.359 27,49.359C21.242,49.359 15.993,47.184 12.03,43.609L10.026,45.613ZM52.202,27C52.202,33.533 49.704,39.493 45.612,43.975L43.608,41.971C47.183,38.008 49.359,32.758 49.359,27C49.359,21.242 47.184,15.993 43.61,12.03L45.614,10.026C49.704,14.508 52.202,20.468 52.202,27Z" clip-rule="evenodd" fill-rule="evenodd" fill="#478BF9"/>
<path d="M35.964,22.846L35.964,23.478C35.964,29.837 31.318,37.125 22.816,37.125C20.307,37.131 17.85,36.373 15.75,34.946C16.115,34.998 16.483,35.021 16.851,35.016C18.931,35.022 20.953,34.301 22.591,32.97C21.625,32.955 20.687,32.624 19.912,32.024C19.137,31.425 18.564,30.586 18.274,29.629C18.562,29.692 18.855,29.724 19.149,29.724C19.56,29.724 19.969,29.666 20.366,29.553C19.319,29.336 18.377,28.749 17.701,27.89C17.026,27.032 16.658,25.957 16.662,24.848L16.662,24.785C17.303,25.157 18.021,25.36 18.754,25.379C17.778,24.711 17.084,23.682 16.814,22.502C16.543,21.321 16.718,20.077 17.301,19.026C18.462,20.509 19.912,21.723 21.554,22.586C23.197,23.45 24.997,23.946 26.836,24.04C26.745,23.681 26.702,23.312 26.708,22.941C26.674,21.961 26.931,20.995 27.445,20.172C27.959,19.35 28.704,18.712 29.579,18.346C30.455,17.979 31.418,17.902 32.337,18.124C33.256,18.346 34.087,18.857 34.717,19.588C35.752,19.371 36.744,18.976 37.654,18.419C37.309,19.551 36.575,20.51 35.593,21.116C36.511,20.985 37.406,20.717 38.25,20.32C37.638,21.296 36.864,22.152 35.964,22.846Z" fill="#110A1D"/>
</svg>
