<svg width="64" height="64" viewBox="0 0 64 64" fill="none" xmlns="http://www.w3.org/2000/svg" xmlns:xlink="http://www.w3.org/1999/xlink">
<path d="M0,32C0,49.64 14.353,64 32,64C49.64,64 64,49.64 64,32C64,14.36 49.64,0 32,0C14.36,0 0,14.36 0,32ZM11.884,9.939C17.196,5.091 24.258,2.131 32,2.131C39.739,2.131 46.8,5.089 52.111,9.934L49.736,12.309C45.04,8.076 38.821,5.5 32,5.5C25.177,5.5 18.956,8.078 14.259,12.314L11.884,9.939ZM9.935,11.888C5.09,17.199 2.131,24.26 2.131,32C2.131,39.739 5.089,46.799 9.934,52.111L12.309,49.736C8.076,45.039 5.5,38.821 5.5,32C5.5,25.179 8.077,18.959 12.31,14.263L9.935,11.888ZM11.882,54.06C17.194,58.908 24.258,61.869 32,61.869C39.738,61.869 46.798,58.911 52.11,54.067L49.734,51.692C45.038,55.924 38.82,58.5 32,58.5C25.176,58.5 18.955,55.921 14.257,51.685L11.882,54.06ZM61.869,32C61.869,39.743 58.908,46.807 54.059,52.119L51.684,49.744C55.921,45.046 58.5,38.825 58.5,32C58.5,25.176 55.921,18.955 51.686,14.258L54.061,11.883C58.909,17.195 61.869,24.258 61.869,32Z" clip-rule="evenodd" fill-rule="evenodd" fill="#478BF9"/>
<path d="M42.623,27.077L42.623,27.826C42.623,35.363 37.117,44 27.041,44C24.067,44.007 21.156,43.109 18.667,41.418C19.099,41.479 19.535,41.506 19.971,41.5C22.437,41.507 24.833,40.653 26.775,39.075C25.629,39.058 24.518,38.666 23.6,37.955C22.681,37.244 22.001,36.251 21.658,35.116C21.999,35.191 22.347,35.229 22.695,35.228C23.182,35.228 23.667,35.16 24.137,35.026C22.896,34.769 21.78,34.072 20.979,33.055C20.179,32.038 19.743,30.764 19.748,29.45L19.748,29.375C20.507,29.815 21.358,30.057 22.227,30.079C21.07,29.288 20.247,28.068 19.927,26.669C19.607,25.269 19.813,23.796 20.504,22.549C21.881,24.307 23.599,25.745 25.546,26.769C27.493,27.793 29.626,28.38 31.805,28.492C31.697,28.067 31.646,27.629 31.654,27.189C31.613,26.029 31.918,24.883 32.527,23.908C33.136,22.934 34.02,22.178 35.057,21.743C36.094,21.309 37.236,21.217 38.325,21.481C39.415,21.744 40.4,22.35 41.146,23.215C42.372,22.958 43.549,22.49 44.627,21.83C44.218,23.171 43.348,24.309 42.184,25.026C43.272,24.871 44.332,24.553 45.333,24.083C44.608,25.24 43.69,26.254 42.623,27.077Z" fill="#110A1D"/>
</svg>
