<svg width="54" height="54" viewBox="0 0 54 54" fill="none" xmlns="http://www.w3.org/2000/svg" xmlns:xlink="http://www.w3.org/1999/xlink">
<path d="M0,27C0,41.884 12.11,54 27,54C41.884,54 54,41.884 54,27C54,12.116 41.884,0 27,0C12.116,0 0,12.116 0,27ZM10.027,8.386C14.509,4.296 20.468,1.798 27,1.798C33.53,1.798 39.488,4.294 43.969,8.382L41.965,10.386C38.002,6.815 32.755,4.641 27,4.641C21.243,4.641 15.994,6.816 12.031,10.39L10.027,8.386ZM8.383,10.03C4.294,14.512 1.798,20.47 1.798,27C1.798,33.53 4.294,39.487 8.382,43.968L10.386,41.964C6.814,38.002 4.641,32.755 4.641,27C4.641,21.244 6.815,15.997 10.387,12.034L8.383,10.03ZM10.026,45.613C14.508,49.704 20.468,52.202 27,52.202C33.529,52.202 39.486,49.706 43.967,45.619L41.963,43.615C38.001,47.186 32.755,49.359 27,49.359C21.242,49.359 15.993,47.184 12.03,43.609L10.026,45.613ZM52.202,27C52.202,33.533 49.704,39.493 45.612,43.975L43.608,41.971C47.183,38.008 49.359,32.758 49.359,27C49.359,21.242 47.184,15.993 43.61,12.03L45.614,10.026C49.704,14.508 52.202,20.468 52.202,27Z" clip-rule="evenodd" fill-rule="evenodd" fill="#478BF9"/>
<path d="M27,16.031C29.98,16.031 30.352,16.042 31.521,16.097C32.689,16.152 33.485,16.335 34.185,16.607C34.908,16.886 35.518,17.263 36.128,17.872C36.686,18.42 37.117,19.083 37.393,19.815C37.664,20.514 37.848,21.311 37.903,22.479C37.954,23.648 37.969,24.02 37.969,27C37.969,29.98 37.958,30.352 37.903,31.521C37.848,32.689 37.664,33.485 37.393,34.185C37.118,34.917 36.687,35.58 36.128,36.128C35.58,36.686 34.916,37.117 34.185,37.393C33.486,37.664 32.689,37.848 31.521,37.903C30.352,37.954 29.98,37.969 27,37.969C24.02,37.969 23.648,37.958 22.479,37.903C21.311,37.848 20.515,37.664 19.815,37.393C19.083,37.118 18.42,36.686 17.872,36.128C17.314,35.58 16.882,34.917 16.607,34.185C16.335,33.486 16.152,32.689 16.097,31.521C16.046,30.352 16.031,29.98 16.031,27C16.031,24.02 16.042,23.648 16.097,22.479C16.152,21.309 16.335,20.515 16.607,19.815C16.882,19.083 17.313,18.419 17.872,17.872C18.42,17.314 19.083,16.882 19.815,16.607C20.515,16.335 21.309,16.152 22.479,16.097C23.648,16.046 24.02,16.031 27,16.031ZM27,21.516C25.545,21.516 24.15,22.093 23.122,23.122C22.093,24.15 21.516,25.545 21.516,27C21.516,28.455 22.093,29.85 23.122,30.878C24.15,31.907 25.545,32.484 27,32.484C28.455,32.484 29.85,31.907 30.878,30.878C31.907,29.85 32.484,28.455 32.484,27C32.484,25.545 31.907,24.15 30.878,23.122C29.85,22.093 28.455,21.516 27,21.516ZM34.13,21.241C34.13,20.878 33.985,20.529 33.728,20.272C33.471,20.015 33.122,19.87 32.759,19.87C32.395,19.87 32.046,20.015 31.789,20.272C31.532,20.529 31.387,20.878 31.387,21.241C31.387,21.605 31.532,21.954 31.789,22.211C32.046,22.468 32.395,22.612 32.759,22.612C33.122,22.612 33.471,22.468 33.728,22.211C33.985,21.954 34.13,21.605 34.13,21.241ZM27,23.709C27.873,23.709 28.71,24.056 29.327,24.673C29.944,25.29 30.291,26.127 30.291,27C30.291,27.873 29.944,28.71 29.327,29.327C28.71,29.944 27.873,30.291 27,30.291C26.127,30.291 25.29,29.944 24.673,29.327C24.056,28.71 23.709,27.873 23.709,27C23.709,26.127 24.056,25.29 24.673,24.673C25.29,24.056 26.127,23.709 27,23.709Z" fill="#110A1D"/>
</svg>
