<svg width="54" height="54" viewBox="0 0 54 54" fill="none" xmlns="http://www.w3.org/2000/svg" xmlns:xlink="http://www.w3.org/1999/xlink">
<path d="M0,27C0,41.884 12.11,54 27,54C41.884,54 54,41.884 54,27C54,12.116 41.884,0 27,0C12.116,0 0,12.116 0,27ZM10.027,8.386C14.509,4.296 20.468,1.798 27,1.798C33.53,1.798 39.488,4.294 43.969,8.382L41.965,10.386C38.002,6.815 32.755,4.641 27,4.641C21.243,4.641 15.994,6.816 12.031,10.39L10.027,8.386ZM8.383,10.03C4.294,14.512 1.798,20.47 1.798,27C1.798,33.53 4.294,39.487 8.382,43.968L10.386,41.964C6.814,38.002 4.641,32.755 4.641,27C4.641,21.244 6.815,15.997 10.387,12.034L8.383,10.03ZM10.026,45.613C14.508,49.704 20.468,52.202 27,52.202C33.529,52.202 39.486,49.706 43.967,45.619L41.963,43.615C38.001,47.186 32.755,49.359 27,49.359C21.242,49.359 15.993,47.184 12.03,43.609L10.026,45.613ZM52.202,27C52.202,33.533 49.704,39.493 45.612,43.975L43.608,41.971C47.183,38.008 49.359,32.758 49.359,27C49.359,21.242 47.184,15.993 43.61,12.03L45.614,10.026C49.704,14.508 52.202,20.468 52.202,27Z" clip-rule="evenodd" fill-rule="evenodd" fill="#478BF9"/>
<path d="M34.836,18.785C34.836,18.785 36.748,18.04 36.588,19.85C36.536,20.596 36.058,23.206 35.686,26.029L34.411,34.391C34.411,34.391 34.305,35.616 33.348,35.829C32.393,36.042 30.958,35.084 30.693,34.871C30.48,34.711 26.709,32.314 25.381,31.142C25.009,30.822 24.584,30.183 25.434,29.438L31.011,24.111C31.648,23.473 32.286,21.981 29.63,23.792L22.193,28.852C22.193,28.852 21.343,29.385 19.75,28.905L16.297,27.84C16.297,27.84 15.022,27.041 17.2,26.242C22.512,23.739 29.046,21.182 34.835,18.785L34.836,18.785Z" fill="#110A1D"/>
</svg>
