<svg width="172" height="216" viewBox="0 0 172 216" fill="none" xmlns="http://www.w3.org/2000/svg" xmlns:xlink="http://www.w3.org/1999/xlink">
<path d="M86.158,142.339C66.89,123.071 66.89,91.723 86.158,72.455C105.426,53.187 136.774,53.187 156.042,72.455C175.31,91.723 175.31,123.071 156.042,142.339C136.774,161.607 105.426,161.607 86.158,142.339ZM153.713,74.784C135.729,56.8 106.471,56.8 88.492,74.784C70.507,92.768 70.507,122.026 88.492,140.006C106.476,157.99 135.734,157.99 153.713,140.006C171.697,122.022 171.697,92.764 153.713,74.784Z" transform="rotate(0 121.1 107.397)" fill="#FFFFFF"/>
<path d="M154.251,96.915C154.077,96.742 153.937,96.522 153.857,96.278C152.147,91.218 149.354,86.733 145.558,82.938C141.768,79.147 137.279,76.354 132.218,74.639C131.548,74.41 131.098,73.786 131.098,73.079L131.098,61.069C131.098,60.563 131.332,60.085 131.731,59.771C132.134,59.457 132.654,59.349 133.141,59.471C141.791,61.636 149.71,66.125 156.036,72.456C162.362,78.786 166.851,86.7 169.016,95.35C169.137,95.842 169.025,96.363 168.716,96.766C168.402,97.169 167.924,97.398 167.418,97.398L155.408,97.398C154.958,97.398 154.546,97.215 154.241,96.911L154.251,96.915ZM147.887,80.609C151.758,84.479 154.677,89.015 156.58,94.104L165.267,94.104C163.083,86.832 159.115,80.187 153.712,74.784C148.309,69.382 141.665,65.413 134.397,63.234L134.397,71.921C139.486,73.819 144.022,76.738 147.892,80.614L147.887,80.609Z" transform="rotate(0 150.081 78.41)" fill="#FFFFFF"/>
<path d="M86.157,142.34C79.831,136.014 75.338,128.095 73.173,119.445C73.051,118.953 73.163,118.433 73.473,118.034C73.787,117.631 74.264,117.402 74.771,117.402L86.78,117.402C87.488,117.402 88.116,117.852 88.341,118.522C90.051,123.582 92.844,128.067 96.639,131.862C100.43,135.653 104.919,138.446 109.98,140.161C110.65,140.386 111.1,141.014 111.1,141.721L111.1,153.731C111.1,154.237 110.865,154.715 110.467,155.029C110.064,155.343 109.544,155.45 109.052,155.329C100.402,153.164 92.488,148.675 86.157,142.349L86.157,142.34ZM76.931,120.691C79.114,127.964 83.083,134.608 88.486,140.011C93.889,145.413 100.533,149.382 107.805,151.566L107.805,142.878C102.717,140.981 98.181,138.061 94.31,134.191C90.44,130.321 87.521,125.785 85.618,120.696L76.931,120.696L76.931,120.691Z" transform="rotate(0 92.112 136.39)" fill="#FFFFFF"/>
<path d="M131.581,154.888C131.272,154.578 131.098,154.161 131.098,153.721L131.098,141.711C131.098,141.004 131.548,140.376 132.218,140.151C137.279,138.441 141.763,135.648 145.558,131.852C149.354,128.057 152.142,123.573 153.857,118.512C154.082,117.842 154.71,117.392 155.417,117.392L167.427,117.392C167.933,117.392 168.411,117.626 168.725,118.025C169.039,118.423 169.147,118.948 169.025,119.435C166.855,128.085 162.366,135.999 156.041,142.33C149.715,148.66 141.796,153.149 133.146,155.314C132.654,155.436 132.134,155.323 131.735,155.014C131.684,154.967 131.632,154.925 131.585,154.878L131.581,154.888ZM134.392,142.873L134.392,151.561C141.665,149.377 148.309,145.408 153.712,140.006C159.115,134.603 163.079,127.959 165.267,120.686L156.58,120.686C154.682,125.775 151.763,130.306 147.887,134.181C144.017,138.052 139.481,140.976 134.392,142.873Z" transform="rotate(0 150.086 136.377)" fill="#FFFFFF"/>
<path d="M73.605,96.915C73.558,96.868 73.511,96.817 73.473,96.765C73.159,96.367 73.052,95.842 73.173,95.35C75.338,86.7 79.827,78.781 86.158,72.455C92.488,66.13 100.403,61.636 109.053,59.471C109.545,59.349 110.065,59.462 110.463,59.771C110.861,60.085 111.096,60.563 111.096,61.069L111.096,73.079C111.096,73.786 110.646,74.414 109.976,74.639C104.915,76.349 100.431,79.142 96.635,82.937C92.844,86.728 90.052,91.217 88.337,96.278C88.112,96.948 87.484,97.398 86.776,97.398L74.767,97.398C74.326,97.398 73.904,97.224 73.6,96.92L73.605,96.915ZM107.802,63.234C100.529,65.417 93.885,69.386 88.482,74.789C83.079,80.192 79.115,86.836 76.927,94.108L85.614,94.108C87.512,89.02 90.431,84.488 94.306,80.613C98.177,76.743 102.713,73.824 107.802,71.921L107.802,63.234Z" transform="rotate(0 92.11 78.41)" fill="#FFFFFF"/>
<path d="M147.891,80.609C133.121,65.839 109.083,65.834 94.314,80.609C79.54,95.383 79.544,119.416 94.314,134.186C109.083,148.956 133.117,148.96 147.891,134.186C162.665,119.412 162.661,95.378 147.891,80.609Z" transform="rotate(0 121.102 107.397)" fill="#FFFFFF"/>
<path d="M134.778,121.01L107.563,121.01C106.417,121.01 105.487,121.939 105.487,123.085L105.487,124.055C105.487,125.202 106.417,126.131 107.563,126.131L134.778,126.131C135.925,126.131 136.854,125.202 136.854,124.055L136.854,123.085C136.854,121.939 135.925,121.01 134.778,121.01Z" transform="rotate(-0.76 121.171 123.57)" fill="#110A1D"/>
<path d="M111.254,104.492C110.959,104.492 110.659,104.427 110.387,104.296L108.265,103.269C107.341,102.82 106.92,101.728 107.304,100.776L108.279,98.349C108.578,97.609 109.286,97.126 110.083,97.122C110.425,97.122 110.762,97.206 111.062,97.379L113.592,98.823C114.066,99.09 114.408,99.554 114.529,100.088C114.651,100.622 114.543,101.184 114.234,101.634L112.847,103.644C112.486,104.169 111.887,104.488 111.249,104.488L111.254,104.492Z" transform="rotate(0 110.87 100.807)" fill="#110A1D"/>
<path d="M130.848,104.361C130.21,104.361 129.606,104.057 129.24,103.537L127.867,101.601C127.549,101.156 127.436,100.594 127.549,100.06C127.661,99.526 127.999,99.057 128.472,98.781L131.082,97.248C131.377,97.075 131.714,96.981 132.057,96.977C132.853,96.972 133.57,97.445 133.879,98.181L134.863,100.538C135.257,101.484 134.849,102.585 133.936,103.045L131.714,104.155C131.447,104.286 131.147,104.361 130.852,104.361L130.848,104.361Z" transform="rotate(0 131.26 100.669)" fill="#110A1D"/>
<path d="M109.116,119.28C107.921,119.29 106.848,118.54 106.441,117.416L101.9,104.919C101.61,105.059 101.3,105.167 100.986,105.247C100.616,105.34 100.241,105.387 99.862,105.387C99.642,105.387 99.426,105.378 99.215,105.35C96.849,105.05 95.054,103.021 95.04,100.631C95.021,97.988 97.158,95.823 99.801,95.805C102.444,95.786 104.609,97.923 104.623,100.565C104.623,101.175 104.519,101.76 104.304,102.309C104.187,102.608 104.042,102.894 103.873,103.166L112.509,107.346L119.116,97.773C118.839,97.656 118.572,97.51 118.319,97.337C117.841,97.014 117.424,96.611 117.087,96.137C116.515,95.331 116.206,94.38 116.201,93.396C116.182,90.753 118.319,88.589 120.962,88.57C121.079,88.57 121.201,88.57 121.318,88.579C123.684,88.739 125.596,90.636 125.77,93.003C125.849,94.122 125.554,95.196 124.917,96.109C124.579,96.587 124.167,96.995 123.694,97.318C123.445,97.492 123.178,97.637 122.902,97.754L129.626,107.229L138.121,102.979C137.962,102.674 137.835,102.355 137.742,102.023C137.629,101.62 137.568,101.198 137.568,100.772C137.568,100.579 137.578,100.387 137.596,100.2C137.868,97.791 139.902,95.964 142.324,95.95C144.967,95.931 147.132,98.068 147.146,100.711C147.165,103.232 145.206,105.35 142.69,105.523L142.39,105.532C141.903,105.532 141.425,105.467 140.961,105.326C140.661,105.232 140.37,105.115 140.099,104.965L135.835,117.219C135.446,118.348 134.377,119.107 133.182,119.116L109.116,119.276L109.116,119.28Z" transform="rotate(0 121.093 103.925)" fill="#110A1D"/>
<line x1="1.6" y1="60.141" x2="119.835" y2="60.141" fill="#9DADF2"/>
<path d="M62.477,1.025L62.477,119.259C62.477,120.237 61.684,121.019 60.717,121.019C59.75,121.019 58.958,120.227 58.958,119.259L58.958,1.025C58.958,0.047 59.75,-0.735 60.717,-0.735C61.684,-0.735 62.477,0.058 62.477,1.025Z" transform="rotate(-180 60.717 60.142)" fill="#FFFFFF"/>
<line x1="1.342" y1="154.601" x2="119.577" y2="154.601" fill="#9DADF2"/>
<path d="M62.219,95.481L62.219,213.715C62.219,214.693 61.427,215.475 60.46,215.475C59.493,215.475 58.7,214.683 58.7,213.715L58.7,95.481C58.7,94.504 59.493,93.721 60.46,93.721C61.427,93.721 62.219,94.514 62.219,95.481Z" transform="rotate(-180 60.46 154.598)" fill="#FFFFFF"/>
</svg>
