<svg width="100" height="100" viewBox="0 0 100 100" fill="none" xmlns="http://www.w3.org/2000/svg" xmlns:xlink="http://www.w3.org/1999/xlink">
<path d="M15.265,83.649C-4.003,64.381 -4.003,33.033 15.265,13.765C34.533,-5.503 65.881,-5.503 85.149,13.765C104.417,33.033 104.417,64.381 85.149,83.649C65.881,102.917 34.533,102.917 15.265,83.649ZM82.82,16.094C64.836,-1.89 35.578,-1.89 17.599,16.094C-0.385,34.078 -0.385,63.336 17.599,81.315C35.583,99.299 64.841,99.299 82.82,81.315C100.804,63.331 100.804,34.073 82.82,16.094Z" transform="rotate(0 50.207 48.707)" fill="#FFFFFF"/>
<path d="M83.354,38.224C83.18,38.051 83.04,37.831 82.96,37.587C81.25,32.527 78.457,28.042 74.662,24.247C70.871,20.456 66.382,17.663 61.321,15.948C60.651,15.719 60.201,15.095 60.201,14.388L60.201,2.378C60.201,1.872 60.435,1.394 60.834,1.08C61.237,0.766 61.757,0.659 62.244,0.78C70.894,2.945 78.813,7.434 85.139,13.765C91.465,20.095 95.954,28.009 98.119,36.659C98.24,37.151 98.128,37.672 97.819,38.075C97.505,38.478 97.027,38.707 96.521,38.707L84.511,38.707C84.061,38.707 83.649,38.524 83.344,38.22L83.354,38.224ZM76.99,21.918C80.861,25.788 83.78,30.324 85.683,35.413L94.37,35.413C92.186,28.141 88.218,21.496 82.815,16.094C77.412,10.691 70.768,6.722 63.5,4.543L63.5,13.231C68.589,15.128 73.125,18.048 76.995,21.923L76.99,21.918Z" transform="rotate(0 79.184 19.719)" fill="#FFFFFF"/>
<path d="M15.264,83.648C8.939,77.322 4.445,69.403 2.28,60.753C2.158,60.261 2.271,59.741 2.58,59.343C2.894,58.94 3.372,58.71 3.878,58.71L15.888,58.71C16.595,58.71 17.223,59.16 17.448,59.83C19.158,64.891 21.951,69.375 25.747,73.171C29.537,76.962 34.026,79.754 39.087,81.469C39.757,81.694 40.207,82.322 40.207,83.03L40.207,95.039C40.207,95.545 39.973,96.023 39.574,96.337C39.171,96.651 38.651,96.759 38.159,96.637C29.509,94.472 21.595,89.983 15.264,83.658L15.264,83.648ZM6.038,62C8.222,69.272 12.191,75.917 17.593,81.319C22.996,86.722 29.641,90.691 36.913,92.875L36.913,84.187C31.824,82.289 27.288,79.37 23.418,75.5C19.547,71.629 16.628,67.093 14.726,62.005L6.038,62.005L6.038,62Z" transform="rotate(0 21.219 77.698)" fill="#FFFFFF"/>
<path d="M60.692,96.197C60.382,95.888 60.209,95.471 60.209,95.031L60.209,83.021C60.209,82.313 60.659,81.685 61.329,81.46C66.39,79.75 70.874,76.957 74.669,73.162C78.465,69.367 81.253,64.882 82.968,59.822C83.193,59.151 83.821,58.702 84.528,58.702L96.538,58.702C97.044,58.702 97.522,58.936 97.836,59.334C98.15,59.733 98.258,60.257 98.136,60.745C95.966,69.395 91.477,77.309 85.151,83.639C78.826,89.97 70.907,94.459 62.257,96.624C61.765,96.746 61.245,96.633 60.846,96.324C60.795,96.277 60.743,96.235 60.696,96.188L60.692,96.197ZM63.503,84.183L63.503,92.87C70.775,90.687 77.42,86.718 82.823,81.315C88.225,75.913 92.19,69.268 94.378,61.996L85.69,61.996C83.793,67.085 80.873,71.616 76.998,75.491C73.128,79.361 68.592,82.285 63.503,84.183Z" transform="rotate(0 79.197 77.687)" fill="#FFFFFF"/>
<path d="M2.712,38.225C2.665,38.178 2.618,38.126 2.581,38.075C2.267,37.676 2.159,37.152 2.281,36.66C4.446,28.01 8.935,20.091 15.265,13.765C21.596,7.439 29.51,2.945 38.16,0.781C38.652,0.659 39.172,0.771 39.57,1.08C39.969,1.394 40.203,1.872 40.203,2.378L40.203,14.388C40.203,15.096 39.753,15.724 39.083,15.949C34.022,17.659 29.538,20.452 25.743,24.247C21.952,28.038 19.159,32.527 17.444,37.587C17.219,38.258 16.591,38.707 15.884,38.707L3.874,38.707C3.434,38.707 3.012,38.534 2.707,38.229L2.712,38.225ZM36.909,4.543C29.637,6.727 22.992,10.696 17.589,16.098C12.187,21.501 8.222,28.146 6.034,35.418L14.722,35.418C16.619,30.329 19.539,25.798 23.414,21.923C27.284,18.052 31.82,15.133 36.909,13.231L36.909,4.543Z" transform="rotate(0 21.217 19.72)" fill="#FFFFFF"/>
<path d="M76.994,21.918C62.224,7.149 38.186,7.144 23.417,21.918C8.643,36.693 8.647,60.726 23.417,75.496C38.186,90.265 62.22,90.27 76.994,75.496C91.768,60.721 91.764,36.688 76.994,21.918Z" transform="rotate(0 50.206 48.707)" fill="#FFFFFF"/>
<path d="M63.889,62.319L36.674,62.319C35.528,62.319 34.599,63.248 34.599,64.395L34.599,65.365C34.599,66.511 35.528,67.44 36.674,67.44L63.889,67.44C65.036,67.44 65.965,66.511 65.965,65.365L65.965,64.395C65.965,63.248 65.036,62.319 63.889,62.319Z" transform="rotate(-0.76 50.282 64.88)" fill="#110A1D"/>
<path d="M40.366,45.801C40.071,45.801 39.771,45.736 39.499,45.605L37.376,44.578C36.453,44.129 36.032,43.037 36.416,42.086L37.39,39.658C37.69,38.918 38.398,38.435 39.194,38.431C39.537,38.431 39.874,38.515 40.174,38.688L42.704,40.132C43.177,40.399 43.519,40.863 43.641,41.397C43.763,41.931 43.655,42.493 43.346,42.943L41.959,44.953C41.598,45.478 40.998,45.797 40.361,45.797L40.366,45.801Z" transform="rotate(0 39.982 42.116)" fill="#110A1D"/>
<path d="M59.955,45.67C59.318,45.67 58.713,45.366 58.348,44.846L56.975,42.911C56.656,42.465 56.544,41.903 56.656,41.369C56.769,40.835 57.106,40.366 57.579,40.09L60.189,38.557C60.484,38.384 60.822,38.29 61.164,38.286C61.961,38.281 62.677,38.754 62.987,39.49L63.971,41.847C64.364,42.793 63.957,43.895 63.043,44.354L60.822,45.464C60.555,45.596 60.255,45.67 59.96,45.67L59.955,45.67Z" transform="rotate(0 60.367 41.978)" fill="#110A1D"/>
<path d="M38.228,60.59C37.033,60.599 35.96,59.85 35.552,58.725L31.011,46.228C30.721,46.369 30.412,46.476 30.098,46.556C29.728,46.65 29.353,46.697 28.973,46.697C28.753,46.697 28.537,46.687 28.326,46.659C25.96,46.359 24.166,44.33 24.151,41.941C24.133,39.298 26.269,37.133 28.912,37.114C31.555,37.096 33.72,39.232 33.734,41.875C33.734,42.484 33.631,43.07 33.415,43.618C33.298,43.918 33.153,44.204 32.984,44.476L41.62,48.655L48.227,39.082C47.951,38.965 47.684,38.82 47.43,38.646C46.953,38.323 46.536,37.92 46.198,37.447C45.626,36.641 45.317,35.69 45.313,34.706C45.294,32.063 47.43,29.898 50.073,29.879C50.19,29.879 50.312,29.879 50.429,29.889C52.796,30.048 54.708,31.946 54.881,34.312C54.961,35.432 54.665,36.505 54.028,37.419C53.691,37.897 53.278,38.304 52.805,38.628C52.557,38.801 52.29,38.946 52.013,39.064L58.737,48.538L67.233,44.288C67.073,43.984 66.947,43.665 66.853,43.332C66.741,42.929 66.68,42.508 66.68,42.081C66.68,41.889 66.689,41.697 66.708,41.51C66.98,39.101 69.013,37.274 71.436,37.26C74.079,37.241 76.243,39.377 76.257,42.02C76.276,44.541 74.318,46.659 71.801,46.833L71.501,46.842C71.014,46.842 70.536,46.776 70.072,46.636C69.772,46.542 69.482,46.425 69.21,46.275L64.946,58.528C64.557,59.658 63.489,60.417 62.294,60.426L38.228,60.585L38.228,60.59Z" transform="rotate(0 50.204 45.235)" fill="#110A1D"/>
</svg>
