<svg width="100" height="100" viewBox="0 0 100 100" fill="none" xmlns="http://www.w3.org/2000/svg" xmlns:xlink="http://www.w3.org/1999/xlink">
<path d="M15.394,83.88C-3.874,64.612 -3.874,33.264 15.394,13.996C34.662,-5.272 66.01,-5.272 85.278,13.996C104.546,33.264 104.546,64.612 85.278,83.88C66.01,103.148 34.662,103.148 15.394,83.88ZM82.949,16.325C64.965,-1.659 35.707,-1.659 17.728,16.325C-0.256,34.309 -0.256,63.567 17.728,81.546C35.712,99.53 64.97,99.53 82.949,81.546C100.933,63.562 100.933,34.304 82.949,16.325Z" transform="rotate(0 50.336 48.938)" fill="#FFFFFF"/>
<path d="M83.483,38.456C83.309,38.282 83.169,38.062 83.089,37.819C81.379,32.758 78.586,28.274 74.79,24.478C71,20.687 66.511,17.895 61.45,16.18C60.78,15.95 60.33,15.327 60.33,14.619L60.33,2.61C60.33,2.104 60.564,1.626 60.963,1.312C61.366,0.998 61.886,0.89 62.373,1.012C71.023,3.177 78.942,7.666 85.268,13.996C91.594,20.327 96.083,28.241 98.247,36.891C98.369,37.383 98.257,37.903 97.948,38.306C97.634,38.709 97.156,38.939 96.65,38.939L84.64,38.939C84.19,38.939 83.778,38.756 83.473,38.451L83.483,38.456ZM77.119,22.149C80.99,26.02 83.909,30.556 85.811,35.644L94.499,35.644C92.315,28.372 88.346,21.728 82.944,16.325C77.541,10.922 70.897,6.953 63.629,4.775L63.629,13.462C68.718,15.36 73.253,18.279 77.124,22.154L77.119,22.149Z" transform="rotate(0 79.313 19.951)" fill="#FFFFFF"/>
<path d="M15.393,83.88C9.067,77.554 4.573,69.635 2.409,60.985C2.287,60.493 2.399,59.973 2.708,59.575C3.022,59.172 3.5,58.942 4.006,58.942L16.016,58.942C16.724,58.942 17.352,59.392 17.576,60.062C19.287,65.123 22.079,69.607 25.875,73.403C29.666,77.194 34.155,79.986 39.215,81.701C39.886,81.926 40.335,82.554 40.335,83.262L40.335,95.271C40.335,95.777 40.101,96.255 39.703,96.569C39.3,96.883 38.78,96.991 38.288,96.869C29.638,94.704 21.723,90.215 15.393,83.89L15.393,83.88ZM6.167,62.232C8.35,69.504 12.319,76.149 17.722,81.551C23.124,86.954 29.769,90.923 37.041,93.107L37.041,84.419C31.953,82.521 27.417,79.602 23.546,75.732C19.676,71.861 16.756,67.325 14.854,62.237L6.167,62.237L6.167,62.232Z" transform="rotate(0 21.348 77.93)" fill="#FFFFFF"/>
<path d="M60.821,96.428C60.511,96.119 60.338,95.702 60.338,95.262L60.338,83.252C60.338,82.544 60.788,81.916 61.458,81.691C66.518,79.981 71.003,77.188 74.798,73.393C78.594,69.597 81.382,65.113 83.097,60.052C83.322,59.382 83.95,58.933 84.657,58.933L96.667,58.933C97.173,58.933 97.651,59.167 97.965,59.565C98.279,59.963 98.386,60.488 98.265,60.976C96.095,69.626 91.606,77.54 85.28,83.87C78.955,90.201 71.036,94.69 62.386,96.855C61.894,96.977 61.373,96.864 60.975,96.555C60.924,96.508 60.872,96.466 60.825,96.419L60.821,96.428ZM63.632,84.414L63.632,93.101C70.904,90.918 77.549,86.949 82.951,81.546C88.354,76.144 92.318,69.499 94.507,62.227L85.819,62.227C83.921,67.315 81.002,71.847 77.127,75.722C73.257,79.592 68.721,82.516 63.632,84.414Z" transform="rotate(0 79.326 77.918)" fill="#FFFFFF"/>
<path d="M2.841,38.456C2.794,38.409 2.747,38.357 2.71,38.306C2.396,37.907 2.288,37.383 2.41,36.891C4.575,28.241 9.064,20.322 15.394,13.996C21.725,7.67 29.639,3.176 38.289,1.012C38.781,0.89 39.301,1.002 39.699,1.311C40.098,1.625 40.332,2.103 40.332,2.609L40.332,14.619C40.332,15.327 39.882,15.955 39.212,16.179C34.151,17.89 29.667,20.683 25.871,24.478C22.081,28.269 19.288,32.758 17.573,37.818C17.348,38.489 16.72,38.938 16.013,38.938L4.003,38.938C3.562,38.938 3.141,38.765 2.836,38.46L2.841,38.456ZM37.038,4.774C29.765,6.958 23.121,10.927 17.718,16.329C12.316,21.732 8.351,28.377 6.163,35.649L14.851,35.649C16.748,30.56 19.668,26.029 23.543,22.154C27.413,18.283 31.949,15.364 37.038,13.462L37.038,4.774Z" transform="rotate(0 21.346 19.951)" fill="#FFFFFF"/>
<path d="M77.123,22.149C62.354,7.38 38.316,7.375 23.546,22.149C8.772,36.924 8.777,60.957 23.546,75.727C38.316,90.496 62.349,90.501 77.123,75.727C91.898,60.952 91.893,36.919 77.123,22.149Z" transform="rotate(0 50.335 48.938)" fill="#FFFFFF"/>
<path d="M64.018,62.55L36.803,62.55C35.657,62.55 34.728,63.48 34.728,64.626L34.728,65.596C34.728,66.742 35.657,67.672 36.803,67.672L64.018,67.672C65.165,67.672 66.094,66.742 66.094,65.596L66.094,64.626C66.094,63.48 65.165,62.55 64.018,62.55Z" transform="rotate(-0.76 50.411 65.111)" fill="#110A1D"/>
<path d="M40.495,46.033C40.2,46.033 39.9,45.967 39.628,45.836L37.505,44.81C36.582,44.36 36.16,43.268 36.545,42.317L37.519,39.89C37.819,39.149 38.527,38.667 39.323,38.662C39.665,38.662 40.003,38.746 40.303,38.92L42.833,40.363C43.306,40.63 43.648,41.094 43.77,41.628C43.892,42.162 43.784,42.725 43.475,43.175L42.088,45.185C41.727,45.71 41.127,46.028 40.49,46.028L40.495,46.033Z" transform="rotate(0 40.111 42.347)" fill="#110A1D"/>
<path d="M60.084,45.902C59.447,45.902 58.843,45.597 58.477,45.077L57.104,43.142C56.786,42.697 56.673,42.135 56.786,41.6C56.898,41.066 57.235,40.598 57.709,40.321L60.319,38.789C60.614,38.616 60.951,38.522 61.293,38.517C62.09,38.512 62.807,38.986 63.116,39.721L64.1,42.078C64.494,43.025 64.086,44.126 63.172,44.585L60.951,45.696C60.684,45.827 60.384,45.902 60.089,45.902L60.084,45.902Z" transform="rotate(0 60.497 42.21)" fill="#110A1D"/>
<path d="M38.357,60.821C37.162,60.83 36.089,60.081 35.681,58.956L31.141,46.459C30.85,46.6 30.541,46.707 30.227,46.787C29.857,46.881 29.482,46.928 29.103,46.928C28.882,46.928 28.667,46.918 28.456,46.89C26.09,46.59 24.295,44.561 24.281,42.172C24.262,39.529 26.399,37.364 29.042,37.345C31.684,37.326 33.849,39.463 33.863,42.106C33.863,42.715 33.76,43.301 33.545,43.849C33.428,44.149 33.282,44.435 33.114,44.707L41.749,48.886L48.357,39.313C48.08,39.196 47.813,39.051 47.56,38.877C47.082,38.554 46.665,38.151 46.328,37.678C45.756,36.872 45.447,35.921 45.442,34.937C45.423,32.294 47.56,30.129 50.203,30.11C50.32,30.11 50.442,30.11 50.559,30.12C52.925,30.279 54.837,32.177 55.01,34.543C55.09,35.663 54.795,36.736 54.158,37.65C53.82,38.128 53.408,38.535 52.934,38.859C52.686,39.032 52.419,39.177 52.143,39.294L58.867,48.769L67.362,44.519C67.203,44.215 67.076,43.896 66.983,43.563C66.87,43.16 66.809,42.739 66.809,42.312C66.809,42.12 66.818,41.928 66.837,41.74C67.109,39.332 69.143,37.505 71.565,37.49C74.208,37.472 76.373,39.608 76.387,42.251C76.406,44.772 74.447,46.89 71.931,47.064L71.631,47.073C71.143,47.073 70.666,47.007 70.202,46.867C69.902,46.773 69.611,46.656 69.339,46.506L65.075,58.759C64.686,59.889 63.618,60.648 62.423,60.657L38.357,60.816L38.357,60.821Z" transform="rotate(0 50.334 45.466)" fill="#110A1D"/>
</svg>
