<svg width="100" height="100" viewBox="0 0 100 100" fill="none" xmlns="http://www.w3.org/2000/svg" xmlns:xlink="http://www.w3.org/1999/xlink">
<path d="M14.287,84.335C-4.981,65.067 -4.981,33.719 14.287,14.451C33.555,-4.817 64.903,-4.817 84.171,14.451C103.439,33.719 103.439,65.067 84.171,84.335C64.903,103.603 33.555,103.603 14.287,84.335ZM81.842,16.78C63.858,-1.204 34.6,-1.204 16.62,16.78C-1.364,34.764 -1.364,64.022 16.62,82.002C34.605,99.986 63.863,99.986 81.842,82.002C99.826,64.018 99.826,34.76 81.842,16.78Z" transform="rotate(0 49.229 49.393)" fill="#FFFFFF"/>
<path d="M82.375,38.911C82.202,38.738 82.061,38.517 81.982,38.274C80.271,33.213 77.478,28.729 73.683,24.933C69.892,21.143 65.403,18.35 60.343,16.635C59.672,16.405 59.223,15.782 59.223,15.074L59.223,3.065C59.223,2.559 59.457,2.081 59.855,1.767C60.258,1.453 60.778,1.345 61.266,1.467C69.916,3.632 77.835,8.121 84.16,14.451C90.486,20.782 94.975,28.696 97.14,37.346C97.262,37.838 97.149,38.358 96.84,38.761C96.526,39.164 96.048,39.394 95.542,39.394L83.532,39.394C83.083,39.394 82.67,39.211 82.366,38.906L82.375,38.911ZM76.012,22.605C79.882,26.475 82.801,31.011 84.704,36.1L93.391,36.1C91.208,28.827 87.239,22.183 81.836,16.78C76.434,11.377 69.789,7.408 62.521,5.23L62.521,13.917C67.61,15.815 72.146,18.734 76.017,22.609L76.012,22.605Z" transform="rotate(0 78.205 20.406)" fill="#FFFFFF"/>
<path d="M14.285,84.335C7.96,78.009 3.466,70.09 1.301,61.44C1.179,60.948 1.292,60.428 1.601,60.03C1.915,59.627 2.393,59.397 2.899,59.397L14.909,59.397C15.616,59.397 16.244,59.847 16.469,60.517C18.179,65.578 20.972,70.062 24.768,73.857C28.558,77.648 33.047,80.441 38.108,82.156C38.778,82.381 39.228,83.009 39.228,83.716L39.228,95.726C39.228,96.232 38.994,96.71 38.595,97.024C38.192,97.338 37.672,97.446 37.18,97.324C28.53,95.159 20.616,90.67 14.285,84.344L14.285,84.335ZM5.059,62.686C7.243,69.959 11.212,76.603 16.614,82.006C22.017,87.409 28.662,91.378 35.934,93.561L35.934,84.874C30.845,82.976 26.309,80.057 22.439,76.186C18.568,72.316 15.649,67.78 13.747,62.691L5.059,62.691L5.059,62.686Z" transform="rotate(0 20.24 78.385)" fill="#FFFFFF"/>
<path d="M59.713,96.884C59.403,96.575 59.23,96.158 59.23,95.717L59.23,83.707C59.23,83 59.68,82.372 60.35,82.147C65.411,80.437 69.895,77.644 73.69,73.849C77.486,70.053 80.274,65.569 81.989,60.508C82.214,59.838 82.842,59.388 83.549,59.388L95.559,59.388C96.065,59.388 96.543,59.622 96.857,60.021C97.171,60.419 97.279,60.944 97.157,61.431C94.987,70.081 90.498,77.995 84.172,84.326C77.847,90.656 69.928,95.145 61.278,97.31C60.786,97.432 60.266,97.32 59.867,97.01C59.816,96.964 59.764,96.921 59.717,96.875L59.713,96.884ZM62.524,84.87L62.524,93.557C69.796,91.373 76.441,87.405 81.844,82.002C87.246,76.599 91.211,69.955 93.399,62.682L84.711,62.682C82.814,67.771 79.894,72.302 76.019,76.177C72.149,80.048 67.613,82.972 62.524,84.87Z" transform="rotate(0 78.218 78.373)" fill="#FFFFFF"/>
<path d="M1.733,38.911C1.686,38.864 1.639,38.813 1.602,38.761C1.288,38.363 1.18,37.838 1.302,37.346C3.467,28.696 7.956,20.777 14.286,14.451C20.617,8.126 28.531,3.632 37.181,1.467C37.673,1.345 38.193,1.458 38.591,1.767C38.99,2.081 39.224,2.559 39.224,3.065L39.224,15.075C39.224,15.782 38.774,16.41 38.104,16.635C33.043,18.345 28.559,21.138 24.764,24.934C20.973,28.724 18.18,33.213 16.465,38.274C16.24,38.944 15.612,39.394 14.905,39.394L2.895,39.394C2.455,39.394 2.033,39.221 1.728,38.916L1.733,38.911ZM35.93,5.23C28.658,7.413 22.013,11.382 16.61,16.785C11.208,22.188 7.243,28.832 5.055,36.105L13.743,36.105C15.64,31.016 18.56,26.485 22.435,22.609C26.305,18.739 30.841,15.82 35.93,13.917L35.93,5.23Z" transform="rotate(0 20.238 20.406)" fill="#FFFFFF"/>
<path d="M76.016,22.605C61.246,7.835 37.208,7.831 22.438,22.605C7.664,37.379 7.669,61.412 22.438,76.182C37.208,90.952 61.241,90.956 76.016,76.182C90.79,61.408 90.785,37.374 76.016,22.605Z" transform="rotate(0 49.227 49.394)" fill="#FFFFFF"/>
<path d="M62.908,63.006L35.693,63.006C34.546,63.006 33.617,63.935 33.617,65.082L33.617,66.052C33.617,67.198 34.546,68.127 35.693,68.127L62.908,68.127C64.054,68.127 64.984,67.198 64.984,66.052L64.984,65.082C64.984,63.935 64.054,63.006 62.908,63.006Z" transform="rotate(-0.76 49.3 65.567)" fill="#110A1D"/>
<path d="M39.383,46.488C39.088,46.488 38.788,46.423 38.517,46.292L36.394,45.265C35.471,44.816 35.049,43.724 35.433,42.773L36.408,40.345C36.708,39.605 37.415,39.122 38.212,39.118C38.554,39.118 38.891,39.202 39.191,39.375L41.722,40.819C42.195,41.086 42.537,41.55 42.659,42.084C42.781,42.618 42.673,43.18 42.364,43.63L40.977,45.64C40.616,46.165 40.016,46.484 39.379,46.484L39.383,46.488Z" transform="rotate(0 39 42.803)" fill="#110A1D"/>
<path d="M58.973,46.357C58.335,46.357 57.731,46.052 57.365,45.532L55.992,43.597C55.674,43.152 55.561,42.59 55.674,42.055C55.786,41.521 56.124,41.053 56.597,40.776L59.207,39.244C59.502,39.071 59.839,38.977 60.182,38.972C60.978,38.968 61.695,39.441 62.004,40.176L62.988,42.533C63.382,43.48 62.974,44.581 62.061,45.04L59.839,46.151C59.572,46.282 59.272,46.357 58.977,46.357L58.973,46.357Z" transform="rotate(0 59.385 42.665)" fill="#110A1D"/>
<path d="M37.245,61.277C36.05,61.286 34.977,60.536 34.57,59.412L30.029,46.915C29.739,47.055 29.429,47.163 29.115,47.243C28.745,47.336 28.37,47.383 27.991,47.383C27.77,47.383 27.555,47.374 27.344,47.346C24.978,47.046 23.183,45.017 23.169,42.627C23.15,39.984 25.287,37.82 27.93,37.801C30.573,37.782 32.737,39.919 32.751,42.562C32.751,43.171 32.648,43.756 32.433,44.305C32.316,44.605 32.17,44.89 32.002,45.162L40.638,49.342L47.245,39.769C46.968,39.652 46.701,39.506 46.448,39.333C45.97,39.01 45.553,38.607 45.216,38.133C44.644,37.328 44.335,36.376 44.33,35.392C44.311,32.749 46.448,30.585 49.091,30.566C49.208,30.566 49.33,30.566 49.447,30.575C51.813,30.735 53.725,32.632 53.899,34.999C53.978,36.119 53.683,37.192 53.046,38.105C52.708,38.583 52.296,38.991 51.823,39.314C51.574,39.488 51.307,39.633 51.031,39.75L57.755,49.225L66.25,44.975C66.091,44.67 65.964,44.351 65.871,44.019C65.758,43.616 65.697,43.194 65.697,42.768C65.697,42.576 65.707,42.383 65.725,42.196C65.997,39.788 68.031,37.96 70.453,37.946C73.096,37.927 75.261,40.064 75.275,42.707C75.294,45.228 73.335,47.346 70.819,47.519L70.519,47.528C70.032,47.528 69.554,47.463 69.09,47.322C68.79,47.229 68.499,47.111 68.228,46.961L63.964,59.215C63.575,60.344 62.506,61.103 61.311,61.113L37.245,61.272L37.245,61.277Z" transform="rotate(0 49.222 45.921)" fill="#110A1D"/>
</svg>
