<svg width="242" height="218" viewBox="0 0 242 218" fill="none" xmlns="http://www.w3.org/2000/svg" xmlns:xlink="http://www.w3.org/1999/xlink">
<path d="M240.76,109.008C240.76,136.02 218.78,158 191.768,158C164.756,158 142.776,136.02 142.776,109.008C142.776,81.996 164.756,60.017 191.768,60.017C218.78,60.017 240.76,81.996 240.76,109.008ZM146.306,109.008C146.306,134.075 166.701,154.47 191.768,154.47C216.835,154.47 237.23,134.075 237.23,109.008C237.23,83.941 216.835,63.546 191.768,63.546C166.701,63.546 146.306,83.941 146.306,109.008Z" transform="rotate(-180 191.768 109.008)" fill="#478BF9"/>
<path d="M97.365,132.601C97.365,133.578 96.573,134.36 95.606,134.36C94.638,134.36 93.846,133.568 93.846,132.601C93.846,107.534 73.451,87.139 48.384,87.139C23.317,87.139 2.922,107.534 2.922,132.601C2.922,133.578 2.129,134.36 1.162,134.36C0.195,134.36 -0.597,133.568 -0.597,132.601C-0.597,105.589 21.382,83.609 48.394,83.609C75.406,83.609 97.386,105.589 97.386,132.601L97.365,132.601Z" transform="rotate(-180 48.394 108.985)" fill="#478BF9"/>
<path d="M182.342,100.343C182.342,102.144 183.567,103.708 185.316,104.14L188.64,104.974L188.64,96.422L186.273,96.422C184.112,96.422 182.353,98.182 182.353,100.343L182.342,100.343Z" transform="rotate(0 185.491 100.698)" fill="#478BF9"/>
<path d="M194.915,121.572L197.282,121.572C199.443,121.572 201.202,119.812 201.202,117.651C201.202,115.85 199.978,114.286 198.229,113.854L194.905,113.021L194.905,121.572L194.915,121.572Z" transform="rotate(0 198.054 117.296)" fill="#478BF9"/>
<path d="M191.778,69.133C169.798,69.133 151.904,87.018 151.904,109.008C151.904,130.998 169.788,148.882 191.778,148.882C213.769,148.882 231.653,130.998 231.653,109.008C231.653,87.018 213.769,69.133 191.778,69.133ZM207.502,102.71L201.214,102.71L201.214,99.562C201.214,97.833 199.805,96.413 198.066,96.413L194.917,96.413L194.917,106.538L199.764,107.753C204.312,108.895 207.492,112.959 207.492,117.652C207.492,123.28 202.912,127.86 197.284,127.86L194.917,127.86L194.917,135.824L188.63,135.824L188.63,127.86L185.481,127.86C180.274,127.86 176.045,123.63 176.045,118.424L176.045,115.275L182.332,115.275L182.332,118.424C182.332,120.152 183.742,121.572 185.481,121.572L188.63,121.572L188.63,111.447L183.783,110.232C179.235,109.09 176.055,105.026 176.055,100.333C176.055,94.705 180.634,90.125 186.263,90.125L188.63,90.125L188.63,82.161L194.917,82.161L194.917,90.125L198.066,90.125C203.272,90.125 207.502,94.355 207.502,99.562L207.502,102.71Z" transform="rotate(0 191.778 109.008)" fill="#478BF9"/>
<line x1="71.259" y1="61.714" x2="189.494" y2="61.714" fill="#478BF9"/>
<path d="M132.136,2.598L132.136,120.833C132.136,121.81 131.344,122.592 130.377,122.592C129.41,122.592 128.617,121.8 128.617,120.833L128.617,2.598C128.617,1.621 129.41,0.839 130.377,0.839C131.344,0.839 132.136,1.631 132.136,2.598Z" transform="rotate(-180 130.377 61.715)" fill="#478BF9"/>
<line x1="71.002" y1="156.177" x2="189.237" y2="156.177" fill="#478BF9"/>
<path d="M131.879,97.046L131.879,215.281C131.879,216.259 131.087,217.041 130.119,217.041C129.152,217.041 128.36,216.248 128.36,215.281L128.36,97.046C128.36,96.069 129.152,95.287 130.119,95.287C131.087,95.287 131.879,96.079 131.879,97.046Z" transform="rotate(-180 130.119 156.164)" fill="#478BF9"/>
</svg>
