<svg width="242" height="218" viewBox="0 0 242 218" fill="none" xmlns="http://www.w3.org/2000/svg" xmlns:xlink="http://www.w3.org/1999/xlink">
<path d="M240.889,109.008C240.889,136.02 218.909,158 191.897,158C164.886,158 142.906,136.02 142.906,109.008C142.906,81.996 164.886,60.017 191.897,60.017C218.909,60.017 240.889,81.996 240.889,109.008ZM146.435,109.008C146.435,134.075 166.831,154.47 191.897,154.47C216.964,154.47 237.36,134.075 237.36,109.008C237.36,83.941 216.964,63.546 191.897,63.546C166.831,63.546 146.435,83.941 146.435,109.008Z" transform="rotate(-180 191.897 109.008)" fill="#478BF9"/>
<path d="M97.495,132.601C97.495,133.578 96.703,134.36 95.736,134.36C94.768,134.36 93.976,133.568 93.976,132.601C93.976,107.534 73.581,87.139 48.514,87.139C23.447,87.139 3.052,107.534 3.052,132.601C3.052,133.578 2.259,134.36 1.292,134.36C0.325,134.36 -0.468,133.568 -0.468,132.601C-0.468,105.589 21.512,83.609 48.524,83.609C75.536,83.609 97.516,105.589 97.516,132.601L97.495,132.601Z" transform="rotate(-180 48.524 108.985)" fill="#478BF9"/>
<path d="M182.472,100.343C182.472,102.144 183.696,103.708 185.446,104.14L188.769,104.974L188.769,96.422L186.403,96.422C184.242,96.422 182.482,98.182 182.482,100.343L182.472,100.343Z" transform="rotate(0 185.62 100.698)" fill="#478BF9"/>
<path d="M195.044,121.572L197.411,121.572C199.572,121.572 201.332,119.812 201.332,117.651C201.332,115.85 200.107,114.286 198.358,113.854L195.034,113.021L195.034,121.572L195.044,121.572Z" transform="rotate(0 198.183 117.296)" fill="#478BF9"/>
<path d="M191.908,69.133C169.928,69.133 152.033,87.018 152.033,109.008C152.033,130.998 169.918,148.882 191.908,148.882C213.898,148.882 231.782,130.998 231.782,109.008C231.782,87.018 213.898,69.133 191.908,69.133ZM207.631,102.71L201.344,102.71L201.344,99.562C201.344,97.833 199.934,96.413 198.195,96.413L195.046,96.413L195.046,106.538L199.893,107.753C204.441,108.895 207.621,112.959 207.621,117.652C207.621,123.28 203.042,127.86 197.413,127.86L195.046,127.86L195.046,135.824L188.759,135.824L188.759,127.86L185.61,127.86C180.403,127.86 176.174,123.63 176.174,118.424L176.174,115.275L182.461,115.275L182.461,118.424C182.461,120.152 183.871,121.572 185.61,121.572L188.759,121.572L188.759,111.447L183.912,110.232C179.364,109.09 176.184,105.026 176.184,100.333C176.184,94.705 180.763,90.125 186.392,90.125L188.759,90.125L188.759,82.161L195.046,82.161L195.046,90.125L198.195,90.125C203.402,90.125 207.631,94.355 207.631,99.562L207.631,102.71Z" transform="rotate(0 191.908 109.008)" fill="#478BF9"/>
<line x1="71.389" y1="61.714" x2="189.624" y2="61.714" fill="#478BF9"/>
<path d="M132.266,2.598L132.266,120.833C132.266,121.81 131.474,122.592 130.506,122.592C129.539,122.592 128.747,121.8 128.747,120.833L128.747,2.598C128.747,1.621 129.539,0.839 130.506,0.839C131.474,0.839 132.266,1.631 132.266,2.598Z" transform="rotate(-180 130.506 61.715)" fill="#478BF9"/>
<line x1="71.131" y1="156.177" x2="189.366" y2="156.177" fill="#478BF9"/>
<path d="M132.008,97.046L132.008,215.281C132.008,216.259 131.216,217.041 130.248,217.041C129.281,217.041 128.489,216.248 128.489,215.281L128.489,97.046C128.489,96.069 129.281,95.287 130.248,95.287C131.216,95.287 132.008,96.079 132.008,97.046Z" transform="rotate(-180 130.248 156.164)" fill="#478BF9"/>
</svg>
