<svg width="98" height="98" viewBox="0 0 98 98" fill="none" xmlns="http://www.w3.org/2000/svg" xmlns:xlink="http://www.w3.org/1999/xlink">
<path d="M48.88,97.815C21.869,97.815 -0.101,75.835 -0.101,48.833C-0.101,21.832 21.879,-0.148 48.88,-0.148C75.882,-0.148 97.862,21.832 97.862,48.833C97.862,75.835 75.882,97.815 48.88,97.815ZM48.88,3.114C23.669,3.114 3.161,23.622 3.161,48.833C3.161,74.044 23.669,94.553 48.88,94.553C74.091,94.553 94.6,74.044 94.6,48.833C94.6,23.622 74.091,3.114 48.88,3.114Z" transform="rotate(0 48.88 48.833)" fill="#7DDACF"/>
<path d="M85.477,20.846L64.032,20.846L64.032,25.065L85.477,25.065L85.477,20.846Z" transform="rotate(-90 74.754 22.956)" fill="#7DDACF"/>
<path d="M33.276,73.044L11.832,73.044L11.832,77.263L33.276,77.263L33.276,73.044Z" transform="rotate(-90 22.554 75.154)" fill="#7DDACF"/>
<path d="M77.308,64.439L73.089,64.439L73.089,85.883L77.308,85.883L77.308,64.439Z" transform="rotate(-90 75.198 75.161)" fill="#7DDACF"/>
<path d="M24.656,11.785L20.437,11.785L20.437,33.22L24.656,33.22L24.656,11.785Z" transform="rotate(-90 22.547 22.503)" fill="#7DDACF"/>
<path d="M60.827,50.15C61.815,49.162 61.815,47.567 60.827,46.59L58.728,44.501C57.74,43.513 56.145,43.513 55.167,44.501L54.035,45.633L52.729,44.326C51.741,43.338 50.146,43.338 49.168,44.326L48.036,45.468L46.729,44.151C45.742,43.163 44.147,43.163 43.169,44.151L36.223,51.097C36.172,51.148 36.172,51.231 36.223,51.292C37.149,52.219 38.662,52.219 39.598,51.292L44.075,46.816C44.558,46.333 45.34,46.333 45.824,46.816L46.153,47.146C46.215,47.207 46.215,47.3 46.153,47.362L42.418,51.097C42.366,51.148 42.366,51.231 42.418,51.292C43.344,52.219 44.857,52.219 45.793,51.292L50.084,47.001C50.568,46.518 51.35,46.518 51.833,47.001L52.163,47.331C52.214,47.382 52.214,47.465 52.163,47.526L48.561,51.128C48.51,51.179 48.51,51.262 48.561,51.323C49.487,52.249 51,52.249 51.936,51.323L56.083,47.176C56.567,46.693 57.349,46.693 57.833,47.176L58.543,47.886C58.82,48.164 58.82,48.627 58.543,48.905L58.429,49.018C58.152,49.296 57.689,49.296 57.411,49.018L56.495,48.103C56.443,48.051 56.361,48.051 56.299,48.103L54.715,49.687C54.663,49.739 54.663,49.821 54.715,49.883L56.145,51.313C57.133,52.301 58.728,52.301 59.705,51.313L60.837,50.181L60.827,50.15Z" transform="rotate(0 48.876 47.732)" fill="#7DDACF"/>
<path d="M48.881,11.274C28.136,11.274 11.322,28.088 11.322,48.833C11.322,69.578 28.136,86.392 48.881,86.392C69.626,86.392 86.441,69.578 86.441,48.833C86.441,28.088 69.626,11.274 48.881,11.274ZM50.415,22.871C56.445,23.221 61.919,25.629 66.159,29.395L60.736,34.818C57.906,32.42 54.335,30.867 50.415,30.537L50.415,22.871ZM47.359,22.871L47.359,30.537C43.438,30.856 39.867,32.42 37.037,34.818L31.615,29.395C35.854,25.629 41.328,23.221 47.359,22.871ZM29.454,31.556L34.876,36.979C32.479,39.809 30.925,43.379 30.596,47.3L22.93,47.3C23.28,41.27 25.687,35.796 29.454,31.556ZM22.93,50.356L30.596,50.356C30.915,54.277 32.479,57.847 34.876,60.677L29.454,66.1C25.687,61.861 23.28,56.386 22.93,50.356ZM47.359,74.785C41.328,74.435 35.854,72.027 31.615,68.261L37.037,62.838C39.867,65.236 43.438,66.79 47.359,67.119L47.359,74.785ZM33.096,48.823C33.096,40.107 40.166,33.038 48.881,33.038C57.597,33.038 64.667,40.107 64.667,48.823C64.667,57.539 57.597,64.608 48.881,64.608C40.166,64.608 33.096,57.539 33.096,48.823ZM50.415,74.785L50.415,67.119C54.335,66.8 57.906,65.236 60.736,62.838L66.159,68.261C61.919,72.027 56.445,74.435 50.415,74.785ZM68.32,66.1L62.897,60.677C65.294,57.847 66.848,54.277 67.177,50.356L74.844,50.356C74.494,56.386 72.086,61.861 68.32,66.1ZM67.177,47.3C66.858,43.379 65.294,39.809 62.897,36.979L68.32,31.556C72.086,35.796 74.494,41.27 74.844,47.3L67.177,47.3Z" transform="rotate(0 48.882 48.833)" fill="#7DDACF"/>
</svg>
