<svg width="100" height="98" viewBox="0 0 100 98" fill="none" xmlns="http://www.w3.org/2000/svg" xmlns:xlink="http://www.w3.org/1999/xlink">
<path d="M49.601,97.32C22.589,97.32 0.62,75.34 0.62,48.338C0.62,21.337 22.6,-0.643 49.601,-0.643C76.603,-0.643 98.582,21.337 98.582,48.338C98.582,75.34 76.603,97.32 49.601,97.32ZM49.601,2.619C24.39,2.619 3.882,23.127 3.882,48.338C3.882,73.549 24.39,94.058 49.601,94.058C74.812,94.058 95.32,73.549 95.32,48.338C95.32,23.127 74.812,2.619 49.601,2.619Z" transform="rotate(0 49.601 48.338)" fill="#FFFFFF"/>
<path d="M86.194,20.35L64.749,20.35L64.749,24.569L86.194,24.569L86.194,20.35Z" transform="rotate(-90 75.471 22.46)" fill="#FFFFFF"/>
<path d="M33.998,72.548L12.553,72.548L12.553,76.767L33.998,76.767L33.998,72.548Z" transform="rotate(-90 23.275 74.658)" fill="#FFFFFF"/>
<path d="M78.04,63.933L73.821,63.933L73.821,85.378L78.04,85.378L78.04,63.933Z" transform="rotate(-90 75.931 74.655)" fill="#FFFFFF"/>
<path d="M25.393,11.28L21.174,11.28L21.174,32.714L25.393,32.714L25.393,11.28Z" transform="rotate(-90 23.283 21.997)" fill="#FFFFFF"/>
<path d="M61.56,49.655C62.547,48.667 62.547,47.072 61.56,46.095L59.46,44.006C58.472,43.018 56.877,43.018 55.9,44.006L54.768,45.138L53.461,43.831C52.473,42.843 50.878,42.843 49.901,43.831L48.769,44.973L47.462,43.656C46.474,42.668 44.879,42.668 43.901,43.656L36.956,50.602C36.904,50.653 36.904,50.736 36.956,50.797C37.882,51.723 39.394,51.723 40.331,50.797L44.807,46.321C45.291,45.837 46.073,45.837 46.556,46.321L46.886,46.65C46.947,46.712 46.947,46.805 46.886,46.866L43.15,50.602C43.099,50.653 43.099,50.736 43.15,50.797C44.076,51.723 45.589,51.723 46.525,50.797L50.817,46.506C51.3,46.023 52.082,46.023 52.566,46.506L52.895,46.836C52.947,46.887 52.947,46.969 52.895,47.031L49.294,50.633C49.242,50.684 49.242,50.766 49.294,50.828C50.22,51.754 51.732,51.754 52.669,50.828L56.816,46.681C57.299,46.198 58.081,46.198 58.565,46.681L59.275,47.391C59.553,47.669 59.553,48.132 59.275,48.41L59.162,48.523C58.884,48.801 58.421,48.801 58.143,48.523L57.227,47.607C57.176,47.556 57.094,47.556 57.032,47.607L55.447,49.192C55.396,49.244 55.396,49.326 55.447,49.388L56.877,50.818C57.865,51.806 59.46,51.806 60.438,50.818L61.57,49.686L61.56,49.655Z" transform="rotate(0 49.609 47.237)" fill="#FFFFFF"/>
<path d="M49.602,10.769C28.857,10.769 12.043,27.583 12.043,48.328C12.043,69.073 28.857,85.887 49.602,85.887C70.347,85.887 87.161,69.073 87.161,48.328C87.161,27.583 70.347,10.769 49.602,10.769ZM51.135,22.366C57.166,22.715 62.64,25.123 66.879,28.89L61.457,34.313C58.627,31.915 55.056,30.361 51.135,30.032L51.135,22.366ZM48.079,22.366L48.079,30.032C44.159,30.351 40.588,31.915 37.758,34.313L32.335,28.89C36.575,25.123 42.049,22.715 48.079,22.366ZM30.174,31.051L35.597,36.474C33.2,39.303 31.646,42.874 31.317,46.795L23.65,46.795C24,40.765 26.408,35.29 30.174,31.051ZM23.65,49.851L31.317,49.851C31.635,53.771 33.2,57.342 35.597,60.172L30.174,65.595C26.408,61.355 24,55.881 23.65,49.851ZM48.079,74.28C42.049,73.93 36.575,71.522 32.335,67.756L37.758,62.333C40.588,64.73 44.159,66.284 48.079,66.614L48.079,74.28ZM33.817,48.318C33.817,39.602 40.886,32.532 49.602,32.532C58.318,32.532 65.387,39.602 65.387,48.318C65.387,57.033 58.318,64.103 49.602,64.103C40.886,64.103 33.817,57.033 33.817,48.318ZM51.135,74.28L51.135,66.614C55.056,66.295 58.627,64.73 61.457,62.333L66.879,67.756C62.64,71.522 57.166,73.93 51.135,74.28ZM69.04,65.595L63.617,60.172C66.015,57.342 67.569,53.771 67.898,49.851L75.564,49.851C75.215,55.881 72.807,61.355 69.04,65.595ZM67.898,46.795C67.579,42.874 66.015,39.303 63.617,36.474L69.04,31.051C72.807,35.29 75.215,40.765 75.564,46.795L67.898,46.795Z" transform="rotate(0 49.602 48.328)" fill="#FFFFFF"/>
</svg>
