<svg width="100" height="100" viewBox="0 0 100 100" fill="none" xmlns="http://www.w3.org/2000/svg" xmlns:xlink="http://www.w3.org/1999/xlink">
<path d="M49.472,98.331C22.46,98.331 0.49,76.351 0.49,49.35C0.49,22.348 22.47,0.368 49.472,0.368C76.473,0.368 98.453,22.348 98.453,49.35C98.453,76.351 76.473,98.331 49.472,98.331ZM49.472,3.63C24.261,3.63 3.752,24.139 3.752,49.35C3.752,74.561 24.261,95.069 49.472,95.069C74.683,95.069 95.191,74.561 95.191,49.35C95.191,24.139 74.683,3.63 49.472,3.63Z" transform="rotate(0 49.472 49.35)" fill="#FFFFFF"/>
<path d="M86.064,21.362L64.62,21.362L64.62,25.581L86.064,25.581L86.064,21.362Z" transform="rotate(-90 75.342 23.471)" fill="#FFFFFF"/>
<path d="M33.868,73.56L12.423,73.56L12.423,77.779L33.868,77.779L33.868,73.56Z" transform="rotate(-90 23.146 75.669)" fill="#FFFFFF"/>
<path d="M77.911,64.945L73.692,64.945L73.692,86.389L77.911,86.389L77.911,64.945Z" transform="rotate(-90 75.802 75.667)" fill="#FFFFFF"/>
<path d="M25.263,12.29L21.044,12.29L21.044,33.725L25.263,33.725L25.263,12.29Z" transform="rotate(-90 23.153 23.008)" fill="#FFFFFF"/>
<path d="M61.43,50.667C62.418,49.679 62.418,48.084 61.43,47.106L59.33,45.018C58.343,44.03 56.748,44.03 55.77,45.018L54.638,46.149L53.331,44.843C52.343,43.855 50.748,43.855 49.771,44.843L48.639,45.985L47.332,44.668C46.344,43.68 44.749,43.68 43.772,44.668L36.826,51.614C36.774,51.665 36.774,51.747 36.826,51.809C37.752,52.735 39.265,52.735 40.201,51.809L44.677,47.333C45.161,46.849 45.943,46.849 46.426,47.333L46.756,47.662C46.818,47.724 46.818,47.816 46.756,47.878L43.02,51.614C42.969,51.665 42.969,51.747 43.02,51.809C43.947,52.735 45.459,52.735 46.396,51.809L50.687,47.518C51.17,47.034 51.952,47.034 52.436,47.518L52.765,47.847C52.817,47.899 52.817,47.981 52.765,48.043L49.164,51.644C49.112,51.696 49.112,51.778 49.164,51.84C50.09,52.766 51.602,52.766 52.539,51.84L56.686,47.693C57.17,47.209 57.952,47.209 58.435,47.693L59.145,48.403C59.423,48.681 59.423,49.144 59.145,49.422L59.032,49.535C58.754,49.813 58.291,49.813 58.013,49.535L57.098,48.619C57.046,48.568 56.964,48.568 56.902,48.619L55.317,50.204C55.266,50.255 55.266,50.338 55.317,50.399L56.748,51.83C57.736,52.817 59.33,52.817 60.308,51.83L61.44,50.698L61.43,50.667Z" transform="rotate(0 49.479 48.249)" fill="#FFFFFF"/>
<path d="M49.473,11.78C28.728,11.78 11.914,28.594 11.914,49.339C11.914,70.084 28.728,86.898 49.473,86.898C70.218,86.898 87.032,70.084 87.032,49.339C87.032,28.594 70.218,11.78 49.473,11.78ZM51.006,23.377C57.036,23.727 62.511,26.135 66.75,29.901L61.327,35.324C58.497,32.926 54.927,31.372 51.006,31.043L51.006,23.377ZM47.95,23.377L47.95,31.043C44.029,31.362 40.459,32.926 37.629,35.324L32.206,29.901C36.445,26.135 41.92,23.727 47.95,23.377ZM30.045,32.062L35.468,37.485C33.07,40.315 31.516,43.885 31.187,47.806L23.521,47.806C23.871,41.776 26.279,36.301 30.045,32.062ZM23.521,50.862L31.187,50.862C31.506,54.783 33.07,58.353 35.468,61.183L30.045,66.606C26.279,62.366 23.871,56.892 23.521,50.862ZM47.95,75.291C41.92,74.941 36.445,72.533 32.206,68.767L37.629,63.344C40.459,65.742 44.029,67.295 47.95,67.625L47.95,75.291ZM33.688,49.329C33.688,40.613 40.757,33.544 49.473,33.544C58.189,33.544 65.258,40.613 65.258,49.329C65.258,58.045 58.189,65.114 49.473,65.114C40.757,65.114 33.688,58.045 33.688,49.329ZM51.006,75.291L51.006,67.625C54.927,67.306 58.497,65.742 61.327,63.344L66.75,68.767C62.511,72.533 57.036,74.941 51.006,75.291ZM68.911,66.606L63.488,61.183C65.886,58.353 67.44,54.783 67.769,50.862L75.435,50.862C75.085,56.892 72.677,62.366 68.911,66.606ZM67.769,47.806C67.45,43.885 65.886,40.315 63.488,37.485L68.911,32.062C72.677,36.301 75.085,41.776 75.435,47.806L67.769,47.806Z" transform="rotate(0 49.473 49.339)" fill="#FFFFFF"/>
</svg>
