<svg width="100" height="100" viewBox="0 0 100 100" fill="none" xmlns="http://www.w3.org/2000/svg" xmlns:xlink="http://www.w3.org/1999/xlink">
<path d="M49.779,98.81C22.767,98.81 0.797,76.83 0.797,49.829C0.797,22.827 22.777,0.847 49.779,0.847C76.78,0.847 98.76,22.827 98.76,49.829C98.76,76.83 76.78,98.81 49.779,98.81ZM49.779,4.109C24.568,4.109 4.059,24.618 4.059,49.829C4.059,75.04 24.568,95.548 49.779,95.548C74.99,95.548 95.498,75.04 95.498,49.829C95.498,24.618 74.99,4.109 49.779,4.109Z" transform="rotate(0 49.779 49.829)" fill="#478BF9"/>
<path d="M86.364,21.848L64.919,21.848L64.919,26.067L86.364,26.067L86.364,21.848Z" transform="rotate(-90 75.642 23.957)" fill="#478BF9"/>
<path d="M34.172,74.039L12.727,74.039L12.727,78.258L34.172,78.258L34.172,74.039Z" transform="rotate(-90 23.449 76.148)" fill="#478BF9"/>
<path d="M78.211,65.441L73.992,65.441L73.992,86.885L78.211,86.885L78.211,65.441Z" transform="rotate(-90 76.101 76.163)" fill="#478BF9"/>
<path d="M25.551,12.78L21.332,12.78L21.332,34.215L25.551,34.215L25.551,12.78Z" transform="rotate(-90 23.442 23.497)" fill="#478BF9"/>
<path d="M61.726,51.145C62.713,50.158 62.713,48.563 61.726,47.585L59.626,45.496C58.638,44.508 57.043,44.508 56.066,45.496L54.934,46.628L53.627,45.321C52.639,44.333 51.044,44.333 50.067,45.321L48.935,46.463L47.628,45.146C46.64,44.158 45.045,44.158 44.067,45.146L37.122,52.092C37.07,52.144 37.07,52.226 37.122,52.288C38.048,53.214 39.56,53.214 40.497,52.288L44.973,47.811C45.457,47.328 46.239,47.328 46.722,47.811L47.052,48.141C47.113,48.202 47.113,48.295 47.052,48.357L43.316,52.092C43.265,52.144 43.265,52.226 43.316,52.288C44.242,53.214 45.755,53.214 46.692,52.288L50.983,47.997C51.466,47.513 52.248,47.513 52.732,47.997L53.061,48.326C53.113,48.377 53.113,48.46 53.061,48.521L49.46,52.123C49.408,52.174 49.408,52.257 49.46,52.318C50.386,53.245 51.898,53.245 52.835,52.318L56.982,48.171C57.465,47.688 58.247,47.688 58.731,48.171L59.441,48.882C59.719,49.159 59.719,49.622 59.441,49.9L59.328,50.013C59.05,50.291 58.587,50.291 58.309,50.013L57.393,49.098C57.342,49.046 57.26,49.046 57.198,49.098L55.613,50.682C55.562,50.734 55.562,50.816 55.613,50.878L57.043,52.308C58.031,53.296 59.626,53.296 60.604,52.308L61.736,51.176L61.726,51.145Z" transform="rotate(0 49.775 48.727)" fill="#478BF9"/>
<path d="M49.78,12.269C29.035,12.269 12.221,29.083 12.221,49.828C12.221,70.573 29.035,87.387 49.78,87.387C70.525,87.387 87.339,70.573 87.339,49.828C87.339,29.083 70.525,12.269 49.78,12.269ZM51.313,23.866C57.343,24.216 62.818,26.624 67.057,30.39L61.634,35.813C58.805,33.415 55.234,31.862 51.313,31.532L51.313,23.866ZM48.257,23.866L48.257,31.532C44.336,31.851 40.766,33.415 37.936,35.813L32.513,30.39C36.753,26.624 42.227,24.216 48.257,23.866ZM30.352,32.551L35.775,37.974C33.377,40.804 31.824,44.374 31.494,48.295L23.828,48.295C24.178,42.265 26.586,36.791 30.352,32.551ZM23.828,51.351L31.494,51.351C31.813,55.272 33.377,58.842 35.775,61.672L30.352,67.095C26.586,62.856 24.178,57.381 23.828,51.351ZM48.257,75.78C42.227,75.43 36.753,73.022 32.513,69.256L37.936,63.833C40.766,66.231 44.336,67.785 48.257,68.114L48.257,75.78ZM33.995,49.818C33.995,41.102 41.064,34.033 49.78,34.033C58.496,34.033 65.565,41.102 65.565,49.818C65.565,58.534 58.496,65.603 49.78,65.603C41.064,65.603 33.995,58.534 33.995,49.818ZM51.313,75.78L51.313,68.114C55.234,67.795 58.805,66.231 61.634,63.833L67.057,69.256C62.818,73.022 57.343,75.43 51.313,75.78ZM69.218,67.095L63.795,61.672C66.193,58.842 67.747,55.272 68.076,51.351L75.742,51.351C75.392,57.381 72.984,62.856 69.218,67.095ZM68.076,48.295C67.757,44.374 66.193,40.804 63.795,37.974L69.218,32.551C72.984,36.791 75.392,42.265 75.742,48.295L68.076,48.295Z" transform="rotate(0 49.78 49.828)" fill="#478BF9"/>
</svg>
