<svg width="98" height="98" viewBox="0 0 98 98" fill="none" xmlns="http://www.w3.org/2000/svg" xmlns:xlink="http://www.w3.org/1999/xlink">
<path d="M48.683,97.234C36.129,97.234 23.586,92.46 14.026,82.9C-5.083,63.791 -5.083,32.705 14.026,13.596C23.287,4.334 35.594,-0.759 48.683,-0.759C61.773,-0.759 74.08,4.334 83.341,13.596C102.45,32.705 102.45,63.791 83.341,82.9C73.792,92.449 61.238,97.234 48.683,97.234ZM16.599,80.328C34.287,98.016 63.069,98.016 80.758,80.328C98.447,62.639 98.447,33.857 80.758,16.168C72.186,7.596 60.795,2.884 48.673,2.884C36.551,2.884 25.16,7.607 16.588,16.168C-1.101,33.857 -1.101,62.639 16.588,80.328L16.599,80.328Z" transform="rotate(0 48.683 48.238)" fill="#9DADF2"/>
<path d="M48.035,66.59C48.21,67.012 48.622,67.259 49.054,67.259C49.198,67.259 49.342,67.228 49.486,67.177C52.943,65.726 56.092,63.483 58.582,60.684C58.984,60.231 58.943,59.531 58.49,59.13C58.037,58.729 57.337,58.77 56.936,59.223C54.662,61.785 51.791,63.833 48.632,65.15C48.076,65.386 47.809,66.035 48.045,66.59L48.035,66.59Z" transform="rotate(0 53.409 63.057)" fill="#9DADF2"/>
<path d="M67.359,31.305L49.084,23.999C48.816,23.896 48.528,23.896 48.26,23.999L29.985,31.305C29.563,31.469 29.295,31.871 29.295,32.323L29.295,45.412C29.316,57.493 36.951,68.411 48.291,72.568C48.415,72.61 48.538,72.63 48.672,72.63C48.806,72.63 48.929,72.61 49.053,72.568C60.392,68.401 68.028,57.493 68.048,45.412L68.048,32.323C68.048,31.871 67.781,31.469 67.359,31.305ZM65.846,45.412C65.826,56.402 58.931,66.415 48.682,70.356C38.433,66.415 31.528,56.402 31.508,45.412L31.508,33.075L48.682,26.211L65.846,33.075L65.846,45.412Z" transform="rotate(0 48.672 48.276)" fill="#9DADF2"/>
<path d="M41.047,33.023C40.78,32.91 40.481,32.91 40.203,33.023L35.851,34.762C35.429,34.927 35.161,35.328 35.161,35.781L35.161,40.422C35.161,41.029 35.655,41.523 36.262,41.523C36.869,41.523 37.363,41.029 37.363,40.422L37.363,36.532L41.016,35.071C41.294,34.958 41.5,34.752 41.623,34.474C41.737,34.207 41.737,33.908 41.623,33.63C41.51,33.353 41.304,33.147 41.037,33.023L41.047,33.023Z" transform="rotate(0 38.435 37.231)" fill="#9DADF2"/>
<path d="M76.507,20.418C69.077,12.978 59.188,8.893 48.672,8.893C38.155,8.893 28.276,12.988 20.837,20.418C5.494,35.76 5.494,60.735 20.837,76.088C28.513,83.764 38.587,87.592 48.672,87.592C58.756,87.592 68.83,83.754 76.507,76.088C91.849,60.745 91.849,35.771 76.507,20.418ZM71.063,45.413C71.094,59.376 62.172,71.591 48.867,75.82C48.744,75.861 48.61,75.861 48.476,75.82C35.171,71.591 26.249,59.376 26.28,45.413L26.28,29.967C26.28,29.71 26.434,29.473 26.681,29.37L48.435,20.675C48.507,20.644 48.589,20.634 48.672,20.634C48.754,20.634 48.836,20.644 48.908,20.675L70.662,29.38C70.909,29.473 71.063,29.71 71.063,29.977L71.063,45.423L71.063,45.413Z" transform="rotate(0 48.672 48.242)" fill="#9DADF2"/>
</svg>
