<svg width="100" height="98" viewBox="0 0 100 98" fill="none" xmlns="http://www.w3.org/2000/svg" xmlns:xlink="http://www.w3.org/1999/xlink">
<path d="M49.906,97.234C37.352,97.234 24.808,92.46 15.249,82.9C-3.86,63.791 -3.86,32.705 15.249,13.596C24.51,4.334 36.817,-0.759 49.906,-0.759C62.995,-0.759 75.302,4.334 84.563,13.596C103.672,32.705 103.672,63.791 84.563,82.9C75.014,92.45 62.46,97.234 49.906,97.234ZM17.821,80.328C35.51,98.017 64.292,98.017 81.981,80.328C99.67,62.639 99.67,33.857 81.981,16.168C73.409,7.596 62.018,2.884 49.896,2.884C37.774,2.884 26.383,7.607 17.811,16.168C0.122,33.857 0.122,62.639 17.811,80.328L17.821,80.328Z" transform="rotate(0 49.906 48.238)" fill="#9DADF2"/>
<path d="M49.258,66.58C49.433,67.002 49.844,67.248 50.276,67.248C50.42,67.248 50.565,67.218 50.709,67.166C54.166,65.715 57.315,63.472 59.805,60.673C60.206,60.22 60.165,59.521 59.713,59.119C59.26,58.718 58.56,58.759 58.159,59.212C55.885,61.774 53.014,63.822 49.855,65.139C49.299,65.376 49.031,66.024 49.268,66.58L49.258,66.58Z" transform="rotate(0 54.631 63.046)" fill="#9DADF2"/>
<path d="M68.582,31.305L50.306,23.999C50.039,23.896 49.751,23.896 49.483,23.999L31.208,31.305C30.786,31.469 30.518,31.871 30.518,32.323L30.518,45.412C30.539,57.493 38.174,68.411 49.514,72.568C49.637,72.61 49.761,72.63 49.895,72.63C50.028,72.63 50.152,72.61 50.275,72.568C61.615,68.401 69.25,57.493 69.271,45.412L69.271,32.323C69.271,31.871 69.003,31.469 68.582,31.305ZM67.069,45.412C67.048,56.402 60.154,66.415 49.905,70.356C39.656,66.415 32.751,56.402 32.73,45.412L32.73,33.075L49.905,26.211L67.069,33.075L67.069,45.412Z" transform="rotate(0 49.895 48.276)" fill="#9DADF2"/>
<path d="M42.27,33.023C42.002,32.91 41.704,32.91 41.426,33.023L37.073,34.762C36.651,34.927 36.384,35.328 36.384,35.781L36.384,40.422C36.384,41.029 36.878,41.523 37.485,41.523C38.092,41.523 38.586,41.029 38.586,40.422L38.586,36.532L42.239,35.071C42.517,34.958 42.723,34.752 42.846,34.474C42.959,34.207 42.959,33.908 42.846,33.631C42.733,33.353 42.527,33.147 42.26,33.023L42.27,33.023Z" transform="rotate(0 39.657 37.231)" fill="#9DADF2"/>
<path d="M77.729,20.418C70.3,12.978 60.411,8.893 49.894,8.893C39.378,8.893 29.499,12.988 22.059,20.418C6.717,35.76 6.717,60.735 22.059,76.088C29.736,83.764 39.81,87.592 49.894,87.592C59.979,87.592 70.053,83.754 77.729,76.088C93.072,60.745 93.072,35.771 77.729,20.418ZM72.286,45.413C72.317,59.376 63.395,71.591 50.09,75.82C49.966,75.861 49.832,75.861 49.699,75.82C36.393,71.591 27.472,59.376 27.503,45.413L27.503,29.967C27.503,29.71 27.657,29.473 27.904,29.37L49.658,20.675C49.73,20.644 49.812,20.634 49.894,20.634C49.977,20.634 50.059,20.644 50.131,20.675L71.884,29.38C72.131,29.473 72.286,29.71 72.286,29.977L72.286,45.423L72.286,45.413Z" transform="rotate(0 49.894 48.242)" fill="#9DADF2"/>
</svg>
