<svg width="98" height="98" viewBox="0 0 98 98" fill="none" xmlns="http://www.w3.org/2000/svg" xmlns:xlink="http://www.w3.org/1999/xlink">
<path d="M48.034,97.831C35.48,97.831 22.937,93.056 13.377,83.496C-5.732,64.388 -5.732,33.301 13.377,14.192C22.638,4.931 34.945,-0.163 48.034,-0.163C61.124,-0.163 73.431,4.931 82.692,14.192C101.801,33.301 101.801,64.388 82.692,83.496C73.143,93.046 60.589,97.831 48.034,97.831ZM15.95,80.924C33.638,98.613 62.42,98.613 80.109,80.924C97.798,63.235 97.798,34.453 80.109,16.764C71.537,8.193 60.146,3.48 48.024,3.48C35.902,3.48 24.511,8.203 15.939,16.764C-1.75,34.453 -1.75,63.235 15.939,80.924L15.95,80.924Z" transform="rotate(0 48.035 48.834)" fill="#9DADF2"/>
<path d="M47.387,67.176C47.562,67.598 47.973,67.845 48.405,67.845C48.549,67.845 48.693,67.814 48.838,67.762C52.295,66.311 55.444,64.068 57.934,61.269C58.335,60.816 58.294,60.117 57.841,59.715C57.389,59.314 56.689,59.355 56.288,59.808C54.014,62.37 51.143,64.418 47.983,65.735C47.428,65.972 47.16,66.62 47.397,67.176L47.387,67.176Z" transform="rotate(0 52.76 63.642)" fill="#9DADF2"/>
<path d="M66.709,31.901L48.434,24.595C48.166,24.492 47.878,24.492 47.611,24.595L29.335,31.901C28.914,32.065 28.646,32.467 28.646,32.92L28.646,46.009C28.667,58.089 36.302,69.007 47.642,73.165C47.765,73.206 47.889,73.226 48.022,73.226C48.156,73.226 48.28,73.206 48.403,73.165C59.743,68.997 67.378,58.089 67.399,46.009L67.399,32.92C67.399,32.467 67.131,32.065 66.709,31.901ZM65.197,46.009C65.176,56.999 58.282,67.011 48.033,70.952C37.784,67.011 30.879,56.999 30.858,46.009L30.858,33.671L48.033,26.807L65.197,33.671L65.197,46.009Z" transform="rotate(0 48.022 48.872)" fill="#9DADF2"/>
<path d="M40.398,33.619C40.131,33.506 39.832,33.506 39.554,33.619L35.202,35.358C34.78,35.523 34.512,35.924 34.512,36.377L34.512,41.018C34.512,41.625 35.006,42.119 35.613,42.119C36.22,42.119 36.714,41.625 36.714,41.018L36.714,37.128L40.367,35.667C40.645,35.554 40.851,35.348 40.974,35.07C41.088,34.802 41.088,34.504 40.974,34.226C40.861,33.948 40.655,33.743 40.388,33.619L40.398,33.619Z" transform="rotate(0 37.786 37.826)" fill="#9DADF2"/>
<path d="M75.869,21.014C68.44,13.574 58.551,9.489 48.034,9.489C37.518,9.489 27.639,13.584 20.199,21.014C4.857,36.357 4.857,61.331 20.199,76.684C27.876,84.36 37.95,88.188 48.034,88.188C58.119,88.188 68.193,84.35 75.869,76.684C91.212,61.341 91.212,36.367 75.869,21.014ZM70.426,46.009C70.457,59.973 61.535,72.187 48.23,76.416C48.106,76.457 47.973,76.457 47.839,76.416C34.534,72.187 25.612,59.973 25.643,46.009L25.643,30.563C25.643,30.306 25.797,30.069 26.044,29.966L47.798,21.271C47.87,21.24 47.952,21.23 48.034,21.23C48.117,21.23 48.199,21.24 48.271,21.271L70.025,29.977C70.272,30.069 70.426,30.306 70.426,30.573L70.426,46.019L70.426,46.009Z" transform="rotate(0 48.034 48.839)" fill="#9DADF2"/>
</svg>
