<svg width="100" height="98" viewBox="0 0 100 98" fill="none" xmlns="http://www.w3.org/2000/svg" xmlns:xlink="http://www.w3.org/1999/xlink">
<path d="M49.906,97.831C37.352,97.831 24.808,93.056 15.248,83.496C-3.861,64.388 -3.861,33.301 15.248,14.192C24.509,4.931 36.817,-0.163 49.906,-0.163C62.995,-0.163 75.302,4.931 84.563,14.192C103.672,33.301 103.672,64.388 84.563,83.496C75.014,93.046 62.46,97.831 49.906,97.831ZM17.821,80.924C35.51,98.613 64.291,98.613 81.98,80.924C99.669,63.235 99.669,34.453 81.98,16.764C73.409,8.193 62.017,3.48 49.895,3.48C37.774,3.48 26.382,8.203 17.81,16.764C0.122,34.453 0.122,63.235 17.81,80.924L17.821,80.924Z" transform="rotate(0 49.906 48.834)" fill="#9DADF2"/>
<path d="M49.258,67.176C49.433,67.598 49.844,67.845 50.276,67.845C50.421,67.845 50.565,67.814 50.709,67.762C54.166,66.311 57.315,64.068 59.805,61.269C60.207,60.816 60.165,60.117 59.713,59.715C59.26,59.314 58.56,59.355 58.159,59.808C55.885,62.37 53.014,64.418 49.855,65.735C49.299,65.972 49.031,66.62 49.268,67.176L49.258,67.176Z" transform="rotate(0 54.631 63.642)" fill="#9DADF2"/>
<path d="M68.581,31.901L50.306,24.595C50.038,24.492 49.75,24.492 49.482,24.595L31.207,31.901C30.785,32.066 30.518,32.467 30.518,32.92L30.518,46.009C30.538,58.09 38.174,69.008 49.513,73.165C49.637,73.206 49.76,73.227 49.894,73.227C50.028,73.227 50.151,73.206 50.275,73.165C61.615,68.997 69.25,58.09 69.27,46.009L69.27,32.92C69.27,32.467 69.003,32.066 68.581,31.901ZM67.068,46.009C67.048,56.999 60.153,67.011 49.904,70.953C39.655,67.011 32.751,56.999 32.73,46.009L32.73,33.671L49.904,26.808L67.068,33.671L67.068,46.009Z" transform="rotate(0 49.894 48.872)" fill="#9DADF2"/>
<path d="M42.269,33.62C42.002,33.506 41.703,33.506 41.425,33.62L37.073,35.359C36.651,35.523 36.383,35.925 36.383,36.377L36.383,41.018C36.383,41.625 36.877,42.119 37.484,42.119C38.091,42.119 38.585,41.625 38.585,41.018L38.585,37.129L42.238,35.667C42.516,35.554 42.722,35.348 42.846,35.071C42.959,34.803 42.959,34.505 42.846,34.227C42.732,33.949 42.527,33.743 42.259,33.62L42.269,33.62Z" transform="rotate(0 39.657 37.827)" fill="#9DADF2"/>
<path d="M77.74,21.014C70.311,13.574 60.422,9.489 49.905,9.489C39.389,9.489 29.51,13.584 22.07,21.014C6.728,36.357 6.728,61.331 22.07,76.684C29.747,84.36 39.821,88.188 49.905,88.188C59.99,88.188 70.064,84.35 77.74,76.684C93.083,61.341 93.083,36.367 77.74,21.014ZM72.297,46.009C72.328,59.973 63.406,72.187 50.101,76.416C49.977,76.457 49.844,76.457 49.71,76.416C36.405,72.187 27.483,59.973 27.514,46.009L27.514,30.563C27.514,30.306 27.668,30.069 27.915,29.966L49.669,21.271C49.741,21.24 49.823,21.23 49.905,21.23C49.988,21.23 50.07,21.24 50.142,21.271L71.896,29.977C72.143,30.069 72.297,30.306 72.297,30.573L72.297,46.019L72.297,46.009Z" transform="rotate(0 49.906 48.839)" fill="#9DADF2"/>
</svg>
