<svg width="98" height="98" viewBox="0 0 98 98" fill="none" xmlns="http://www.w3.org/2000/svg" xmlns:xlink="http://www.w3.org/1999/xlink">
<path d="M48.813,97.234C36.259,97.234 23.715,92.46 14.155,82.9C-4.953,63.791 -4.953,32.705 14.155,13.596C23.417,4.334 35.724,-0.759 48.813,-0.759C61.902,-0.759 74.209,4.334 83.47,13.596C102.579,32.705 102.579,63.791 83.47,82.9C73.921,92.449 61.367,97.234 48.813,97.234ZM16.728,80.328C34.417,98.016 63.199,98.016 80.887,80.328C98.576,62.639 98.576,33.857 80.887,16.168C72.316,7.596 60.924,2.884 48.803,2.884C36.681,2.884 25.289,7.607 16.718,16.168C-0.971,33.857 -0.971,62.639 16.718,80.328L16.728,80.328Z" transform="rotate(0 48.813 48.238)" fill="#9DADF2"/>
<path d="M48.165,66.59C48.34,67.012 48.751,67.259 49.184,67.259C49.328,67.259 49.472,67.228 49.616,67.177C53.073,65.726 56.222,63.483 58.712,60.684C59.114,60.231 59.073,59.531 58.62,59.13C58.167,58.729 57.467,58.77 57.066,59.223C54.792,61.785 51.921,63.833 48.762,65.15C48.206,65.386 47.939,66.035 48.175,66.59L48.165,66.59Z" transform="rotate(0 53.539 63.057)" fill="#9DADF2"/>
<path d="M67.488,31.305L49.213,23.999C48.945,23.896 48.657,23.896 48.39,23.999L30.114,31.305C29.692,31.469 29.425,31.871 29.425,32.323L29.425,45.412C29.445,57.493 37.081,68.411 48.421,72.568C48.544,72.61 48.668,72.63 48.801,72.63C48.935,72.63 49.059,72.61 49.182,72.568C60.522,68.401 68.157,57.493 68.178,45.412L68.178,32.323C68.178,31.871 67.91,31.469 67.488,31.305ZM65.976,45.412C65.955,56.402 59.061,66.415 48.812,70.356C38.563,66.415 31.658,56.402 31.637,45.412L31.637,33.075L48.812,26.211L65.976,33.075L65.976,45.412Z" transform="rotate(0 48.801 48.276)" fill="#9DADF2"/>
<path d="M41.177,33.023C40.909,32.91 40.611,32.91 40.333,33.023L35.98,34.762C35.558,34.927 35.291,35.328 35.291,35.781L35.291,40.422C35.291,41.029 35.784,41.523 36.392,41.523C36.999,41.523 37.493,41.029 37.493,40.422L37.493,36.532L41.146,35.071C41.423,34.958 41.629,34.752 41.753,34.474C41.866,34.207 41.866,33.908 41.753,33.63C41.64,33.353 41.434,33.147 41.166,33.023L41.177,33.023Z" transform="rotate(0 38.564 37.231)" fill="#9DADF2"/>
<path d="M76.636,20.418C69.206,12.978 59.318,8.893 48.801,8.893C38.284,8.893 28.406,12.988 20.966,20.418C5.623,35.76 5.623,60.735 20.966,76.088C28.643,83.764 38.717,87.592 48.801,87.592C58.885,87.592 68.96,83.754 76.636,76.088C91.979,60.745 91.979,35.771 76.636,20.418ZM71.193,45.413C71.223,59.376 62.302,71.591 48.997,75.82C48.873,75.861 48.739,75.861 48.605,75.82C35.3,71.591 26.379,59.376 26.41,45.413L26.41,29.967C26.41,29.71 26.564,29.473 26.811,29.37L48.564,20.675C48.636,20.644 48.719,20.634 48.801,20.634C48.883,20.634 48.966,20.644 49.038,20.675L70.791,29.38C71.038,29.473 71.193,29.71 71.193,29.977L71.193,45.423L71.193,45.413Z" transform="rotate(0 48.801 48.242)" fill="#9DADF2"/>
</svg>
