<svg width="98" height="98" viewBox="0 0 98 98" fill="none" xmlns="http://www.w3.org/2000/svg" xmlns:xlink="http://www.w3.org/1999/xlink">
<path d="M48.989,97.831C36.435,97.831 23.891,93.056 14.332,83.496C-4.777,64.388 -4.777,33.301 14.332,14.192C23.593,4.931 35.9,-0.163 48.989,-0.163C62.078,-0.163 74.385,4.931 83.647,14.192C102.755,33.301 102.755,64.388 83.647,83.496C74.097,93.046 61.543,97.831 48.989,97.831ZM16.904,80.924C34.593,98.613 63.375,98.613 81.064,80.924C98.753,63.235 98.753,34.453 81.064,16.764C72.492,8.193 61.101,3.48 48.979,3.48C36.857,3.48 25.466,8.203 16.894,16.764C-0.795,34.453 -0.795,63.235 16.894,80.924L16.904,80.924Z" transform="rotate(0 48.989 48.834)" fill="#9DADF2"/>
<path d="M48.341,67.176C48.516,67.598 48.927,67.845 49.359,67.845C49.504,67.845 49.648,67.814 49.792,67.762C53.249,66.311 56.398,64.068 58.888,61.269C59.29,60.816 59.248,60.117 58.796,59.715C58.343,59.314 57.643,59.355 57.242,59.808C54.968,62.37 52.097,64.418 48.938,65.735C48.382,65.972 48.114,66.62 48.351,67.176L48.341,67.176Z" transform="rotate(0 53.714 63.642)" fill="#9DADF2"/>
<path d="M67.663,31.901L49.388,24.595C49.121,24.492 48.832,24.492 48.565,24.595L30.29,31.901C29.868,32.066 29.6,32.467 29.6,32.92L29.6,46.009C29.621,58.09 37.256,69.008 48.596,73.165C48.719,73.206 48.843,73.227 48.977,73.227C49.11,73.227 49.234,73.206 49.357,73.165C60.697,68.997 68.332,58.09 68.353,46.009L68.353,32.92C68.353,32.467 68.085,32.066 67.663,31.901ZM66.151,46.009C66.13,56.999 59.236,67.011 48.987,70.953C38.738,67.011 31.833,56.999 31.812,46.009L31.812,33.671L48.987,26.808L66.151,33.671L66.151,46.009Z" transform="rotate(0 48.977 48.872)" fill="#9DADF2"/>
<path d="M41.352,33.62C41.085,33.506 40.786,33.506 40.508,33.62L36.156,35.359C35.734,35.523 35.466,35.925 35.466,36.377L35.466,41.018C35.466,41.625 35.96,42.119 36.567,42.119C37.174,42.119 37.668,41.625 37.668,41.018L37.668,37.129L41.321,35.667C41.599,35.554 41.805,35.348 41.929,35.071C42.042,34.803 42.042,34.505 41.929,34.227C41.815,33.949 41.61,33.743 41.342,33.62L41.352,33.62Z" transform="rotate(0 38.74 37.827)" fill="#9DADF2"/>
<path d="M76.823,21.014C69.394,13.574 59.505,9.489 48.988,9.489C38.472,9.489 28.593,13.584 21.154,21.014C5.811,36.357 5.811,61.331 21.154,76.684C28.83,84.36 38.904,88.188 48.988,88.188C59.073,88.188 69.147,84.35 76.823,76.684C92.166,61.341 92.166,36.367 76.823,21.014ZM71.38,46.009C71.411,59.973 62.489,72.187 49.184,76.416C49.06,76.457 48.927,76.457 48.793,76.416C35.488,72.187 26.566,59.973 26.597,46.009L26.597,30.563C26.597,30.306 26.751,30.069 26.998,29.966L48.752,21.271C48.824,21.24 48.906,21.23 48.988,21.23C49.071,21.23 49.153,21.24 49.225,21.271L70.979,29.977C71.226,30.069 71.38,30.306 71.38,30.573L71.38,46.019L71.38,46.009Z" transform="rotate(0 48.989 48.839)" fill="#9DADF2"/>
</svg>
