<svg width="98" height="98" viewBox="0 0 98 98" fill="none" xmlns="http://www.w3.org/2000/svg" xmlns:xlink="http://www.w3.org/1999/xlink">
<path d="M48.035,97.234C35.481,97.234 22.937,92.46 13.378,82.9C-5.731,63.791 -5.731,32.705 13.378,13.596C22.639,4.334 34.946,-0.759 48.035,-0.759C61.124,-0.759 73.431,4.334 82.692,13.596C101.801,32.705 101.801,63.791 82.692,82.9C73.143,92.45 60.589,97.234 48.035,97.234ZM15.95,80.328C33.639,98.017 62.421,98.017 80.109,80.328C97.798,62.639 97.798,33.857 80.109,16.168C71.538,7.596 60.146,2.884 48.025,2.884C35.903,2.884 24.511,7.607 15.94,16.168C-1.749,33.857 -1.749,62.639 15.94,80.328L15.95,80.328Z" transform="rotate(0 48.035 48.238)" fill="#9DADF2"/>
<path d="M47.387,66.58C47.562,67.002 47.973,67.248 48.405,67.248C48.549,67.248 48.693,67.218 48.838,67.166C52.295,65.715 55.444,63.472 57.934,60.673C58.335,60.22 58.294,59.521 57.841,59.119C57.389,58.718 56.689,58.759 56.288,59.212C54.014,61.774 51.143,63.822 47.983,65.139C47.428,65.376 47.16,66.024 47.397,66.58L47.387,66.58Z" transform="rotate(0 52.76 63.046)" fill="#9DADF2"/>
<path d="M66.71,31.305L48.435,23.999C48.167,23.896 47.879,23.896 47.611,23.999L29.336,31.305C28.914,31.469 28.646,31.871 28.646,32.323L28.646,45.412C28.667,57.493 36.302,68.411 47.642,72.568C47.766,72.61 47.889,72.63 48.023,72.63C48.157,72.63 48.28,72.61 48.404,72.568C59.743,68.401 67.379,57.493 67.399,45.412L67.399,32.323C67.399,31.871 67.132,31.469 66.71,31.305ZM65.197,45.412C65.177,56.402 58.282,66.415 48.033,70.356C37.784,66.415 30.879,56.402 30.859,45.412L30.859,33.075L48.033,26.211L65.197,33.075L65.197,45.412Z" transform="rotate(0 48.023 48.276)" fill="#9DADF2"/>
<path d="M40.399,33.023C40.131,32.91 39.833,32.91 39.555,33.023L35.202,34.762C34.78,34.927 34.513,35.328 34.513,35.781L34.513,40.422C34.513,41.029 35.007,41.523 35.614,41.523C36.221,41.523 36.715,41.029 36.715,40.422L36.715,36.532L40.368,35.071C40.646,34.958 40.851,34.752 40.975,34.474C41.088,34.207 41.088,33.908 40.975,33.631C40.862,33.353 40.656,33.147 40.388,33.023L40.399,33.023Z" transform="rotate(0 37.786 37.231)" fill="#9DADF2"/>
<path d="M75.858,20.418C68.429,12.978 58.54,8.893 48.023,8.893C37.507,8.893 27.628,12.988 20.188,20.418C4.845,35.76 4.845,60.735 20.188,76.088C27.865,83.764 37.939,87.592 48.023,87.592C58.108,87.592 68.182,83.754 75.858,76.088C91.201,60.745 91.201,35.771 75.858,20.418ZM70.415,45.413C70.446,59.376 61.524,71.591 48.219,75.82C48.095,75.861 47.961,75.861 47.828,75.82C34.522,71.591 25.601,59.376 25.632,45.413L25.632,29.967C25.632,29.71 25.786,29.473 26.033,29.37L47.787,20.675C47.859,20.644 47.941,20.634 48.023,20.634C48.106,20.634 48.188,20.644 48.26,20.675L70.013,29.38C70.26,29.473 70.415,29.71 70.415,29.977L70.415,45.423L70.415,45.413Z" transform="rotate(0 48.023 48.242)" fill="#9DADF2"/>
</svg>
