<svg width="98" height="98" viewBox="0 0 98 98" fill="none" xmlns="http://www.w3.org/2000/svg" xmlns:xlink="http://www.w3.org/1999/xlink">
<path d="M48.869,97.075C21.857,97.075 -0.112,75.095 -0.112,48.094C-0.112,21.092 21.868,-0.888 48.869,-0.888C75.871,-0.888 97.85,21.092 97.85,48.094C97.85,75.095 75.871,97.075 48.869,97.075ZM48.869,2.374C23.658,2.374 3.15,22.883 3.15,48.094C3.15,73.305 23.658,93.813 48.869,93.813C74.08,93.813 94.588,73.305 94.588,48.094C94.588,22.883 74.08,2.374 48.869,2.374Z" transform="rotate(0 48.869 48.094)" fill="#FFFFFF"/>
<path d="M64.757,17.501C64.51,17.501 64.263,17.45 64.036,17.336C59.293,14.99 54.189,13.796 48.869,13.796C43.549,13.796 38.445,14.99 33.701,17.336C33.073,17.645 32.322,17.521 31.828,17.028L23.411,8.61C23.051,8.25 22.886,7.756 22.948,7.252C23.01,6.748 23.298,6.305 23.73,6.048C31.314,1.5 40.009,-0.898 48.879,-0.898C57.749,-0.898 66.444,1.51 74.028,6.048C74.46,6.305 74.749,6.748 74.81,7.252C74.872,7.756 74.697,8.25 74.347,8.61L65.93,17.028C65.611,17.336 65.199,17.501 64.767,17.501L64.757,17.501ZM48.869,10.534C54.292,10.534 59.519,11.666 64.417,13.899L70.509,7.808C63.882,4.237 56.442,2.364 48.869,2.364C41.295,2.364 33.855,4.237 27.228,7.808L33.32,13.899C38.218,11.666 43.446,10.534 48.869,10.534Z" transform="rotate(0 48.879 8.303)" fill="#FFFFFF"/>
<path d="M48.867,97.075C39.997,97.075 31.301,94.667 23.718,90.129C23.285,89.872 22.997,89.429 22.936,88.925C22.874,88.421 23.049,87.927 23.399,87.567L31.816,79.149C32.31,78.655 33.071,78.532 33.689,78.841C38.433,81.187 43.537,82.381 48.857,82.381C54.177,82.381 59.281,81.187 64.024,78.841C64.652,78.532 65.403,78.655 65.897,79.149L74.315,87.567C74.675,87.927 74.839,88.421 74.778,88.925C74.716,89.429 74.428,89.872 73.996,90.129C66.412,94.677 57.717,97.075 48.846,97.075L48.867,97.075ZM27.227,88.369C33.853,91.94 41.293,93.813 48.867,93.813C56.441,93.813 63.88,91.94 70.507,88.369L64.415,82.278C59.517,84.511 54.29,85.642 48.867,85.642C43.444,85.642 38.217,84.511 33.318,82.278L27.227,88.369Z" transform="rotate(0 48.857 87.874)" fill="#FFFFFF"/>
<path d="M89.507,74.025C89.075,74.025 88.663,73.861 88.354,73.552L79.937,65.135C79.443,64.641 79.32,63.879 79.628,63.262C81.974,58.518 83.168,53.414 83.168,48.094C83.168,42.774 81.974,37.67 79.628,32.926C79.32,32.298 79.443,31.537 79.937,31.053L88.354,22.636C88.715,22.276 89.208,22.111 89.713,22.173C90.217,22.235 90.659,22.523 90.917,22.955C95.465,30.539 97.862,39.234 97.862,48.104C97.862,56.974 95.465,65.67 90.917,73.253C90.659,73.686 90.217,73.974 89.713,74.036C89.641,74.036 89.579,74.036 89.507,74.036L89.507,74.025ZM83.055,63.632L89.147,69.724C92.717,63.097 94.59,55.657 94.59,48.084C94.59,40.51 92.717,33.07 89.147,26.443L83.055,32.535C85.288,37.433 86.42,42.661 86.42,48.084C86.42,53.507 85.288,58.734 83.055,63.632Z" transform="rotate(0 88.661 48.098)" fill="#FFFFFF"/>
<path d="M8.233,74.025C8.161,74.025 8.099,74.025 8.038,74.014C7.533,73.953 7.091,73.665 6.834,73.232C2.285,65.648 -0.112,56.953 -0.112,48.083C-0.112,39.213 2.285,30.518 6.834,22.934C7.091,22.502 7.533,22.214 8.038,22.152C8.542,22.09 9.036,22.265 9.396,22.615L17.813,31.032C18.307,31.526 18.431,32.288 18.122,32.905C15.776,37.649 14.582,42.753 14.582,48.073C14.582,53.393 15.776,58.497 18.122,63.241C18.431,63.868 18.307,64.63 17.813,65.113L9.396,73.531C9.087,73.84 8.676,74.014 8.243,74.014L8.233,74.025ZM8.593,26.443C5.023,33.07 3.15,40.51 3.15,48.083C3.15,55.657 5.023,63.097 8.593,69.723L14.685,63.632C12.452,58.733 11.32,53.506 11.32,48.083C11.32,42.66 12.452,37.433 14.685,32.535L8.593,26.443Z" transform="rotate(0 9.089 48.082)" fill="#FFFFFF"/>
<path d="M48.87,10.535C28.166,10.535 11.311,27.38 11.311,48.094C11.311,68.808 28.156,85.653 48.87,85.653C69.584,85.653 86.429,68.808 86.429,48.094C86.429,27.38 69.584,10.535 48.87,10.535ZM70.006,35.756C71.787,38.802 72.867,42.126 73.217,45.655C73.227,45.799 73.165,45.933 73.042,46.005C70.356,47.651 67.948,49.668 65.87,52.025C65.777,52.138 65.623,52.179 65.489,52.128L60.848,50.615C60.714,50.574 60.622,50.461 60.601,50.317C60.076,46.478 58.883,42.805 57.051,39.388C56.989,39.265 56.999,39.121 57.082,39.008L59.953,35.056C60.025,34.964 60.138,34.902 60.251,34.902C60.282,34.902 60.303,34.902 60.334,34.902C63.4,35.581 66.549,35.807 69.677,35.55C69.821,35.54 69.955,35.612 70.027,35.735L70.006,35.756ZM58.07,50.965C58.08,51.068 58.049,51.171 57.987,51.243C55.549,54.052 52.441,56.305 49.014,57.746C48.922,57.787 48.829,57.787 48.736,57.746C45.31,56.295 42.202,54.042 39.763,51.243C39.702,51.171 39.671,51.068 39.681,50.965C40.154,47.24 41.317,43.679 43.118,40.386C43.169,40.294 43.252,40.232 43.355,40.212C45.166,39.831 47.018,39.635 48.881,39.635C50.743,39.635 52.595,39.831 54.406,40.212C54.509,40.232 54.592,40.294 54.643,40.386C56.444,43.679 57.596,47.24 58.08,50.965L58.07,50.965ZM57.514,25.425C57.514,25.425 57.638,25.322 57.761,25.322C57.802,25.322 57.854,25.322 57.905,25.353C61.692,26.855 65.077,29.325 67.712,32.484C67.845,32.638 67.794,32.803 67.763,32.864C67.742,32.916 67.65,33.08 67.434,33.08C65.098,33.111 62.772,32.844 60.519,32.309C60.426,32.288 60.344,32.226 60.292,32.144C59.088,30.158 58.121,28.018 57.421,25.795C57.36,25.6 57.473,25.466 57.524,25.425L57.514,25.425ZM43.674,24.19C47.08,23.459 50.671,23.459 54.077,24.19C54.211,24.221 54.324,24.324 54.355,24.457C55.085,27.514 56.269,30.436 57.864,33.142C57.936,33.266 57.926,33.42 57.843,33.544L54.993,37.474C54.911,37.588 54.767,37.649 54.633,37.618C50.867,36.857 46.884,36.857 43.118,37.618C42.984,37.649 42.84,37.588 42.758,37.474L39.907,33.544C39.825,33.43 39.815,33.266 39.887,33.142C41.482,30.436 42.665,27.514 43.396,24.457C43.427,24.324 43.54,24.221 43.674,24.19ZM30.039,32.484C32.673,29.314 36.059,26.845 39.846,25.353C39.897,25.332 39.949,25.322 39.99,25.322C40.124,25.322 40.206,25.394 40.237,25.425C40.288,25.476 40.401,25.6 40.34,25.795C39.64,28.028 38.673,30.158 37.469,32.144C37.417,32.226 37.335,32.288 37.242,32.309C34.989,32.844 32.663,33.111 30.327,33.08C30.111,33.08 30.019,32.916 29.998,32.864C29.967,32.803 29.916,32.638 30.049,32.484L30.039,32.484ZM27.744,35.756C27.806,35.643 27.93,35.571 28.063,35.571C28.063,35.571 28.084,35.571 28.094,35.571C31.233,35.818 34.382,35.602 37.438,34.922C37.582,34.892 37.726,34.943 37.808,35.066L40.679,39.018C40.762,39.131 40.772,39.285 40.71,39.399C38.878,42.815 37.685,46.489 37.16,50.327C37.139,50.461 37.047,50.574 36.913,50.625L32.272,52.138C32.138,52.179 31.984,52.138 31.891,52.035C29.813,49.679 27.405,47.662 24.719,46.015C24.606,45.943 24.534,45.809 24.544,45.665C24.894,42.136 25.975,38.802 27.755,35.766L27.744,35.756ZM28.866,61.111C28.804,61.306 28.629,61.348 28.557,61.358C28.485,61.358 28.321,61.358 28.208,61.193C26.016,57.746 24.719,53.753 24.462,49.658C24.452,49.452 24.585,49.349 24.647,49.318C24.709,49.288 24.873,49.216 25.038,49.339C26.942,50.687 28.671,52.272 30.183,54.031C30.245,54.103 30.276,54.196 30.266,54.299C30.08,56.614 29.607,58.909 28.856,61.121L28.866,61.111ZM39.033,70.506C35.822,69.096 32.992,67.028 30.626,64.373C30.533,64.27 30.502,64.116 30.554,63.992C31.758,61.09 32.519,58.034 32.817,54.906C32.828,54.762 32.931,54.638 33.065,54.597L37.654,53.105C37.654,53.105 37.726,53.085 37.767,53.085C37.87,53.085 37.963,53.126 38.035,53.208C40.607,56.089 43.828,58.435 47.358,59.989C47.491,60.051 47.574,60.175 47.574,60.319L47.574,65.145C47.574,65.289 47.491,65.423 47.358,65.474C44.476,66.719 41.801,68.396 39.403,70.444C39.3,70.537 39.146,70.557 39.023,70.496L39.033,70.506ZM55.219,71.525C55.209,71.597 55.158,71.761 54.952,71.813C50.98,72.821 46.781,72.821 42.809,71.813C42.614,71.761 42.552,71.597 42.542,71.525C42.531,71.453 42.511,71.288 42.686,71.154C44.559,69.765 46.596,68.602 48.747,67.707C48.839,67.666 48.932,67.666 49.025,67.707C51.165,68.602 53.202,69.765 55.086,71.154C55.25,71.278 55.24,71.453 55.23,71.525L55.219,71.525ZM67.146,64.383C64.779,67.038 61.949,69.096 58.739,70.506C58.605,70.568 58.461,70.537 58.358,70.455C55.96,68.407 53.295,66.729 50.403,65.484C50.27,65.423 50.187,65.299 50.187,65.155L50.187,60.329C50.187,60.185 50.27,60.051 50.403,60C53.933,58.446 57.164,56.1 59.726,53.218C59.798,53.136 59.891,53.095 59.994,53.095C60.035,53.095 60.066,53.095 60.107,53.115L64.697,54.608C64.83,54.649 64.933,54.772 64.944,54.916C65.242,58.044 66.003,61.09 67.207,64.003C67.259,64.126 67.238,64.28 67.135,64.383L67.146,64.383ZM69.554,61.204C69.44,61.378 69.265,61.379 69.204,61.368C69.132,61.368 68.967,61.317 68.895,61.121C68.154,58.909 67.681,56.614 67.485,54.299C67.485,54.206 67.506,54.103 67.568,54.031C69.08,52.272 70.809,50.697 72.713,49.339C72.785,49.288 72.857,49.267 72.918,49.267C73.001,49.267 73.063,49.298 73.104,49.318C73.165,49.349 73.309,49.452 73.289,49.658C73.032,53.753 71.735,57.746 69.543,61.193L69.554,61.204Z" transform="rotate(0 48.87 48.094)" fill="#FFFFFF"/>
</svg>
