<svg width="98" height="98" viewBox="0 0 98 98" fill="none" xmlns="http://www.w3.org/2000/svg" xmlns:xlink="http://www.w3.org/1999/xlink">
<path d="M48.693,97.666C21.681,97.666 -0.289,75.686 -0.289,48.685C-0.289,21.683 21.691,-0.297 48.693,-0.297C75.694,-0.297 97.674,21.683 97.674,48.685C97.674,75.686 75.694,97.666 48.693,97.666ZM48.693,2.965C23.482,2.965 2.973,23.474 2.973,48.685C2.973,73.896 23.482,94.404 48.693,94.404C73.904,94.404 94.412,73.896 94.412,48.685C94.412,23.474 73.904,2.965 48.693,2.965Z" transform="rotate(0 48.693 48.684)" fill="#9DADF2"/>
<path d="M64.584,18.102C64.337,18.102 64.09,18.051 63.864,17.937C59.12,15.591 54.016,14.398 48.696,14.398C43.376,14.398 38.272,15.591 33.528,17.937C32.9,18.246 32.149,18.123 31.655,17.629L23.238,9.211C22.878,8.851 22.713,8.357 22.775,7.853C22.837,7.349 23.125,6.906 23.557,6.649C31.141,2.101 39.836,-0.297 48.706,-0.297C57.576,-0.297 66.272,2.111 73.855,6.649C74.288,6.906 74.576,7.349 74.638,7.853C74.699,8.357 74.524,8.851 74.174,9.211L65.757,17.629C65.438,17.937 65.027,18.102 64.594,18.102L64.584,18.102ZM48.696,11.136C54.119,11.136 59.346,12.267 64.244,14.5L70.336,8.409C63.709,4.838 56.27,2.965 48.696,2.965C41.122,2.965 33.683,4.838 27.056,8.409L33.147,14.5C38.046,12.267 43.273,11.136 48.696,11.136Z" transform="rotate(0 48.706 8.904)" fill="#9DADF2"/>
<path d="M48.695,97.666C39.824,97.666 31.129,95.258 23.545,90.72C23.113,90.463 22.825,90.02 22.763,89.516C22.701,89.012 22.876,88.518 23.226,88.158L31.644,79.74C32.138,79.246 32.899,79.123 33.516,79.431C38.26,81.778 43.364,82.971 48.684,82.971C54.004,82.971 59.108,81.778 63.852,79.431C64.48,79.123 65.231,79.246 65.725,79.74L74.142,88.158C74.502,88.518 74.667,89.012 74.605,89.516C74.544,90.02 74.255,90.463 73.823,90.72C66.239,95.268 57.544,97.666 48.674,97.666L48.695,97.666ZM27.054,88.96C33.681,92.531 41.121,94.404 48.695,94.404C56.268,94.404 63.708,92.531 70.335,88.96L64.243,82.868C59.345,85.101 54.117,86.233 48.695,86.233C43.272,86.233 38.044,85.101 33.146,82.868L27.054,88.96Z" transform="rotate(0 48.684 88.464)" fill="#9DADF2"/>
<path d="M89.331,74.626C88.898,74.626 88.487,74.462 88.178,74.153L79.761,65.736C79.267,65.242 79.143,64.48 79.452,63.863C81.798,59.119 82.992,54.015 82.992,48.695C82.992,43.375 81.798,38.271 79.452,33.527C79.143,32.9 79.267,32.138 79.761,31.654L88.178,23.237C88.538,22.877 89.032,22.712 89.536,22.774C90.041,22.836 90.483,23.124 90.74,23.556C95.289,31.14 97.686,39.835 97.686,48.705C97.686,57.575 95.289,66.271 90.74,73.854C90.483,74.287 90.041,74.575 89.536,74.637C89.464,74.637 89.403,74.637 89.331,74.637L89.331,74.626ZM82.879,64.233L88.97,70.325C92.541,63.698 94.414,56.258 94.414,48.685C94.414,41.111 92.541,33.671 88.97,27.044L82.879,33.136C85.112,38.034 86.244,43.262 86.244,48.685C86.244,54.108 85.112,59.335 82.879,64.233Z" transform="rotate(0 88.485 48.699)" fill="#9DADF2"/>
<path d="M8.057,74.626C7.985,74.626 7.923,74.626 7.861,74.616C7.357,74.554 6.915,74.266 6.657,73.834C2.109,66.25 -0.289,57.555 -0.289,48.685C-0.289,39.815 2.109,31.119 6.657,23.535C6.915,23.103 7.357,22.815 7.861,22.753C8.365,22.692 8.859,22.867 9.22,23.217L17.637,31.634C18.131,32.128 18.254,32.889 17.946,33.507C15.599,38.25 14.406,43.354 14.406,48.674C14.406,53.994 15.599,59.098 17.946,63.842C18.254,64.47 18.131,65.231 17.637,65.715L9.22,74.132C8.911,74.441 8.499,74.616 8.067,74.616L8.057,74.626ZM8.417,27.044C4.846,33.671 2.973,41.111 2.973,48.685C2.973,56.258 4.846,63.698 8.417,70.325L14.509,64.233C12.276,59.335 11.144,54.108 11.144,48.685C11.144,43.262 12.276,38.034 14.509,33.136L8.417,27.044Z" transform="rotate(0 8.913 48.684)" fill="#9DADF2"/>
<path d="M48.694,11.125C27.99,11.125 11.135,27.971 11.135,48.685C11.135,69.399 27.98,86.244 48.694,86.244C69.408,86.244 86.253,69.399 86.253,48.685C86.253,27.971 69.408,11.125 48.694,11.125ZM69.83,36.347C71.61,39.393 72.691,42.716 73.041,46.246C73.051,46.39 72.989,46.524 72.866,46.596C70.18,48.242 67.772,50.259 65.693,52.616C65.601,52.729 65.447,52.77 65.313,52.718L60.672,51.206C60.538,51.165 60.445,51.051 60.425,50.907C59.9,47.069 58.706,43.395 56.875,39.979C56.813,39.856 56.823,39.712 56.906,39.598L59.777,35.647C59.849,35.554 59.962,35.493 60.075,35.493C60.106,35.493 60.126,35.493 60.157,35.493C63.224,36.172 66.373,36.398 69.501,36.141C69.645,36.131 69.779,36.203 69.851,36.326L69.83,36.347ZM57.893,51.556C57.904,51.658 57.873,51.761 57.811,51.833C55.372,54.643 52.265,56.896 48.838,58.337C48.746,58.378 48.653,58.378 48.56,58.337C45.134,56.886 42.026,54.632 39.587,51.833C39.525,51.761 39.495,51.658 39.505,51.556C39.978,47.831 41.141,44.27 42.942,40.977C42.993,40.885 43.076,40.823 43.179,40.802C44.99,40.422 46.842,40.226 48.704,40.226C50.567,40.226 52.419,40.422 54.23,40.802C54.333,40.823 54.415,40.885 54.467,40.977C56.268,44.27 57.42,47.831 57.904,51.556L57.893,51.556ZM57.338,26.015C57.338,26.015 57.461,25.913 57.585,25.913C57.626,25.913 57.677,25.913 57.729,25.943C61.516,27.446 64.901,29.915 67.535,33.074C67.669,33.229 67.618,33.393 67.587,33.455C67.566,33.507 67.474,33.671 67.258,33.671C64.922,33.702 62.596,33.435 60.343,32.9C60.25,32.879 60.168,32.817 60.116,32.735C58.912,30.749 57.945,28.609 57.245,26.386C57.183,26.19 57.297,26.057 57.348,26.015L57.338,26.015ZM43.498,24.781C46.904,24.05 50.495,24.05 53.901,24.781C54.035,24.811 54.148,24.914 54.179,25.048C54.909,28.104 56.093,31.027 57.688,33.733C57.76,33.856 57.749,34.011 57.667,34.134L54.817,38.065C54.734,38.178 54.59,38.24 54.457,38.209C50.69,37.448 46.708,37.448 42.942,38.209C42.808,38.24 42.664,38.178 42.582,38.065L39.731,34.134C39.649,34.021 39.639,33.856 39.711,33.733C41.306,31.027 42.489,28.104 43.22,25.048C43.251,24.914 43.364,24.811 43.498,24.781ZM29.863,33.074C32.497,29.905 35.883,27.435 39.67,25.943C39.721,25.923 39.772,25.913 39.814,25.913C39.947,25.913 40.03,25.985 40.061,26.015C40.112,26.067 40.225,26.19 40.163,26.386C39.464,28.619 38.496,30.749 37.292,32.735C37.241,32.817 37.159,32.879 37.066,32.9C34.813,33.435 32.487,33.702 30.151,33.671C29.935,33.671 29.842,33.507 29.822,33.455C29.791,33.393 29.739,33.229 29.873,33.074L29.863,33.074ZM27.568,36.347C27.63,36.234 27.753,36.161 27.887,36.161C27.887,36.161 27.908,36.161 27.918,36.161C31.057,36.408 34.205,36.192 37.262,35.513C37.406,35.482 37.55,35.534 37.632,35.657L40.503,39.609C40.585,39.722 40.596,39.876 40.534,39.989C38.702,43.406 37.509,47.079 36.984,50.918C36.963,51.051 36.871,51.165 36.737,51.216L32.096,52.729C31.962,52.77 31.808,52.729 31.715,52.626C29.637,50.269 27.229,48.252 24.543,46.606C24.43,46.534 24.358,46.4 24.368,46.256C24.718,42.727 25.798,39.393 27.579,36.357L27.568,36.347ZM28.69,61.702C28.628,61.897 28.453,61.938 28.381,61.949C28.309,61.949 28.144,61.949 28.031,61.784C25.839,58.337 24.543,54.344 24.286,50.249C24.275,50.043 24.409,49.94 24.471,49.909C24.533,49.878 24.697,49.806 24.862,49.93C26.766,51.278 28.494,52.862 30.007,54.622C30.069,54.694 30.1,54.787 30.089,54.89C29.904,57.205 29.431,59.5 28.68,61.712L28.69,61.702ZM38.857,71.097C35.646,69.687 32.816,67.619 30.45,64.964C30.357,64.861 30.326,64.707 30.377,64.583C31.581,61.681 32.343,58.625 32.641,55.497C32.652,55.353 32.755,55.229 32.888,55.188L37.478,53.696C37.478,53.696 37.55,53.675 37.591,53.675C37.694,53.675 37.786,53.717 37.858,53.799C40.431,56.68 43.652,59.026 47.181,60.58C47.315,60.642 47.397,60.765 47.397,60.909L47.397,65.736C47.397,65.88 47.315,66.013 47.181,66.065C44.3,67.31 41.625,68.987 39.227,71.035C39.124,71.128 38.97,71.148 38.846,71.086L38.857,71.097ZM55.043,72.115C55.033,72.187 54.981,72.352 54.776,72.404C50.804,73.412 46.605,73.412 42.633,72.404C42.438,72.352 42.376,72.187 42.366,72.115C42.355,72.043 42.335,71.879 42.51,71.745C44.382,70.356 46.42,69.193 48.571,68.298C48.663,68.257 48.756,68.257 48.848,68.298C50.989,69.193 53.026,70.356 54.909,71.745C55.074,71.869 55.064,72.043 55.053,72.115L55.043,72.115ZM66.969,64.974C64.603,67.629 61.773,69.687 58.562,71.097C58.429,71.158 58.285,71.128 58.182,71.045C55.784,68.997 53.119,67.32 50.227,66.075C50.094,66.013 50.011,65.89 50.011,65.746L50.011,60.92C50.011,60.776 50.094,60.642 50.227,60.59C53.757,59.037 56.988,56.69 59.55,53.809C59.622,53.727 59.715,53.686 59.818,53.686C59.859,53.686 59.89,53.686 59.931,53.706L64.52,55.198C64.654,55.24 64.757,55.363 64.767,55.507C65.066,58.635 65.827,61.681 67.031,64.593C67.083,64.717 67.062,64.871 66.959,64.974L66.969,64.974ZM69.377,61.794C69.264,61.969 69.089,61.969 69.028,61.959C68.955,61.959 68.791,61.908 68.719,61.712C67.978,59.5 67.505,57.205 67.309,54.89C67.309,54.797 67.33,54.694 67.391,54.622C68.904,52.862 70.633,51.288 72.536,49.93C72.608,49.878 72.681,49.858 72.742,49.858C72.825,49.858 72.886,49.889 72.927,49.909C72.989,49.94 73.133,50.043 73.113,50.249C72.855,54.344 71.559,58.337 69.367,61.784L69.377,61.794Z" transform="rotate(0 48.694 48.685)" fill="#9DADF2"/>
</svg>
