<svg width="98" height="98" viewBox="0 0 98 98" fill="none" xmlns="http://www.w3.org/2000/svg" xmlns:xlink="http://www.w3.org/1999/xlink">
<path d="M48.741,97.075C21.729,97.075 -0.241,75.095 -0.241,48.094C-0.241,21.092 21.739,-0.888 48.741,-0.888C75.742,-0.888 97.722,21.092 97.722,48.094C97.722,75.095 75.742,97.075 48.741,97.075ZM48.741,2.374C23.53,2.374 3.021,22.883 3.021,48.094C3.021,73.305 23.53,93.813 48.741,93.813C73.952,93.813 94.46,73.305 94.46,48.094C94.46,22.883 73.952,2.374 48.741,2.374Z" transform="rotate(0 48.741 48.094)" fill="#FFFFFF"/>
<path d="M64.627,17.5C64.38,17.5 64.133,17.449 63.907,17.336C59.163,14.99 54.059,13.796 48.739,13.796C43.419,13.796 38.315,14.99 33.572,17.336C32.944,17.645 32.193,17.521 31.699,17.027L23.281,8.61C22.921,8.25 22.757,7.756 22.818,7.251C22.88,6.747 23.168,6.305 23.6,6.047C31.184,1.499 39.88,-0.898 48.75,-0.898C57.62,-0.898 66.315,1.509 73.899,6.047C74.331,6.305 74.619,6.747 74.681,7.251C74.743,7.756 74.568,8.25 74.218,8.61L65.8,17.027C65.481,17.336 65.07,17.5 64.638,17.5L64.627,17.5ZM48.739,10.534C54.162,10.534 59.39,11.666 64.288,13.899L70.38,7.807C63.753,4.236 56.313,2.364 48.739,2.364C41.166,2.364 33.726,4.236 27.099,7.807L33.191,13.899C38.089,11.666 43.316,10.534 48.739,10.534Z" transform="rotate(0 48.749 8.303)" fill="#FFFFFF"/>
<path d="M48.738,97.075C39.868,97.075 31.173,94.667 23.589,90.129C23.157,89.872 22.868,89.429 22.807,88.925C22.745,88.421 22.92,87.927 23.27,87.567L31.687,79.149C32.181,78.655 32.943,78.532 33.56,78.841C38.304,81.187 43.408,82.381 48.728,82.381C54.048,82.381 59.152,81.187 63.895,78.841C64.523,78.532 65.274,78.655 65.768,79.149L74.186,87.567C74.546,87.927 74.71,88.421 74.649,88.925C74.587,89.429 74.299,89.872 73.867,90.129C66.283,94.677 57.588,97.075 48.717,97.075L48.738,97.075ZM27.098,88.369C33.725,91.94 41.164,93.813 48.738,93.813C56.312,93.813 63.751,91.94 70.378,88.369L64.286,82.278C59.388,84.511 54.161,85.642 48.738,85.642C43.315,85.642 38.088,84.511 33.189,82.278L27.098,88.369Z" transform="rotate(0 48.728 87.874)" fill="#FFFFFF"/>
<path d="M89.378,74.025C88.946,74.025 88.534,73.86 88.225,73.551L79.808,65.134C79.314,64.64 79.191,63.878 79.499,63.261C81.846,58.517 83.039,53.413 83.039,48.093C83.039,42.773 81.846,37.669 79.499,32.926C79.191,32.298 79.314,31.536 79.808,31.053L88.225,22.635C88.586,22.275 89.08,22.111 89.584,22.172C90.088,22.234 90.53,22.522 90.788,22.954C95.336,30.538 97.734,39.234 97.734,48.104C97.734,56.974 95.336,65.669 90.788,73.253C90.53,73.685 90.088,73.973 89.584,74.035C89.512,74.035 89.45,74.035 89.378,74.035L89.378,74.025ZM82.926,63.632L89.018,69.723C92.588,63.096 94.461,55.657 94.461,48.083C94.461,40.51 92.588,33.07 89.018,26.443L82.926,32.535C85.159,37.433 86.291,42.66 86.291,48.083C86.291,53.506 85.159,58.733 82.926,63.632Z" transform="rotate(0 88.532 48.097)" fill="#FFFFFF"/>
<path d="M8.104,74.025C8.032,74.025 7.97,74.025 7.909,74.014C7.404,73.953 6.962,73.665 6.705,73.232C2.156,65.648 -0.241,56.953 -0.241,48.083C-0.241,39.213 2.156,30.518 6.705,22.934C6.962,22.502 7.404,22.214 7.909,22.152C8.413,22.09 8.907,22.265 9.267,22.615L17.684,31.032C18.178,31.526 18.302,32.288 17.993,32.905C15.647,37.649 14.453,42.753 14.453,48.073C14.453,53.393 15.647,58.497 17.993,63.241C18.302,63.868 18.178,64.63 17.684,65.113L9.267,73.531C8.958,73.84 8.547,74.014 8.114,74.014L8.104,74.025ZM8.464,26.443C4.894,33.07 3.021,40.51 3.021,48.083C3.021,55.657 4.894,63.097 8.464,69.723L14.556,63.632C12.323,58.733 11.191,53.506 11.191,48.083C11.191,42.66 12.323,37.433 14.556,32.535L8.464,26.443Z" transform="rotate(0 8.96 48.082)" fill="#FFFFFF"/>
<path d="M48.741,10.534C28.037,10.534 11.182,27.379 11.182,48.093C11.182,68.808 28.027,85.653 48.741,85.653C69.456,85.653 86.301,68.808 86.301,48.093C86.301,27.379 69.456,10.534 48.741,10.534ZM69.878,35.756C71.658,38.801 72.738,42.125 73.088,45.655C73.098,45.799 73.037,45.933 72.913,46.005C70.227,47.651 67.819,49.668 65.741,52.024C65.648,52.138 65.494,52.179 65.36,52.127L60.719,50.615C60.585,50.573 60.493,50.46 60.472,50.316C59.947,46.478 58.754,42.804 56.922,39.388C56.86,39.264 56.871,39.12 56.953,39.007L59.824,35.056C59.896,34.963 60.009,34.901 60.122,34.901C60.153,34.901 60.174,34.901 60.205,34.901C63.271,35.581 66.42,35.807 69.548,35.55C69.692,35.539 69.826,35.611 69.898,35.735L69.878,35.756ZM57.941,50.964C57.951,51.067 57.92,51.17 57.859,51.242C55.42,54.051 52.312,56.305 48.886,57.746C48.793,57.787 48.7,57.787 48.608,57.746C45.181,56.295 42.073,54.041 39.635,51.242C39.573,51.17 39.542,51.067 39.552,50.964C40.026,47.239 41.188,43.679 42.989,40.386C43.041,40.293 43.123,40.232 43.226,40.211C45.037,39.83 46.889,39.635 48.752,39.635C50.614,39.635 52.467,39.83 54.278,40.211C54.38,40.232 54.463,40.293 54.514,40.386C56.315,43.679 57.468,47.239 57.951,50.964L57.941,50.964ZM57.385,25.424C57.385,25.424 57.509,25.321 57.632,25.321C57.673,25.321 57.725,25.321 57.776,25.352C61.563,26.854 64.949,29.324 67.583,32.483C67.717,32.638 67.665,32.802 67.634,32.864C67.614,32.915 67.521,33.08 67.305,33.08C64.969,33.111 62.644,32.843 60.39,32.308C60.297,32.288 60.215,32.226 60.164,32.144C58.96,30.158 57.992,28.017 57.293,25.795C57.231,25.599 57.344,25.465 57.395,25.424L57.385,25.424ZM43.545,24.189C46.951,23.459 50.542,23.459 53.948,24.189C54.082,24.22 54.195,24.323 54.226,24.457C54.957,27.513 56.14,30.435 57.735,33.142C57.807,33.265 57.797,33.42 57.714,33.543L54.864,37.474C54.782,37.587 54.638,37.649 54.504,37.618C50.738,36.857 46.755,36.857 42.989,37.618C42.855,37.649 42.711,37.587 42.629,37.474L39.779,33.543C39.696,33.43 39.686,33.265 39.758,33.142C41.353,30.435 42.536,27.513 43.267,24.457C43.298,24.323 43.411,24.22 43.545,24.189ZM29.91,32.483C32.545,29.314 35.93,26.844 39.717,25.352C39.768,25.332 39.82,25.321 39.861,25.321C39.995,25.321 40.077,25.393 40.108,25.424C40.159,25.476 40.273,25.599 40.211,25.795C39.511,28.028 38.544,30.158 37.34,32.144C37.288,32.226 37.206,32.288 37.114,32.308C34.86,32.843 32.534,33.111 30.198,33.08C29.982,33.08 29.89,32.915 29.869,32.864C29.838,32.802 29.787,32.638 29.921,32.483L29.91,32.483ZM27.616,35.756C27.677,35.642 27.801,35.57 27.935,35.57C27.935,35.57 27.955,35.57 27.965,35.57C31.104,35.817 34.253,35.601 37.309,34.922C37.453,34.891 37.597,34.943 37.679,35.066L40.55,39.017C40.633,39.131 40.643,39.285 40.581,39.398C38.75,42.815 37.556,46.488 37.031,50.326C37.011,50.46 36.918,50.573 36.784,50.625L32.143,52.137C32.01,52.179 31.855,52.138 31.763,52.035C29.684,49.678 27.276,47.661 24.59,46.015C24.477,45.943 24.405,45.809 24.415,45.665C24.765,42.135 25.846,38.801 27.626,35.766L27.616,35.756ZM28.737,61.111C28.675,61.306 28.501,61.347 28.429,61.358C28.356,61.358 28.192,61.358 28.079,61.193C25.887,57.746 24.59,53.753 24.333,49.658C24.323,49.452 24.456,49.349 24.518,49.318C24.58,49.287 24.745,49.215 24.909,49.339C26.813,50.687 28.542,52.271 30.054,54.031C30.116,54.103 30.147,54.196 30.137,54.298C29.951,56.614 29.478,58.908 28.727,61.121L28.737,61.111ZM38.904,70.506C35.693,69.096 32.864,67.027 30.497,64.373C30.404,64.27 30.373,64.115 30.425,63.992C31.629,61.09 32.39,58.034 32.689,54.906C32.699,54.761 32.802,54.638 32.936,54.597L37.525,53.105C37.525,53.105 37.597,53.084 37.638,53.084C37.741,53.084 37.834,53.125 37.906,53.208C40.478,56.089 43.699,58.435 47.229,59.989C47.363,60.051 47.445,60.174 47.445,60.318L47.445,65.144C47.445,65.288 47.363,65.422 47.229,65.474C44.347,66.719 41.672,68.396 39.274,70.444C39.172,70.536 39.017,70.557 38.894,70.495L38.904,70.506ZM55.09,71.524C55.08,71.596 55.029,71.761 54.823,71.812C50.851,72.821 46.653,72.821 42.681,71.812C42.485,71.761 42.423,71.596 42.413,71.524C42.403,71.452 42.382,71.288 42.557,71.154C44.43,69.765 46.467,68.602 48.618,67.707C48.711,67.665 48.803,67.665 48.896,67.707C51.036,68.602 53.074,69.765 54.957,71.154C55.121,71.277 55.111,71.452 55.101,71.524L55.09,71.524ZM67.017,64.383C64.65,67.038 61.82,69.096 58.61,70.506C58.476,70.567 58.332,70.536 58.229,70.454C55.831,68.406 53.166,66.729 50.275,65.484C50.141,65.422 50.059,65.299 50.059,65.155L50.059,60.329C50.059,60.184 50.141,60.051 50.275,59.999C53.804,58.445 57.035,56.099 59.598,53.218C59.67,53.136 59.762,53.095 59.865,53.095C59.906,53.095 59.937,53.094 59.978,53.115L64.568,54.607C64.702,54.648 64.804,54.772 64.815,54.916C65.113,58.044 65.875,61.09 67.079,64.002C67.13,64.126 67.109,64.28 67.007,64.383L67.017,64.383ZM69.425,61.203C69.312,61.378 69.137,61.378 69.075,61.368C69.003,61.368 68.838,61.316 68.766,61.121C68.025,58.908 67.552,56.614 67.356,54.298C67.356,54.206 67.377,54.103 67.439,54.031C68.951,52.271 70.68,50.697 72.584,49.339C72.656,49.287 72.728,49.267 72.79,49.267C72.872,49.267 72.934,49.297 72.975,49.318C73.037,49.349 73.181,49.452 73.16,49.658C72.903,53.753 71.606,57.746 69.414,61.193L69.425,61.203Z" transform="rotate(0 48.741 48.093)" fill="#FFFFFF"/>
</svg>
