<svg width="98" height="100" viewBox="0 0 98 100" fill="none" xmlns="http://www.w3.org/2000/svg" xmlns:xlink="http://www.w3.org/1999/xlink">
<path d="M48.523,98.339C35.969,98.339 23.425,93.564 13.866,84.005C-5.243,64.896 -5.243,33.809 13.866,14.7C23.127,5.439 35.434,0.345 48.523,0.345C61.612,0.345 73.92,5.439 83.181,14.7C102.29,33.809 102.29,64.896 83.181,84.005C73.631,93.554 61.077,98.339 48.523,98.339ZM16.438,81.432C34.127,99.121 62.909,99.121 80.598,81.432C98.287,63.743 98.287,34.961 80.598,17.273C72.026,8.701 60.635,3.988 48.513,3.988C36.391,3.988 25,8.711 16.428,17.273C-1.261,34.961 -1.261,63.743 16.428,81.432L16.438,81.432Z" transform="rotate(0 48.523 49.342)" fill="#7DDACF"/>
<path d="M50.337,39.037L41.261,51.755L46.705,51.755L46.705,60.831L55.781,48.123L50.337,48.123L50.337,39.037Z" transform="rotate(0 48.521 49.934)" fill="#7DDACF"/>
<path d="M48.514,31.967C38.573,31.967 30.506,40.034 30.506,49.975C30.506,59.915 38.573,67.962 48.514,67.962C58.454,67.962 66.522,59.894 66.522,49.975C66.522,40.055 58.454,31.967 48.514,31.967ZM48.514,65.739C39.788,65.739 32.708,58.66 32.708,49.934C32.708,41.207 39.788,34.128 48.514,34.128C57.24,34.128 64.319,41.207 64.319,49.934C64.319,58.66 57.24,65.739 48.514,65.739Z" transform="rotate(0 48.514 49.964)" fill="#7DDACF"/>
<path d="M76.35,21.523C68.921,14.083 59.032,9.998 48.515,9.998C37.999,9.998 28.12,14.093 20.68,21.523C5.338,36.865 5.338,61.84 20.68,77.193C28.357,84.869 38.431,88.707 48.515,88.707C58.6,88.707 68.674,84.869 76.35,77.193C91.693,61.85 91.693,36.876 76.35,21.523ZM48.515,74.404C35.056,74.404 24.097,63.445 24.097,49.985C24.097,44.038 26.227,38.584 29.767,34.324L26.782,31.339C25.928,30.485 25.928,29.096 26.782,28.232C27.637,27.367 29.026,27.378 29.89,28.232L32.874,31.216C36.579,28.119 41.24,26.081 46.324,25.649L46.324,23.632L44.307,23.632C42.527,23.632 41.055,22.161 41.055,20.38L41.055,18.682C41.055,16.882 42.527,15.431 44.307,15.431L52.745,15.431C54.525,15.431 55.996,16.882 55.996,18.682L55.996,20.38C55.996,22.161 54.525,23.632 52.745,23.632L50.728,23.632L50.728,25.649C55.821,26.091 60.473,28.129 64.177,31.216L67.161,28.232C68.015,27.378 69.405,27.378 70.269,28.232C71.123,29.086 71.123,30.475 70.269,31.339L67.285,34.324C70.825,38.584 72.955,44.027 72.955,49.985C72.955,63.445 61.996,74.404 48.536,74.404L48.515,74.404Z" transform="rotate(0 48.515 49.352)" fill="#7DDACF"/>
</svg>
