<svg width="98" height="98" viewBox="0 0 98 98" fill="none" xmlns="http://www.w3.org/2000/svg" xmlns:xlink="http://www.w3.org/1999/xlink">
<path d="M48.394,97.266C35.84,97.266 23.296,92.491 13.736,82.932C-5.372,63.823 -5.372,32.736 13.736,13.627C22.998,4.366 35.305,-0.728 48.394,-0.728C61.483,-0.728 73.79,4.366 83.051,13.627C102.16,32.736 102.16,63.823 83.051,82.932C73.502,92.481 60.948,97.266 48.394,97.266ZM16.309,80.359C33.998,98.048 62.78,98.048 80.468,80.359C98.157,62.67 98.157,33.889 80.468,16.2C71.897,7.628 60.505,2.915 48.384,2.915C36.262,2.915 24.87,7.638 16.299,16.2C-1.39,33.889 -1.39,62.67 16.299,80.359L16.309,80.359Z" transform="rotate(0 48.394 48.269)" fill="#7DDACF"/>
<path d="M50.208,37.963L41.132,50.682L46.575,50.682L46.575,59.758L55.651,47.05L50.208,47.05L50.208,37.963Z" transform="rotate(0 48.392 48.861)" fill="#7DDACF"/>
<path d="M48.384,30.894C38.444,30.894 30.376,38.961 30.376,48.901C30.376,58.842 38.444,66.889 48.384,66.889C58.325,66.889 66.392,58.821 66.392,48.901C66.392,38.982 58.325,30.894 48.384,30.894ZM48.384,64.666C39.658,64.666 32.579,57.586 32.579,48.86C32.579,40.134 39.658,33.055 48.384,33.055C57.11,33.055 64.19,40.134 64.19,48.86C64.19,57.586 57.11,64.666 48.384,64.666Z" transform="rotate(0 48.384 48.891)" fill="#7DDACF"/>
<path d="M76.221,20.449C68.792,13.01 58.903,8.924 48.386,8.924C37.869,8.924 27.991,13.02 20.551,20.449C5.208,35.792 5.208,60.766 20.551,76.119C28.227,83.796 38.302,87.634 48.386,87.634C58.47,87.634 68.545,83.796 76.221,76.119C91.564,60.777 91.564,35.802 76.221,20.449ZM48.386,73.331C34.926,73.331 23.967,62.372 23.967,48.912C23.967,42.964 26.097,37.511 29.637,33.25L26.653,30.266C25.799,29.412 25.799,28.023 26.653,27.159C27.507,26.294 28.896,26.304 29.761,27.159L32.745,30.143C36.449,27.045 41.111,25.008 46.194,24.576L46.194,22.559L44.177,22.559C42.397,22.559 40.926,21.087 40.926,19.307L40.926,17.609C40.926,15.808 42.397,14.358 44.177,14.358L52.615,14.358C54.396,14.358 55.867,15.808 55.867,17.609L55.867,19.307C55.867,21.087 54.396,22.559 52.615,22.559L50.598,22.559L50.598,24.576C55.692,25.018 60.343,27.056 64.048,30.143L67.032,27.159C67.886,26.304 69.275,26.304 70.14,27.159C70.994,28.013 70.994,29.402 70.14,30.266L67.155,33.25C70.695,37.511 72.825,42.954 72.825,48.912C72.825,62.372 61.866,73.331 48.407,73.331L48.386,73.331Z" transform="rotate(0 48.386 48.279)" fill="#7DDACF"/>
</svg>
