<svg width="30" height="32" viewBox="0 0 30 32" fill="none" xmlns="http://www.w3.org/2000/svg" xmlns:xlink="http://www.w3.org/1999/xlink">
<path d="M26.338,7.438C23.598,3.68 20.002,1.55 15.271,1C17.484,3.563 19.007,6.337 19.979,9.439C22.192,8.983 24.289,8.386 26.338,7.438Z" fill="#9DADF2"/>
<path d="M6.5,11.046C5.66,10.826 4.844,10.613 4.04,10.364C3.321,10.132 2.612,9.867 1.903,9.601C1.503,9.452 1.103,9.302 0.702,9.158C-1.675,13.337 -1.453,19.272 0.69,22.771C1.888,22.395 3.076,22.019 4.275,21.639L4.277,21.638C5.351,21.298 6.435,20.954 7.542,20.606C6.909,17.563 6.921,14.426 7.553,11.324C7.197,11.228 6.847,11.136 6.5,11.046Z" fill="#9DADF2"/>
<path d="M23.892,10.317C22.75,10.68 21.607,11.043 20.459,11.406C21.092,14.472 21.068,17.586 20.459,20.594C22.778,21.332 25.039,22.046 27.322,22.76C29.571,18.909 29.547,13.056 27.322,9.229C26.175,9.591 25.033,9.954 23.892,10.317Z" fill="#9DADF2"/>
<path d="M9.439,20.454C8.783,17.481 8.806,14.566 9.404,11.652C9.881,11.68 10.35,11.713 10.814,11.746C11.895,11.823 12.945,11.897 13.995,11.897C15.044,11.897 16.093,11.823 17.175,11.746C17.638,11.713 18.108,11.68 18.585,11.652C19.23,14.519 19.206,17.457 18.574,20.442C15.505,20.044 12.507,20.021 9.439,20.454Z" fill="#9DADF2"/>
<path d="M26.339,24.551C23.621,28.308 20.014,30.426 15.283,31C17.461,28.448 19.019,25.686 19.967,22.572C22.169,22.994 24.254,23.626 26.339,24.551Z" fill="#9DADF2"/>
<path d="M12.718,1C7.986,1.562 4.379,3.692 1.569,7.567C3.77,8.245 5.843,8.889 7.986,9.556C8.982,6.314 10.528,3.563 12.718,1Z" fill="#9DADF2"/>
<path d="M12.718,31C7.998,30.438 4.403,28.32 1.569,24.433C2.27,24.217 2.959,24.004 3.642,23.793L3.645,23.792C5.101,23.342 6.528,22.902 7.986,22.455C8.982,25.662 10.504,28.437 12.718,31Z" fill="#9DADF2"/>
<path d="M18.082,9.72C17.203,6.97 15.856,4.57 13.994,2.393C12.12,4.605 10.762,6.993 9.919,9.72C12.671,10.083 15.341,10.095 18.082,9.72Z" fill="#9DADF2"/>
<path d="M14.006,29.607C12.144,27.442 10.797,25.042 9.919,22.291C12.647,21.905 15.318,21.917 18.093,22.28C17.215,25.019 15.868,27.407 14.006,29.607Z" fill="#9DADF2"/>
</svg>
