<svg width="38" height="38" viewBox="0 0 38 38" fill="none" xmlns="http://www.w3.org/2000/svg" xmlns:xlink="http://www.w3.org/1999/xlink">
<path d="M33.423,7.297C29.997,2.601 25.503,-0.062 19.589,-0.75C22.356,2.454 24.259,5.922 25.474,9.799C28.241,9.229 30.861,8.482 33.423,7.297Z" fill="#9DADF2"/>
<path d="M8.625,11.807C7.575,11.533 6.555,11.266 5.55,10.955C4.651,10.665 3.765,10.333 2.879,10.002C2.379,9.815 1.879,9.628 1.378,9.448C-1.594,14.671 -1.316,22.089 1.363,26.464C2.86,25.994 4.345,25.523 5.843,25.049L5.846,25.048C7.189,24.622 8.544,24.193 9.927,23.757C9.136,19.953 9.151,16.032 9.942,12.155C9.497,12.035 9.058,11.921 8.625,11.807Z" fill="#9DADF2"/>
<path d="M30.365,10.896C28.937,11.35 27.509,11.804 26.074,12.257C26.865,16.091 26.835,19.983 26.074,23.743C28.973,24.665 31.798,25.557 34.653,26.45C37.464,21.636 37.434,14.32 34.653,9.536C33.219,9.989 31.792,10.443 30.365,10.896Z" fill="#9DADF2"/>
<path d="M12.298,23.567C11.479,19.851 11.508,16.208 12.255,12.564C12.852,12.6 13.438,12.641 14.017,12.682C15.369,12.778 16.681,12.872 17.993,12.872C19.305,12.872 20.617,12.779 21.969,12.682C22.548,12.641 23.135,12.6 23.732,12.564C24.537,16.149 24.508,19.822 23.717,23.553C19.882,23.055 16.134,23.026 12.298,23.567Z" fill="#9DADF2"/>
<path d="M33.423,28.688C30.027,33.385 25.518,36.033 19.604,36.75C22.327,33.56 24.274,30.107 25.459,26.215C28.212,26.742 30.817,27.532 33.423,28.688Z" fill="#9DADF2"/>
<path d="M16.397,-0.75C10.483,-0.048 5.974,2.615 2.461,7.458C5.213,8.307 7.804,9.111 10.483,9.945C11.727,5.893 13.66,2.454 16.397,-0.75Z" fill="#9DADF2"/>
<path d="M16.397,36.75C10.498,36.048 6.003,33.399 2.461,28.542C3.338,28.271 4.199,28.005 5.052,27.742L5.056,27.741C6.876,27.178 8.659,26.627 10.483,26.069C11.727,30.078 13.631,33.546 16.397,36.75Z" fill="#9DADF2"/>
<path d="M23.102,10.15C22.004,6.712 20.32,3.713 17.993,0.991C15.65,3.756 13.952,6.741 12.898,10.15C16.339,10.604 19.676,10.619 23.102,10.15Z" fill="#9DADF2"/>
<path d="M18.007,35.009C15.68,32.302 13.996,29.303 12.898,25.864C16.309,25.381 19.647,25.396 23.117,25.85C22.019,29.273 20.335,32.258 18.007,35.009Z" fill="#9DADF2"/>
</svg>
