<svg width="42" height="28" viewBox="0 0 42 28" fill="none" xmlns="http://www.w3.org/2000/svg" xmlns:xlink="http://www.w3.org/1999/xlink">
<path d="M1.333,28L38.667,28C39.95,28 41,26.95 41,25.667C41,24.383 39.95,23.333 38.667,23.333L1.333,23.333C0.05,23.333 -1,24.383 -1,25.667C-1,26.95 0.05,28 1.333,28ZM1.333,16.333L38.667,16.333C39.95,16.333 41,15.283 41,14C41,12.717 39.95,11.667 38.667,11.667L1.333,11.667C0.05,11.667 -1,12.717 -1,14C-1,15.283 0.05,16.333 1.333,16.333ZM-1,2.333C-1,3.617 0.05,4.667 1.333,4.667L38.667,4.667C39.95,4.667 41,3.617 41,2.333C41,1.05 39.95,0 38.667,0L1.333,0C0.05,0 -1,1.05 -1,2.333Z" fill="#FFFFFF"/>
</svg>
