<svg width="242" height="216" viewBox="0 0 242 216" fill="none" xmlns="http://www.w3.org/2000/svg" xmlns:xlink="http://www.w3.org/1999/xlink">
<path d="M0.306,107.787C0.306,80.775 22.286,58.795 49.298,58.795C76.31,58.795 98.29,80.775 98.29,107.787C98.29,134.799 76.31,156.779 49.298,156.779C22.286,156.779 0.306,134.799 0.306,107.787ZM94.76,107.787C94.76,82.72 74.365,62.325 49.298,62.325C24.231,62.325 3.836,82.72 3.836,107.787C3.836,132.854 24.231,153.249 49.298,153.249C74.365,153.249 94.76,132.854 94.76,107.787Z" transform="rotate(-180 49.298 107.787)" fill="#478BF9"/>
<path d="M143.71,84.194C143.71,83.217 144.503,82.434 145.47,82.434C146.437,82.434 147.23,83.227 147.23,84.194C147.23,109.261 167.625,129.656 192.692,129.656C217.758,129.656 238.154,109.261 238.154,84.194C238.154,83.217 238.946,82.434 239.913,82.434C240.881,82.434 241.673,83.227 241.673,84.194C241.673,111.206 219.693,133.186 192.681,133.186C165.669,133.186 143.69,111.206 143.69,84.194L143.71,84.194Z" transform="rotate(-180 192.681 107.81)" fill="#478BF9"/>
<path d="M97.893,105.842L76.438,105.842L76.438,110.072L97.893,110.072L97.893,105.842Z" transform="rotate(0 87.166 107.957)" fill="#478BF9"/>
<path d="M24.021,105.842L2.566,105.842L2.566,110.072L24.021,110.072L24.021,105.842Z" transform="rotate(0 13.293 107.957)" fill="#478BF9"/>
<path d="M52.681,134.49L48.452,134.49L48.452,155.945L52.681,155.945L52.681,134.49Z" transform="rotate(0 50.566 145.217)" fill="#478BF9"/>
<path d="M52.681,59.968L48.452,59.968L48.452,81.423L52.681,81.423L52.681,59.968Z" transform="rotate(0 50.566 70.696)" fill="#478BF9"/>
<path d="M75.79,81.115C61.116,66.441 37.315,66.441 22.631,81.115C7.957,95.789 7.957,119.59 22.631,134.274C37.305,148.948 61.106,148.948 75.79,134.274C90.464,119.6 90.464,95.799 75.79,81.115ZM56.475,84.294C60.756,85.622 64.594,88.102 67.578,91.477L68.155,92.125L67.311,92.321C65.078,92.846 62.691,93.278 60.221,93.597L59.778,93.659L59.655,93.226C59.243,91.817 58.76,90.458 58.204,89.203C57.515,87.628 56.743,86.25 55.899,85.087L54.973,83.821L56.475,84.284L56.475,84.294ZM39.301,106.521L39.322,105.986C39.424,102.734 39.785,99.627 40.402,96.766L40.495,96.313L40.958,96.355C46.37,96.828 52.153,96.807 57.535,96.303L57.998,96.262L58.101,96.715C58.729,99.606 59.089,102.724 59.182,105.986L59.182,106.521L39.311,106.521L39.301,106.521ZM59.182,108.909L59.182,109.444C59.068,112.706 58.708,115.824 58.081,118.715L57.978,119.168L57.515,119.127C52.133,118.623 46.35,118.612 40.937,119.075L40.474,119.116L40.381,118.664C39.764,115.803 39.404,112.706 39.301,109.444L39.28,108.909L59.161,108.909L59.182,108.909ZM49.241,83.399C52.236,83.399 55.282,87.196 57.185,93.319L57.381,93.936L56.733,93.988C54.201,94.204 51.587,94.317 48.963,94.317C46.525,94.317 44.096,94.224 41.729,94.029L41.081,93.978L41.277,93.35C43.18,87.207 46.237,83.389 49.241,83.389L49.241,83.399ZM30.801,91.59C33.806,88.164 37.675,85.642 42.007,84.305L43.52,83.842L42.583,85.118C41.74,86.27 40.958,87.659 40.278,89.223C39.733,90.458 39.239,91.837 38.807,93.319L38.684,93.741L38.241,93.689C35.751,93.381 33.343,92.969 31.079,92.444L30.225,92.249L30.801,91.59ZM24.792,105.966C25.08,101.952 26.366,98.042 28.517,94.636L28.723,94.317L29.093,94.41C31.727,95.079 34.567,95.614 37.552,95.994L38.107,96.066L37.994,96.622C37.377,99.606 37.027,102.765 36.934,106.017L36.934,106.521L24.761,106.521L24.802,105.966L24.792,105.966ZM28.723,121.113L28.517,120.794C26.366,117.398 25.08,113.477 24.792,109.464L24.751,108.909L36.914,108.909L36.914,109.413C37.016,112.665 37.377,115.834 37.984,118.808L38.097,119.363L37.541,119.435C34.567,119.816 31.717,120.351 29.083,121.02L28.712,121.113L28.723,121.113ZM42.007,131.135C37.675,129.798 33.806,127.277 30.801,123.85L30.225,123.191L31.079,122.996C33.343,122.481 35.751,122.059 38.241,121.751L38.684,121.699L38.807,122.121C39.239,123.603 39.733,124.982 40.278,126.217C40.968,127.791 41.74,129.17 42.583,130.333L43.52,131.609L42.007,131.146L42.007,131.135ZM49.241,132.031C46.237,132.031 43.18,128.213 41.277,122.07L41.081,121.442L41.729,121.391C46.638,121 51.865,121.01 56.733,121.432L57.381,121.483L57.185,122.101C55.271,128.213 52.225,132.02 49.241,132.02L49.241,132.031ZM67.578,123.953C64.594,127.328 60.746,129.808 56.475,131.135L54.973,131.599L55.899,130.333C56.743,129.18 57.515,127.791 58.204,126.217C58.749,124.951 59.243,123.603 59.655,122.193L59.778,121.761L60.221,121.823C62.691,122.142 65.078,122.574 67.311,123.099L68.155,123.305L67.578,123.953ZM73.681,109.464C73.392,113.519 72.086,117.48 69.883,120.917L69.678,121.236L69.307,121.144C66.704,120.454 63.874,119.909 60.91,119.508L60.355,119.435L60.468,118.89C61.085,115.906 61.445,112.726 61.538,109.423L61.538,108.919L73.711,108.919L73.67,109.475L73.681,109.464ZM61.559,106.521L61.559,106.017C61.456,102.714 61.096,99.524 60.478,96.55L60.365,96.005L60.921,95.933C63.884,95.531 66.704,94.986 69.317,94.297L69.688,94.204L69.894,94.523C72.096,97.96 73.413,101.911 73.691,105.976L73.732,106.532L61.569,106.532L61.559,106.521Z" transform="rotate(0 49.21 107.694)" fill="#478BF9"/>
<line x1="51.571" y1="155.068" x2="169.806" y2="155.068" fill="#478BF9"/>
<path d="M108.929,214.198L108.929,95.963C108.929,94.986 109.722,94.204 110.689,94.204C111.656,94.204 112.449,94.996 112.449,95.963L112.449,214.198C112.449,215.175 111.656,215.957 110.689,215.957C109.722,215.957 108.929,215.165 108.929,214.198Z" transform="rotate(-180 110.689 155.081)" fill="#478BF9"/>
<line x1="51.839" y1="60.616" x2="170.073" y2="60.616" fill="#478BF9"/>
<path d="M109.197,119.735L109.197,1.501C109.197,0.523 109.989,-0.259 110.956,-0.259C111.924,-0.259 112.716,0.533 112.716,1.501L112.716,119.735C112.716,120.713 111.924,121.495 110.956,121.495C109.989,121.495 109.197,120.702 109.197,119.735Z" transform="rotate(-180 110.956 60.618)" fill="#478BF9"/>
</svg>
