<svg width="242" height="216" viewBox="0 0 242 216" fill="none" xmlns="http://www.w3.org/2000/svg" xmlns:xlink="http://www.w3.org/1999/xlink">
<path d="M0.177,107.787C0.177,80.775 22.157,58.795 49.169,58.795C76.181,58.795 98.161,80.775 98.161,107.787C98.161,134.799 76.181,156.779 49.169,156.779C22.157,156.779 0.177,134.799 0.177,107.787ZM94.631,107.787C94.631,82.72 74.236,62.325 49.169,62.325C24.102,62.325 3.707,82.72 3.707,107.787C3.707,132.854 24.102,153.249 49.169,153.249C74.236,153.249 94.631,132.854 94.631,107.787Z" transform="rotate(-180 49.169 107.787)" fill="#478BF9"/>
<path d="M143.581,84.194C143.581,83.217 144.374,82.434 145.341,82.434C146.308,82.434 147.101,83.227 147.101,84.194C147.101,109.261 167.496,129.656 192.563,129.656C217.63,129.656 238.025,109.261 238.025,84.194C238.025,83.217 238.817,82.434 239.785,82.434C240.752,82.434 241.544,83.227 241.544,84.194C241.544,111.206 219.564,133.186 192.552,133.186C165.541,133.186 143.561,111.206 143.561,84.194L143.581,84.194Z" transform="rotate(-180 192.552 107.81)" fill="#478BF9"/>
<path d="M97.764,105.842L76.309,105.842L76.309,110.072L97.764,110.072L97.764,105.842Z" transform="rotate(0 87.036 107.957)" fill="#478BF9"/>
<path d="M23.891,105.842L2.436,105.842L2.436,110.072L23.891,110.072L23.891,105.842Z" transform="rotate(0 13.164 107.957)" fill="#478BF9"/>
<path d="M52.551,134.49L48.322,134.49L48.322,155.945L52.551,155.945L52.551,134.49Z" transform="rotate(0 50.436 145.218)" fill="#478BF9"/>
<path d="M52.551,59.968L48.322,59.968L48.322,81.423L52.551,81.423L52.551,59.968Z" transform="rotate(0 50.436 70.696)" fill="#478BF9"/>
<path d="M75.661,81.115C60.987,66.441 37.185,66.441 22.501,81.115C7.828,95.789 7.828,119.59 22.501,134.274C37.175,148.948 60.976,148.948 75.661,134.274C90.334,119.6 90.334,95.799 75.661,81.115ZM56.346,84.294C60.627,85.622 64.465,88.102 67.449,91.477L68.025,92.125L67.181,92.321C64.949,92.846 62.561,93.278 60.092,93.597L59.649,93.659L59.526,93.226C59.114,91.817 58.63,90.458 58.075,89.203C57.385,87.628 56.613,86.25 55.77,85.087L54.843,83.821L56.346,84.284L56.346,84.294ZM39.172,106.521L39.192,105.986C39.295,102.734 39.655,99.627 40.273,96.766L40.365,96.313L40.828,96.355C46.241,96.828 52.024,96.807 57.406,96.303L57.869,96.262L57.972,96.715C58.599,99.606 58.96,102.724 59.052,105.986L59.052,106.521L39.182,106.521L39.172,106.521ZM59.052,108.909L59.052,109.444C58.939,112.706 58.579,115.824 57.951,118.715L57.848,119.168L57.385,119.127C52.003,118.623 46.22,118.612 40.808,119.075L40.345,119.116L40.252,118.664C39.635,115.803 39.274,112.706 39.172,109.444L39.151,108.909L59.032,108.909L59.052,108.909ZM49.112,83.399C52.106,83.399 55.152,87.196 57.056,93.319L57.251,93.936L56.603,93.988C54.072,94.204 51.458,94.317 48.834,94.317C46.395,94.317 43.967,94.224 41.6,94.029L40.952,93.978L41.147,93.35C43.051,87.207 46.107,83.389 49.112,83.389L49.112,83.399ZM30.672,91.59C33.677,88.164 37.546,85.642 41.878,84.305L43.391,83.842L42.454,85.118C41.61,86.27 40.828,87.659 40.149,89.223C39.604,90.458 39.11,91.837 38.678,93.319L38.554,93.741L38.112,93.689C35.621,93.381 33.213,92.969 30.95,92.444L30.096,92.249L30.672,91.59ZM24.662,105.966C24.951,101.952 26.237,98.042 28.387,94.636L28.593,94.317L28.964,94.41C31.598,95.079 34.438,95.614 37.422,95.994L37.978,96.066L37.865,96.622C37.247,99.606 36.897,102.765 36.805,106.017L36.805,106.521L24.632,106.521L24.673,105.966L24.662,105.966ZM28.593,121.113L28.387,120.794C26.237,117.398 24.951,113.477 24.662,109.464L24.621,108.909L36.784,108.909L36.784,109.413C36.887,112.665 37.247,115.834 37.854,118.808L37.968,119.363L37.412,119.435C34.438,119.816 31.588,120.351 28.953,121.02L28.583,121.113L28.593,121.113ZM41.878,131.135C37.546,129.798 33.677,127.277 30.672,123.85L30.096,123.191L30.95,122.996C33.213,122.481 35.621,122.059 38.112,121.751L38.554,121.699L38.678,122.121C39.11,123.603 39.604,124.982 40.149,126.217C40.839,127.791 41.61,129.17 42.454,130.333L43.391,131.609L41.878,131.146L41.878,131.135ZM49.112,132.031C46.107,132.031 43.051,128.213 41.147,122.07L40.952,121.442L41.6,121.391C46.508,121 51.736,121.01 56.603,121.432L57.251,121.483L57.056,122.101C55.142,128.213 52.096,132.02 49.112,132.02L49.112,132.031ZM67.449,123.953C64.465,127.328 60.616,129.808 56.346,131.135L54.843,131.599L55.77,130.333C56.613,129.18 57.385,127.791 58.075,126.217C58.62,124.951 59.114,123.603 59.526,122.193L59.649,121.761L60.092,121.823C62.561,122.142 64.949,122.574 67.181,123.099L68.025,123.305L67.449,123.953ZM73.551,109.464C73.263,113.519 71.956,117.48 69.754,120.917L69.548,121.236L69.178,121.144C66.574,120.454 63.745,119.909 60.781,119.508L60.225,119.435L60.338,118.89C60.956,115.906 61.316,112.726 61.409,109.423L61.409,108.919L73.582,108.919L73.541,109.475L73.551,109.464ZM61.429,106.521L61.429,106.017C61.326,102.714 60.966,99.524 60.349,96.55L60.236,96.005L60.791,95.933C63.755,95.531 66.574,94.986 69.188,94.297L69.559,94.204L69.764,94.523C71.966,97.96 73.284,101.911 73.561,105.976L73.603,106.532L61.44,106.532L61.429,106.521Z" transform="rotate(0 49.081 107.694)" fill="#478BF9"/>
<line x1="51.443" y1="155.068" x2="169.677" y2="155.068" fill="#478BF9"/>
<path d="M108.8,214.198L108.8,95.963C108.8,94.986 109.593,94.204 110.56,94.204C111.527,94.204 112.32,94.996 112.32,95.963L112.32,214.198C112.32,215.175 111.527,215.957 110.56,215.957C109.593,215.957 108.8,215.165 108.8,214.198Z" transform="rotate(-180 110.56 155.081)" fill="#478BF9"/>
<line x1="51.711" y1="60.616" x2="169.945" y2="60.616" fill="#478BF9"/>
<path d="M109.068,119.735L109.068,1.501C109.068,0.523 109.861,-0.259 110.828,-0.259C111.795,-0.259 112.588,0.533 112.588,1.501L112.588,119.735C112.588,120.713 111.795,121.495 110.828,121.495C109.861,121.495 109.068,120.702 109.068,119.735Z" transform="rotate(-180 110.828 60.618)" fill="#478BF9"/>
</svg>
