<svg width="11" height="13" viewBox="0 0 11 13" fill="none" xmlns="http://www.w3.org/2000/svg">
<path fill-rule="evenodd" clip-rule="evenodd" d="M6.50005 0C6.89893 0 7.22228 0.323353 7.22228 0.722228C7.22228 1.48842 7.52665 2.22322 8.06842 2.765C8.6102 3.30677 9.34501 3.61114 10.1112 3.61114C10.5101 3.61114 10.8334 3.93449 10.8334 4.33337C10.8334 4.73224 10.5101 5.0556 10.1112 5.0556C9.04255 5.0556 8.0146 4.66086 7.22228 3.95214V9.38896C7.22228 10.1032 7.01049 10.8014 6.61369 11.3952C6.2169 11.9891 5.65292 12.4519 4.99307 12.7252C4.33322 12.9985 3.60714 13.0701 2.90664 12.9307C2.20615 12.7914 1.56271 12.4475 1.05768 11.9424C0.552653 11.4374 0.208725 10.794 0.0693887 10.0935C-0.069948 9.39297 0.00156463 8.66689 0.274883 8.00704C0.548202 7.34719 1.01105 6.78321 1.6049 6.38641C2.19875 5.98962 2.89693 5.77782 3.61114 5.77782C4.01002 5.77782 4.33337 6.10118 4.33337 6.50005C4.33337 6.89893 4.01002 7.22228 3.61114 7.22228C3.18261 7.22228 2.76371 7.34935 2.4074 7.58743C2.05109 7.82551 1.77338 8.1639 1.60939 8.55981C1.4454 8.95572 1.40249 9.39137 1.48609 9.81166C1.56969 10.232 1.77605 10.618 2.07906 10.921C2.38208 11.2241 2.76815 11.4304 3.18844 11.514C3.60874 11.5976 4.04439 11.5547 4.4403 11.3907C4.83621 11.2267 5.1746 10.949 5.41267 10.5927C5.65075 10.2364 5.77783 9.81749 5.77783 9.38896V0.722228C5.77783 0.323353 6.10118 0 6.50005 0Z" fill="#110A1D"/>
</svg>
