<svg width="14" height="12" viewBox="0 0 14 12" fill="none" xmlns="http://www.w3.org/2000/svg">
<path d="M12.5774 3.01546V3.40841C12.5774 7.36541 9.68655 11.9001 4.39678 11.9001C2.83518 11.9036 1.30675 11.4323 0 10.5444C0.226944 10.5764 0.455864 10.5908 0.684869 10.5876C1.97931 10.5913 3.23736 10.1429 4.25678 9.31445C3.65541 9.30524 3.07214 9.09943 2.58985 8.72625C2.10756 8.35308 1.7508 7.83153 1.57028 7.23574C1.74941 7.27518 1.93204 7.29493 2.11515 7.29468C2.37084 7.29474 2.62538 7.25906 2.87191 7.18859C2.22056 7.05374 1.63457 6.68802 1.21422 6.154C0.793871 5.61998 0.565283 4.95085 0.567571 4.26111V4.22182C0.966082 4.453 1.41286 4.57978 1.8692 4.59119C1.26175 4.17606 0.829857 3.53572 0.661776 2.80099C0.493695 2.06626 0.602111 1.29261 0.964871 0.638116C1.68768 1.56135 2.58948 2.31627 3.61166 2.85381C4.63384 3.39135 5.75351 3.69947 6.89788 3.75814C6.84123 3.53511 6.81449 3.30503 6.81842 3.0744C6.79711 2.4649 6.95721 1.86339 7.27691 1.35177C7.59661 0.840157 8.06037 0.443297 8.60505 0.215231C9.14974 -0.0128359 9.74887 -0.061025 10.3209 0.0772251C10.8929 0.215475 11.41 0.533446 11.8017 0.987841C12.4456 0.852889 13.0633 0.607189 13.6293 0.260884C13.4146 0.9648 12.958 1.56206 12.3466 1.93878C12.9178 1.85704 13.4747 1.69029 14.0001 1.44366C13.6193 2.05102 13.1376 2.58324 12.5774 3.01546Z" fill="#110A1D"/>
</svg>
