<svg width="14" height="9" viewBox="0 0 14 9" fill="none" xmlns="http://www.w3.org/2000/svg">
<path fill-rule="evenodd" clip-rule="evenodd" d="M0.0650849 0.148965C0.129321 0.0553872 0.232084 0 0.341467 0H2.68733C2.81886 0 2.93869 0.0798466 2.99541 0.205276C3.13809 0.520799 3.27676 0.83996 3.41394 1.1557C3.73245 1.88879 4.04294 2.60343 4.37704 3.21127C4.61381 3.64203 4.85003 3.99465 5.09094 4.24504C5.1929 4.35101 5.29184 4.43472 5.38831 4.498V1.50633L4.68571 0.587825C4.60298 0.479678 4.5864 0.330912 4.64309 0.20541C4.69979 0.0799077 4.81966 0 4.95124 0H8.21223C8.40081 0 8.55369 0.161586 8.55369 0.360912V3.7413C8.94373 3.33465 9.24894 2.8712 9.52766 2.37435C9.6881 2.08834 9.8368 1.7969 9.98928 1.49805C10.0261 1.42581 10.0632 1.35314 10.1007 1.28001C10.2915 0.908191 10.4915 0.52873 10.7204 0.162139C10.7836 0.0609118 10.8907 0 11.0054 0H13.2522C13.3582 0 13.4581 0.0519794 13.5228 0.1407C13.5874 0.229421 13.6094 0.344831 13.5824 0.453098C13.1522 2.17431 12.3149 3.37654 11.5165 4.52291C11.485 4.5682 11.4535 4.61339 11.4221 4.65853C12.506 5.68369 13.3746 6.93938 13.9702 8.34472C14.0175 8.45638 14.0081 8.58579 13.9452 8.68848C13.8822 8.79117 13.7743 8.85317 13.6586 8.85317H11.1864C11.1045 8.85317 11.0253 8.82206 10.9633 8.76553C10.7021 8.52735 10.4774 8.26669 10.2702 8.01752C10.2278 7.96652 10.1864 7.9163 10.1456 7.86682C9.98268 7.66939 9.82966 7.48392 9.66493 7.3093C9.34932 6.97472 9.00999 6.7016 8.55369 6.54852V8.49225C8.55369 8.67402 8.42581 8.82742 8.25521 8.8503C5.48259 9.22212 3.61796 7.78148 2.36194 5.93668C1.15476 4.16362 0.481872 1.98111 0.0557557 0.599005C0.0425544 0.556186 0.0295899 0.514136 0.0168538 0.47289C-0.0170841 0.362982 0.000848981 0.242542 0.0650849 0.148965ZM0.812365 0.721824C1.24105 2.09791 1.86989 3.9782 2.91626 5.51506C4.02913 7.1496 5.58626 8.35939 7.87076 8.16687V6.0958C7.87076 5.99058 7.9142 5.8906 7.98971 5.82204C8.06522 5.75348 8.16528 5.72315 8.26369 5.73901C9.12056 5.8771 9.68466 6.30788 10.1486 6.79965C10.331 6.99309 10.5029 7.20151 10.6671 7.40065C10.7062 7.44808 10.7449 7.49499 10.7832 7.54105C10.958 7.75131 11.1296 7.95016 11.3163 8.13134H13.1154C12.5291 6.93021 11.7227 5.86194 10.7413 4.98975C10.6041 4.86787 10.5794 4.65467 10.6847 4.50142C10.7784 4.3651 10.872 4.23043 10.9651 4.09656C11.6878 3.057 12.3769 2.06584 12.7952 0.721824H11.1916C11.0192 1.01172 10.8605 1.3134 10.7011 1.62409C10.6653 1.69387 10.6294 1.76428 10.5932 1.83512C10.4402 2.13502 10.2833 2.44258 10.1151 2.74248C9.69627 3.4891 9.18909 4.2227 8.41032 4.80897C8.30621 4.88736 8.16939 4.89771 8.05577 4.83581C7.94215 4.77391 7.87076 4.65011 7.87076 4.51501V0.721824H5.66643L5.99531 1.15177C6.04444 1.216 6.07124 1.29609 6.07124 1.37868V5.00585C6.07124 5.10882 6.02963 5.20689 5.95687 5.27538C5.88411 5.34386 5.78714 5.37623 5.69036 5.36435C5.2728 5.31305 4.91596 5.07552 4.61211 4.75971C4.3087 4.44437 4.03678 4.02915 3.78653 3.57387C3.43519 2.93466 3.102 2.16793 2.7771 1.42027C2.67443 1.18401 2.57259 0.94965 2.47127 0.721824H0.812365Z" fill="#110A1D"/>
<path d="M2.91626 5.51506C1.86989 3.9782 1.24105 2.09791 0.812365 0.721824H2.47127C2.57259 0.94965 2.67443 1.18401 2.7771 1.42027C3.102 2.16793 3.43519 2.93466 3.78653 3.57387C4.03678 4.02915 4.3087 4.44437 4.61211 4.75971C4.91596 5.07552 5.2728 5.31305 5.69036 5.36435C5.78714 5.37623 5.88411 5.34386 5.95687 5.27538C6.02963 5.20689 6.07124 5.10882 6.07124 5.00585V1.37868C6.07124 1.29609 6.04444 1.216 5.99531 1.15177L5.66643 0.721824H7.87076V4.51501C7.87076 4.65011 7.94215 4.77391 8.05577 4.83581C8.16939 4.89771 8.30621 4.88736 8.41032 4.80897C9.18909 4.2227 9.69627 3.4891 10.1151 2.74248C10.2833 2.44258 10.4402 2.13502 10.5932 1.83512C10.6294 1.76428 10.6653 1.69387 10.7011 1.62409C10.8605 1.3134 11.0192 1.01172 11.1916 0.721824H12.7952C12.3769 2.06584 11.6878 3.057 10.9651 4.09656C10.872 4.23043 10.7784 4.3651 10.6847 4.50142C10.5794 4.65467 10.6041 4.86787 10.7413 4.98975C11.7227 5.86194 12.5291 6.93021 13.1154 8.13134H11.3163C11.1296 7.95016 10.958 7.75131 10.7832 7.54105C10.7449 7.49499 10.7062 7.44808 10.6671 7.40065C10.5029 7.20151 10.331 6.99309 10.1486 6.79965C9.68466 6.30788 9.12056 5.8771 8.26369 5.73901C8.16528 5.72315 8.06522 5.75348 7.98971 5.82204C7.9142 5.8906 7.87076 5.99058 7.87076 6.0958V8.16687C5.58626 8.35939 4.02913 7.1496 2.91626 5.51506Z" fill="#110A1D"/>
</svg>
